# Blender 5.2.0 LTS
# www.blender.org
mtllib brush-edited-bald.mtl
o 06-Paint_Brush_bald
v -0.082277 0.004149 0.224448
v -0.073804 0.009356 0.190604
v 0.075280 0.009356 0.192572
v 0.075393 0.009917 0.186845
v -0.073656 0.009356 0.190607
v 0.075128 0.009357 0.192570
v -0.084008 -0.002752 0.184884
v -0.083021 -0.002752 0.190410
v -0.073848 0.009687 0.184927
v -0.073231 0.009356 0.154521
v -0.073591 0.009356 0.185026
v -0.082482 -0.007778 0.184909
v -0.082547 -0.002752 0.154327
v -0.083533 -0.002752 0.148743
v -0.073313 0.009839 0.148757
v -0.073177 0.009357 0.154523
v -0.073109 0.009356 0.145283
v -0.073115 0.009355 0.148886
v -0.073108 0.009861 0.140740
v -0.082962 -0.002752 0.145006
v -0.073109 0.009356 0.145283
v -0.083310 -0.002752 0.140794
v -0.081899 0.002274 0.140787
v 0.075886 0.009356 0.139285
v -0.082841 -0.002752 0.137029
v -0.072710 0.004152 0.135069
v 0.076007 0.009883 0.134835
v 0.075886 0.009356 0.139285
v 0.075995 0.009356 0.131063
v -0.072905 0.009356 0.133034
v -0.083006 -0.002752 0.128964
v -0.081796 -0.007778 0.132916
v 0.085145 -0.002717 0.192702
v 0.084347 -0.002477 0.226645
v 0.084469 -0.002617 0.192624
v 0.085586 -0.002637 0.187116
v 0.085233 -0.002477 0.187122
v 0.085692 -0.002593 0.156618
v 0.084948 -0.002620 0.156541
v 0.086065 -0.002638 0.150976
v 0.075608 0.009356 0.156487
v 0.075949 0.009801 0.150719
v 0.075691 0.009356 0.150850
v 0.085814 -0.002593 0.147380
v 0.085146 -0.002730 0.150975
v 0.085513 -0.002442 0.147244
v 0.075554 0.003973 0.145039
v 0.086034 -0.002591 0.143019
v 0.075797 0.009356 0.142868
v 0.085251 -0.002730 0.142993
v 0.085720 -0.002718 0.139414
v 0.085592 -0.002410 0.139269
v 0.086158 -0.002598 0.135145
v 0.085919 -0.002477 0.135130
v 0.085829 -0.002718 0.131192
v -0.083597 -0.005525 0.190475
v -0.073755 -0.014860 0.224558
v 0.075280 -0.014861 0.192572
v -0.073656 -0.014860 0.190607
v 0.075414 -0.015343 0.186865
v 0.075128 -0.014861 0.192570
v -0.073843 -0.015306 0.184887
v 0.075214 -0.014860 0.186990
v -0.082655 -0.009125 0.154397
v -0.073177 -0.014861 0.154523
v 0.075872 -0.015421 0.150706
v -0.073373 -0.015191 0.148788
v -0.082005 -0.007778 0.148769
v -0.082891 -0.005111 0.145154
v 0.075781 -0.014861 0.147248
v -0.073108 -0.015365 0.140740
v -0.073109 -0.014861 0.145283
v 0.075781 -0.014861 0.147248
v -0.073010 -0.014859 0.140905
v -0.083115 -0.002752 0.137186
v 0.075886 -0.014861 0.139285
v -0.083222 -0.002752 0.132919
v -0.071276 -0.011179 0.135239
v 0.075995 -0.014861 0.131063
v 0.075900 -0.014860 0.134997
v 0.084347 -0.003027 0.226645
v 0.085145 -0.002788 0.192702
v 0.084469 -0.002887 0.192624
v 0.085586 -0.002867 0.187116
v 0.085692 -0.002911 0.156618
v 0.084669 -0.002774 0.187115
v 0.084948 -0.002884 0.156541
v 0.086065 -0.002866 0.150976
v 0.075608 -0.014860 0.156487
v 0.075691 -0.014860 0.150850
v 0.085615 -0.002786 0.147378
v 0.085146 -0.002774 0.150975
v 0.075976 -0.015147 0.142766
v 0.085513 -0.003062 0.147244
v 0.086034 -0.002913 0.143019
v 0.075797 -0.014860 0.142868
v 0.085720 -0.002786 0.139414
v 0.085251 -0.002774 0.142993
v 0.085592 -0.003094 0.139269
v 0.075978 -0.009299 0.137190
v 0.086158 -0.002906 0.135145
v 0.085829 -0.002786 0.131192
v 0.085355 -0.002774 0.135122
v 0.075857 -0.005501 0.226533
v 0.083032 -0.005760 0.226627
v -0.070585 0.008832 0.224600
v 0.074377 0.009356 0.226513
v 0.075858 -0.000005 0.226533
v 0.083031 0.000258 0.226627
v -0.073797 -0.014861 0.224558
v -0.067373 -0.013811 0.224642
v -0.075277 -0.000003 0.224538
v -0.082451 0.000258 0.224443
v 0.074377 -0.014861 0.226513
v -0.082453 -0.005760 0.224443
v -0.075278 -0.005499 0.224538
v 0.067953 0.008307 0.226428
v -0.073797 0.009356 0.224558
v 0.067953 -0.013811 0.226428
v -0.025896 -0.002752 0.310958
v -0.041434 -0.003196 0.477326
v -0.022328 -0.002183 0.367790
v -0.032652 -0.001580 0.539253
v -0.050725 -0.002752 0.264139
v -0.078047 -0.009030 0.235846
v -0.004613 0.001067 0.588686
v -0.082622 -0.002752 0.210433
v -0.022030 0.008822 0.297879
v -0.031860 0.008770 0.475121
v -0.072668 0.008814 0.230879
v -0.014238 0.008827 0.327197
v -0.004598 0.008762 0.581308
v -0.026000 0.008757 0.522781
v -0.041169 0.008757 0.263427
v -0.012973 0.008810 0.363408
v -0.072707 0.008757 0.210566
v -0.012923 0.008757 0.363413
v 0.012064 0.008757 0.327534
v -0.014172 0.008757 0.327188
v 0.025120 0.008757 0.482122
v -0.025122 0.008757 0.434313
v -0.031303 0.008757 0.481377
v -0.072616 0.008757 0.230827
v 0.073656 0.008757 0.212497
v -0.072707 0.008757 0.210566
v -0.004411 0.008757 0.581740
v 0.020637 0.008757 0.298402
v -0.021973 0.008757 0.297840
v -0.026000 0.008757 0.522781
v -0.019753 0.008757 0.518767
v -0.022132 0.008757 0.509398
v 0.040734 0.008757 0.264508
v -0.041169 0.008757 0.263427
v -0.003706 0.008757 0.528317
v -0.013009 0.008757 0.525692
v -0.019507 0.008757 0.500095
v -0.012582 0.008757 0.493351
v -0.003213 0.008757 0.490972
v -0.008551 0.009285 0.527317
v -0.020864 0.009651 0.513653
v -0.016998 0.008777 0.495830
v -0.003577 -0.002752 0.495645
v -0.017007 -0.002752 0.510368
v -0.003213 0.008757 0.490972
v -0.005877 -0.002752 0.522706
v 0.024213 -0.002752 0.311619
v 0.019146 -0.003322 0.368337
v 0.035497 -0.002354 0.479462
v 0.024713 -0.003436 0.540507
v 0.050268 -0.002752 0.265471
v 0.078327 0.003526 0.237910
v -0.004392 0.001067 0.588689
v 0.020692 0.008822 0.298442
v 0.012130 0.008827 0.327545
v 0.025842 0.008770 0.475883
v -0.004212 0.008762 0.581313
v 0.009909 0.008810 0.363710
v 0.018726 0.008757 0.523371
v 0.040734 0.008757 0.264508
v 0.073031 0.008757 0.232749
v 0.073656 0.008757 0.212497
v 0.009859 0.008757 0.363714
v 0.020183 0.008757 0.434911
v 0.073031 0.008757 0.232749
v 0.018726 0.008757 0.523371
v 0.012588 0.008757 0.519194
v 0.005663 0.008757 0.525938
v 0.012834 0.008757 0.500522
v 0.006090 0.008757 0.493597
v 0.005433 0.008998 0.525601
v 0.013833 0.009651 0.514110
v 0.005659 -0.002752 0.518793
v 0.010439 0.008777 0.496192
v -0.002972 -0.002752 0.495653
v 0.008873 -0.002752 0.506437
v -0.004649 -0.006714 0.588602
v -0.022030 -0.014327 0.297879
v -0.014238 -0.014331 0.327197
v -0.031860 -0.014274 0.475121
v -0.026060 -0.014331 0.522819
v -0.004598 -0.014266 0.581308
v -0.012973 -0.014314 0.363408
v -0.041169 -0.014261 0.263427
v -0.072616 -0.014261 0.230827
v -0.072707 -0.014261 0.210566
v -0.012923 -0.014261 0.363413
v 0.012064 -0.014261 0.327534
v -0.025122 -0.014261 0.434313
v -0.031303 -0.014261 0.481377
v -0.072616 -0.014261 0.230827
v -0.072707 -0.014261 0.210566
v -0.041169 -0.014261 0.263427
v -0.014172 -0.014261 0.327188
v -0.026000 -0.014261 0.522781
v -0.019753 -0.014261 0.518767
v -0.021973 -0.014261 0.297840
v -0.003706 -0.014261 0.528317
v -0.004411 -0.014261 0.581740
v -0.013009 -0.014261 0.525692
v -0.019507 -0.014261 0.500095
v -0.012582 -0.014261 0.493351
v -0.003213 -0.014261 0.490972
v -0.008551 -0.014789 0.527317
v -0.020864 -0.015156 0.513653
v -0.016998 -0.014281 0.495830
v -0.004353 -0.006714 0.588606
v 0.083571 -0.002752 0.212626
v 0.020692 -0.014327 0.298442
v 0.025842 -0.014274 0.475883
v 0.073081 -0.014318 0.232803
v 0.012130 -0.014331 0.327545
v -0.004212 -0.014266 0.581313
v 0.018726 -0.014261 0.523371
v 0.040734 -0.014261 0.264508
v 0.009909 -0.014314 0.363710
v 0.073656 -0.014261 0.212497
v 0.009859 -0.014261 0.363714
v 0.020183 -0.014261 0.434911
v 0.025120 -0.014261 0.482122
v 0.073031 -0.014261 0.232749
v 0.073656 -0.014261 0.212497
v 0.020637 -0.014261 0.298402
v 0.018726 -0.014261 0.523371
v 0.012588 -0.014261 0.519194
v 0.015213 -0.014261 0.509891
v 0.040734 -0.014261 0.264508
v 0.005663 -0.014261 0.525938
v 0.012834 -0.014261 0.500522
v 0.006090 -0.014261 0.493597
v 0.005433 -0.014502 0.525601
v 0.013833 -0.015156 0.514110
v 0.010439 -0.014281 0.496192
v -0.003213 -0.014261 0.490972
v -0.067373 0.008307 0.224642
v 0.073656 0.008757 0.212497
v 0.015213 0.008757 0.509891
v -0.003213 0.008757 0.490972
v -0.072707 -0.014261 0.210566
v -0.022132 -0.014261 0.509398
v -0.003213 -0.014261 0.490972
v 0.081666 -0.007353 0.139947
v 0.081007 -0.007353 0.189843
v 0.077003 -0.010195 0.139886
v 0.076344 -0.010195 0.189782
v 0.076859 -0.010504 0.139884
v 0.076201 -0.010504 0.189780
v 0.076710 -0.012739 0.139882
v 0.076052 -0.012739 0.189778
v 0.078558 -0.007503 0.189811
v 0.077341 -0.007503 0.189795
v 0.079216 -0.007503 0.139915
v 0.079070 -0.007226 0.189818
v 0.077853 -0.007226 0.189801
v 0.079728 -0.007226 0.139922
v 0.077951 -0.010890 0.139898
v 0.077292 -0.010890 0.189794
v 0.078770 -0.010451 0.139909
v 0.078112 -0.010451 0.189805
v 0.081547 -0.006437 0.139946
v 0.080889 -0.006437 0.189842
v 0.079164 -0.009259 0.139914
v 0.078505 -0.009259 0.189810
v 0.007136 -0.013011 0.138964
v 0.006477 -0.013011 0.188860
v 0.042166 -0.013976 0.139426
v 0.041508 -0.013976 0.189322
v 0.030839 -0.012875 0.189181
v 0.029623 -0.012875 0.189165
v 0.010697 -0.013782 0.139011
v 0.010039 -0.013782 0.188907
v 0.052859 -0.013195 0.139567
v 0.052200 -0.013195 0.189463
v 0.075421 -0.013516 0.139865
v 0.074763 -0.013516 0.189761
v 0.069444 -0.012274 0.189690
v 0.068227 -0.012274 0.189674
v 0.035637 -0.013393 0.139340
v 0.034979 -0.013393 0.189236
v 0.026138 -0.013135 0.139215
v 0.025479 -0.013135 0.189110
v 0.057564 -0.012542 0.189534
v 0.056347 -0.012542 0.189518
v 0.062360 -0.013063 0.139693
v 0.061702 -0.013063 0.189588
v 0.071860 -0.013322 0.139818
v 0.071201 -0.013322 0.189714
v 0.020198 -0.013653 0.139136
v 0.019540 -0.013653 0.189032
v 0.065917 -0.013845 0.139739
v 0.065259 -0.013845 0.189635
v 0.046918 -0.013716 0.139489
v 0.046259 -0.013716 0.189385
v 0.043359 -0.012937 0.139442
v 0.042701 -0.012937 0.189338
v 0.011837 -0.012752 0.188930
v 0.010620 -0.012752 0.188914
v 0.016636 -0.013266 0.139089
v 0.015978 -0.013266 0.188985
v 0.067113 -0.012800 0.139755
v 0.066455 -0.012800 0.189651
v 0.056419 -0.013585 0.139614
v 0.055760 -0.013585 0.189510
v 0.029697 -0.013911 0.139261
v 0.029039 -0.013911 0.189157
v 0.007136 -0.013011 0.138964
v 0.006477 -0.013011 0.188860
v 0.042166 -0.013976 0.139426
v 0.041508 -0.013976 0.189322
v 0.030839 -0.012875 0.189181
v 0.029623 -0.012875 0.189165
v 0.010697 -0.013782 0.139011
v 0.010039 -0.013782 0.188907
v 0.052859 -0.013195 0.139567
v 0.052200 -0.013195 0.189463
v 0.075421 -0.013516 0.139865
v 0.074763 -0.013516 0.189761
v 0.069444 -0.012274 0.189690
v 0.068227 -0.012274 0.189674
v 0.080012 -0.005068 0.139925
v 0.079353 -0.005068 0.189821
v 0.076311 -0.003397 0.189781
v -0.079765 -0.006871 0.187721
v -0.077954 -0.007762 0.187745
v -0.079171 -0.007762 0.187729
v -0.074957 -0.008889 0.187785
v -0.071526 -0.005114 0.187830
v -0.070310 -0.005114 0.187846
v -0.071513 -0.003625 0.187830
v -0.008897 -0.012649 0.188657
v -0.010114 -0.012649 0.188641
v -0.048276 -0.013634 0.138232
v -0.048934 -0.013634 0.188128
v -0.020444 -0.013239 0.138600
v -0.021102 -0.013239 0.188496
v -0.006527 -0.013176 0.138783
v -0.007185 -0.013176 0.188679
v -0.012904 -0.013769 0.138699
v -0.013562 -0.013769 0.188595
v -0.073931 -0.010203 0.187798
v -0.027456 -0.012443 0.188412
v -0.028673 -0.012443 0.188396
v -0.031459 -0.013901 0.138454
v -0.032117 -0.013901 0.188350
v -0.001887 -0.013441 0.138845
v -0.002545 -0.013441 0.188740
v -0.068569 -0.013967 0.137965
v -0.069227 -0.013967 0.187860
v -0.057606 -0.013300 0.188014
v -0.058823 -0.013300 0.187998
v -0.000777 -0.011342 0.188764
v -0.001994 -0.011342 0.188748
v -0.004258 -0.012126 0.188718
v -0.005474 -0.012126 0.188702
v -0.043690 -0.013103 0.188197
v -0.044907 -0.013103 0.188181
v -0.038999 -0.013369 0.138355
v -0.039658 -0.013369 0.188251
v -0.067440 -0.013566 0.137980
v -0.067491 -0.013566 0.187876
v -0.052971 -0.012767 0.188075
v -0.071528 -0.012893 0.187830
v -0.072745 -0.012893 0.187814
v -0.000834 -0.012392 0.188763
v -0.011165 -0.013703 0.138722
v -0.011823 -0.013703 0.188618
v -0.025084 -0.012973 0.138539
v -0.025743 -0.012973 0.188434
v -0.029721 -0.013503 0.138477
v -0.030379 -0.013503 0.188373
v -0.034363 -0.012839 0.138416
v -0.035022 -0.012839 0.188312
v -0.046013 -0.012569 0.188167
v -0.047230 -0.012569 0.188151
v -0.050014 -0.013834 0.138210
v -0.050673 -0.013834 0.188105
v -0.062247 -0.013032 0.187953
v -0.063464 -0.013032 0.187937
v -0.015856 -0.012712 0.188565
v -0.017073 -0.012712 0.188549
v -0.008897 -0.012649 0.188657
v -0.010114 -0.012649 0.188641
v -0.048276 -0.013634 0.138232
v -0.048934 -0.013634 0.188128
v -0.020444 -0.013239 0.138600
v -0.021102 -0.013239 0.188496
v -0.006527 -0.013176 0.138783
v -0.007185 -0.013176 0.188679
v -0.012904 -0.013769 0.138699
v -0.013562 -0.013769 0.188595
v -0.073931 -0.010203 0.187798
v -0.027456 -0.012443 0.188412
v -0.028673 -0.012443 0.188396
v -0.080740 -0.004321 0.137804
v -0.081398 -0.004321 0.187700
v -0.079911 -0.003597 0.187720
v -0.080294 -0.005445 0.137810
v -0.080953 -0.005445 0.187706
v 0.081071 0.000317 0.189844
v 0.075864 0.004595 0.189775
v 0.077081 0.004595 0.189791
v 0.081881 0.000709 0.139950
v 0.081222 0.000709 0.189846
v 0.074914 0.003288 0.189763
v 0.051142 0.008130 0.139544
v 0.050484 0.008130 0.189440
v 0.022044 0.007735 0.189065
v 0.023260 0.007735 0.189081
v 0.008126 0.007672 0.188881
v 0.009343 0.007672 0.188897
v 0.015770 0.008265 0.139078
v 0.015112 0.008265 0.188973
v 0.075481 0.004699 0.189770
v 0.034325 0.008397 0.139323
v 0.033667 0.008397 0.189218
v 0.003486 0.007937 0.188820
v 0.004703 0.007937 0.188836
v 0.071435 0.008463 0.139812
v 0.070776 0.008463 0.189708
v 0.059156 0.007796 0.189555
v 0.060372 0.007796 0.189571
v 0.045240 0.007598 0.189371
v 0.046456 0.007598 0.189387
v 0.040599 0.007865 0.189310
v 0.041816 0.007865 0.189326
v 0.069698 0.008062 0.139789
v 0.069040 0.008062 0.189685
v 0.074953 0.007388 0.139859
v 0.074294 0.007388 0.189754
v 0.073736 0.007388 0.139843
v 0.001167 0.006888 0.188789
v 0.014031 0.008199 0.139055
v 0.013372 0.008199 0.188951
v 0.032587 0.007999 0.139300
v 0.031929 0.007999 0.189195
v 0.052881 0.008330 0.139567
v 0.052222 0.008330 0.189463
v 0.063797 0.007528 0.189616
v 0.065013 0.007528 0.189632
v 0.074914 0.003288 0.189763
v 0.051142 0.008130 0.139544
v 0.050484 0.008130 0.189440
v 0.022044 0.007735 0.189065
v 0.023260 0.007735 0.189081
v 0.008126 0.007672 0.188881
v 0.009343 0.007672 0.188897
v 0.015770 0.008265 0.139078
v 0.015112 0.008265 0.188973
v 0.075481 0.004699 0.189770
v 0.034325 0.008397 0.139323
v 0.033667 0.008397 0.189218
v -0.080292 0.000256 0.137810
v -0.080951 0.000256 0.187706
v -0.072817 0.007985 0.137909
v -0.073476 0.007985 0.187804
v -0.074740 0.006064 0.187788
v -0.073523 0.006064 0.187804
v -0.074081 0.006064 0.137892
v -0.075337 0.005642 0.137875
v -0.075995 0.005642 0.187771
v -0.078232 0.002544 0.137837
v -0.078891 0.002544 0.187733
v -0.073277 0.007930 0.137903
v -0.073935 0.007930 0.187798
v -0.080275 0.001341 0.187715
v -0.079058 0.001341 0.187731
v -0.079617 0.001341 0.137819
v -0.075323 0.006333 0.187780
v -0.074106 0.006333 0.187796
v -0.074665 0.006333 0.137884
v -0.075604 0.004322 0.137872
v -0.076263 0.004322 0.187768
v -0.077129 0.003338 0.137852
v -0.077788 0.003338 0.187748
v -0.078161 0.001998 0.137838
v -0.078820 0.001998 0.187734
v -0.079767 0.001224 0.187721
v -0.078550 0.001224 0.187737
v -0.074757 0.004979 0.137883
v -0.075416 0.004979 0.187779
v -0.079184 0.000954 0.187729
v -0.077967 0.000954 0.187745
v -0.071416 -0.002213 0.187832
v -0.026831 0.008407 0.138516
v -0.027489 0.008407 0.188411
v -0.005536 0.007507 0.188701
v -0.004319 0.007507 0.188717
v -0.037012 0.006915 0.188286
v -0.035795 0.006915 0.188302
v -0.039300 0.008472 0.138351
v -0.039958 0.008472 0.188247
v -0.007831 0.008278 0.138766
v -0.008489 0.008278 0.188662
v -0.051259 0.007691 0.188098
v -0.050042 0.007691 0.188114
v -0.072555 0.008012 0.137912
v -0.073213 0.008012 0.187808
v -0.067894 0.006770 0.187878
v -0.066678 0.006770 0.187894
v -0.034038 0.007888 0.188325
v -0.032821 0.007888 0.188341
v -0.024538 0.007631 0.188450
v -0.023322 0.007631 0.188466
v -0.070260 0.007818 0.187847
v -0.069043 0.007818 0.187863
v -0.017332 0.008149 0.138641
v -0.017990 0.008149 0.188537
v -0.064318 0.008341 0.187925
v -0.063101 0.008341 0.187941
v -0.044051 0.008212 0.138288
v -0.044710 0.008212 0.188184
v -0.041760 0.007433 0.188223
v -0.040543 0.007433 0.188239
v -0.046512 0.007172 0.188160
v -0.045295 0.007172 0.188176
v -0.015037 0.007762 0.188576
v -0.013820 0.007762 0.188592
v -0.054819 0.008081 0.188051
v -0.053603 0.008081 0.188067
v -0.026831 0.008407 0.138516
v -0.027489 0.008407 0.188411
v -0.005536 0.007507 0.188701
v -0.004319 0.007507 0.188717
v -0.037012 0.006915 0.188286
v -0.035795 0.006915 0.188302
v -0.039300 0.008472 0.138351
v -0.039958 0.008472 0.188247
v -0.007831 0.008278 0.138766
v -0.008489 0.008278 0.188662
v -0.051259 0.007691 0.188098
v -0.050042 0.007691 0.188114
v -0.072555 0.008012 0.137912
v -0.073213 0.008012 0.187808
v -0.067894 0.006770 0.187878
v -0.066678 0.006770 0.187894
v -0.034038 0.007888 0.188325
v -0.032821 0.007888 0.188341
v -0.024538 0.007631 0.188450
v -0.023322 0.007631 0.188466
v -0.078162 -0.000073 0.187743
v -0.076945 -0.000073 0.187759
v -0.081210 -0.002246 0.187702
v -0.079994 -0.002246 0.187718
v -0.080552 -0.002246 0.137807
v -0.080192 -0.002608 0.137811
v -0.080850 -0.002608 0.187707
v -0.077737 -0.001996 0.187748
v -0.076521 -0.001996 0.187764
v -0.080501 -0.000646 0.137807
v -0.081160 -0.000646 0.187703
v -0.079971 -0.002336 0.187719
v -0.078754 -0.002336 0.187735
v -0.080688 -0.002382 0.137805
v -0.081346 -0.002382 0.187701
v -0.078852 -0.001725 0.187733
v -0.077636 -0.001725 0.187750
v -0.079100 -0.001545 0.187730
v -0.077883 -0.001545 0.187746
v -0.080564 -0.001661 0.137806
v -0.081222 -0.001661 0.187702
vn -0.8213 0.5372 0.1922
vn -0.4014 0.9150 0.0403
vn -0.8937 -0.3977 -0.2076
vn 0.3489 0.9135 0.2091
vn 0.4219 0.9003 0.1070
vn -0.4262 0.9014 0.0766
vn 0.4300 0.8956 0.1144
vn -0.9878 -0.0002 0.1558
vn -0.9844 -0.0000 0.1759
vn -0.8545 -0.5191 -0.0184
vn -0.8737 -0.4858 0.0264
vn -0.4880 0.8728 -0.0075
vn -0.9881 0.0002 0.1536
vn -0.9848 -0.0000 0.1740
vn -0.4312 0.8974 0.0932
vn -0.4707 0.8819 -0.0275
vn -0.4728 0.8802 0.0408
vn 0.1133 0.3739 -0.9205
vn -0.9866 -0.1552 0.0500
vn -0.6473 -0.6846 -0.3353
vn -0.4039 0.9093 0.1003
vn -0.9965 -0.0000 0.0835
vn -0.4215 0.9013 0.1000
vn 0.4115 0.9114 -0.0006
vn -0.4974 0.5919 -0.6343
vn 0.4071 0.9132 0.0172
vn 0.3982 0.9098 0.1167
vn -0.0381 0.9925 0.1164
vn 0.4164 0.9015 0.1180
vn -0.9132 0.0712 -0.4011
vn -0.5243 -0.6111 -0.5930
vn -0.1217 0.4281 -0.8955
vn 0.2354 0.9358 0.2624
vn 0.7785 0.6080 0.1557
vn 0.7772 0.6131 0.1418
vn 0.0749 0.9972 -0.0022
vn -0.4906 0.8714 -0.0060
vn 0.4254 0.8993 0.1019
vn -0.4274 0.9000 0.0851
vn 0.7787 0.6081 0.1543
vn 0.7773 0.6134 0.1399
vn 0.7757 0.6086 0.1673
vn 0.6542 0.6610 -0.3675
vn 0.0362 0.9932 0.1103
vn 0.7828 0.6135 0.1046
vn 0.7820 0.6165 0.0919
vn 0.7718 0.6308 0.0803
vn 0.6218 0.6641 0.4150
vn 0.0986 0.4171 0.9035
vn -0.4527 -0.8897 -0.0589
vn -0.4291 -0.8986 0.0919
vn 0.4239 -0.9005 0.0971
vn 0.4275 -0.8979 0.1048
vn 0.3461 -0.9148 -0.2081
vn -0.4261 -0.9015 0.0760
vn 0.4115 -0.9114 0.0046
vn 0.4071 -0.9132 0.0172
vn -0.4187 -0.9027 0.0991
vn -0.4366 -0.8942 0.0992
vn 0.4241 -0.9024 0.0766
vn -0.1076 -0.3831 -0.9174
vn 0.4314 -0.9020 -0.0159
vn 0.4276 -0.9038 0.0177
vn -0.9240 -0.0842 -0.3729
vn 0.4112 -0.9115 -0.0011
vn 0.4075 -0.9131 0.0168
vn 0.2622 -0.9311 0.2536
vn 0.3635 -0.9159 0.1701
vn 0.7742 -0.6328 0.0137
vn 0.7770 -0.6136 0.1405
vn 0.7785 -0.6080 0.1557
vn 0.2624 -0.9254 -0.2736
vn 0.7871 -0.6161 0.0292
vn 0.4220 -0.9004 0.1061
vn 0.4301 -0.8956 0.1135
vn 0.7773 -0.6132 0.1404
vn 0.7787 -0.6081 0.1543
vn 0.7820 -0.6165 0.0914
vn 0.7828 -0.6135 0.1042
vn 0.4242 -0.9024 0.0760
vn 0.7696 -0.6344 0.0729
vn 0.7820 -0.6165 0.0919
vn 0.7828 -0.6135 0.1047
vn 0.7824 -0.6171 0.0836
vn 0.7835 -0.6139 0.0963
vn -0.0132 -0.0000 0.9999
vn -0.7825 0.6219 -0.0301
vn -0.9960 0.0248 -0.0855
vn -0.9998 -0.0194 -0.0104
vn -0.7860 0.0004 0.6183
vn -0.8101 0.4497 0.3761
vn -0.8333 -0.3066 0.4600
vn -0.7575 0.6484 0.0757
vn -0.9599 -0.0004 0.2802
vn -0.8273 0.4251 0.3672
vn -0.7273 0.6741 0.1293
vn -0.9522 0.0615 0.2992
vn -0.7283 0.6033 0.3249
vn -0.6663 0.5820 0.4662
vn -0.7576 0.6527 -0.0004
vn -0.9977 0.0144 0.0663
vn -0.0000 1.0000 -0.0000
vn 0.3491 0.3939 -0.8503
vn 0.9961 -0.0069 -0.0882
vn 0.8932 0.3581 -0.2721
vn 0.6447 0.4953 0.5822
vn 0.4246 -0.0339 0.9047
vn 0.0987 0.3559 0.9293
vn 0.9522 0.0004 0.3054
vn 0.7195 0.6033 0.3440
vn 0.7644 0.6361 0.1054
vn 0.7694 -0.0004 0.6388
vn 0.9979 -0.0248 -0.0592
vn 0.7602 0.6494 -0.0204
vn 0.9995 0.0157 0.0265
vn 0.7985 0.6018 -0.0161
vn 0.5830 0.7737 0.2479
vn 0.6541 0.5822 0.4829
vn 0.8209 0.3066 0.4818
vn 0.6920 0.7216 0.0214
vn 0.7526 0.6341 0.1775
vn -0.4709 0.3819 -0.7952
vn 0.2812 0.0022 -0.9597
vn -0.6730 0.4611 0.5783
vn -0.3959 0.0338 0.9177
vn -0.9734 -0.0106 0.2290
vn -0.0782 -0.5118 0.8555
vn -0.0316 0.4642 0.8852
vn -0.7283 -0.6033 0.3249
vn -0.7669 -0.6361 0.0852
vn -0.7683 -0.6195 0.1609
vn -0.8329 -0.4415 0.3338
vn -0.7616 -0.6471 -0.0359
vn -0.7978 -0.6018 -0.0371
vn -0.5894 -0.7737 0.2324
vn -0.6666 -0.5823 0.4654
vn -0.6923 -0.7216 0.0031
vn -0.0000 -1.0000 -0.0000
vn 0.6447 -0.4953 0.5822
vn 0.3505 -0.3945 -0.8494
vn 0.0496 -0.5105 0.8584
vn 0.9422 -0.0349 0.3332
vn 0.0122 0.4655 0.8849
vn 0.7800 -0.6257 -0.0107
vn 0.7999 -0.4497 0.3973
vn 0.7552 -0.6484 0.0957
vn 0.8186 -0.4262 0.3849
vn 0.7431 -0.6516 0.1520
vn 0.7195 -0.6033 0.3440
vn 0.6537 -0.5820 0.4836
vn 0.7574 -0.6527 0.0196
vn 0.9956 -0.0144 0.0927
vn -0.4680 -0.3785 -0.7986
vn -0.7394 -0.0028 -0.6733
vn -0.9089 -0.3648 -0.2021
vn -0.6730 -0.4611 0.5783
vn -0.1232 -0.3559 0.9264
vn -0.4322 0.8993 0.0670
vn -0.9966 -0.0000 0.0823
vn -0.5555 0.8299 0.0515
vn -0.9957 0.0092 0.0923
vn -0.9957 0.0011 0.0923
vn 0.7742 0.6328 0.0137
vn 0.0750 0.9972 -0.0026
vn 0.4273 0.8991 0.0947
vn 0.5355 0.8438 0.0364
vn 0.7726 0.6302 0.0772
vn 0.7744 0.6302 -0.0562
vn -0.4305 -0.8987 0.0841
vn -0.4324 -0.8992 0.0665
vn -0.5826 -0.8110 0.0540
vn 0.7697 -0.6343 0.0726
vn 0.5366 -0.8431 0.0351
vn -0.7679 0.6396 -0.0349
vn 0.8215 0.4424 0.3596
vn 0.7576 0.6527 -0.0049
vn -0.9087 0.3573 -0.2158
vn -0.1232 0.3559 0.9264
vn -0.7572 -0.6527 -0.0249
vn 0.8914 -0.3440 -0.2951
vn 0.0987 -0.3559 0.9293
vn 0.7686 -0.6396 -0.0146
vt 0.640558 0.573558
vt 0.563870 0.552133
vt 0.563888 0.592518
vt 0.565690 0.215644
vt 0.552732 0.215542
vt 0.563869 0.552053
vt 0.565688 0.215731
vt 0.550722 0.587403
vt 0.563892 0.587493
vt 0.481856 0.599397
vt 0.550713 0.597448
vt 0.550834 0.552011
vt 0.468581 0.587720
vt 0.481875 0.587493
vt 0.481816 0.551756
vt 0.460467 0.551676
vt 0.468643 0.551665
vt 0.470436 0.215242
vt 0.460351 0.591788
vt 0.468556 0.597546
vt 0.450087 0.551628
vt 0.460335 0.587493
vt 0.443691 0.215119
vt 0.449751 0.577405
vt 0.451820 0.215199
vt 0.433530 0.215085
vt 0.437539 0.551532
vt 0.443691 0.215119
vt 0.422237 0.587725
vt 0.431184 0.597617
vt 0.431659 0.551409
vt 0.642948 0.181364
vt 0.566206 0.180442
vt 0.552810 0.180299
vt 0.552787 0.179828
vt 0.481817 0.551842
vt 0.483609 0.215272
vt 0.468733 0.551752
vt 0.484025 0.179980
vt 0.470579 0.179545
vt 0.470555 0.179418
vt 0.462476 0.179307
vt 0.458003 0.215132
vt 0.451595 0.179296
vt 0.443506 0.179357
vt 0.443500 0.180061
vt 0.432805 0.179080
vt 0.424556 0.215096
vt 0.640656 0.623094
vt 0.563869 0.622932
vt 0.552743 0.959446
vt 0.565688 0.959255
vt 0.552653 0.959359
vt 0.481816 0.623230
vt 0.462262 0.959833
vt 0.470436 0.959744
vt 0.450087 0.623358
vt 0.460467 0.623309
vt 0.462262 0.959833
vt 0.450022 0.623445
vt 0.443691 0.959867
vt 0.451820 0.959787
vt 0.441577 0.587261
vt 0.424556 0.959890
vt 0.433462 0.959812
vt 0.642948 0.993621
vt 0.565690 0.959342
vt 0.566213 0.994805
vt 0.552810 0.994687
vt 0.566206 0.994544
vt 0.484029 0.995294
vt 0.552786 0.994814
vt 0.470515 0.959830
vt 0.483609 0.959714
vt 0.470579 0.995440
vt 0.484025 0.995006
vt 0.462475 0.995612
vt 0.470555 0.995567
vt 0.451909 0.959883
vt 0.462463 0.994984
vt 0.443506 0.995629
vt 0.451595 0.995690
vt 0.423894 0.995321
vt 0.432812 0.995559
vt 0.139087 0.976776
vt 0.117950 0.979928
vt 0.118362 0.996153
vt 0.104646 0.996010
vt 0.105398 0.979788
vt 0.084323 0.976264
vt 0.142183 0.649123
vt 0.136896 0.962226
vt 0.117959 0.637891
vt 0.139069 0.641214
vt 0.118506 0.621667
vt 0.084323 0.641373
vt 0.105414 0.637923
vt 0.104781 0.621702
vt 0.086718 0.961751
vt 0.004746 0.353038
vt 0.036072 0.600616
vt 0.039610 0.348691
vt 0.039448 0.853204
vt 0.008921 0.942802
vt 0.055301 0.948598
vt 0.005161 0.689198
vt 0.039252 0.733250
vt 0.009602 0.097325
vt 0.005116 0.240466
vt 0.036735 0.205736
vt 0.006115 0.755161
vt 0.007397 0.842106
vt 0.003906 0.991719
vt 0.039618 0.995787
vt 0.213829 0.503959
vt 0.270699 0.423147
vt 0.211408 0.422085
vt 0.298301 0.772739
vt 0.184858 0.663921
vt 0.170791 0.770307
vt 0.080302 0.203711
vt 0.411079 0.163768
vt 0.080302 0.157918
vt 0.290378 0.357388
vt 0.194081 0.355680
vt 0.182214 0.863939
vt 0.196387 0.854956
vt 0.191141 0.833752
vt 0.336144 0.280986
vt 0.151046 0.277711
vt 0.230137 0.997032
vt 0.232523 0.876760
vt 0.211533 0.870699
vt 0.197200 0.812765
vt 0.212941 0.797616
vt 0.234148 0.792365
vt 0.309699 0.875839
vt 0.339483 0.834634
vt 0.309701 0.839455
vt 0.309860 0.803870
vt 0.339465 0.780650
vt 0.313864 0.773563
vt 0.960748 0.733250
vt 0.993885 0.755161
vt 0.994839 0.689198
vt 0.960610 0.853204
vt 0.957940 0.600607
vt 0.995254 0.353037
vt 0.961791 0.348580
vt 0.995210 0.609474
vt 0.991078 0.942803
vt 0.992603 0.842106
vt 0.976195 0.948642
vt 0.996094 0.991719
vt 0.265315 0.504903
vt 0.409460 0.209533
vt 0.288288 0.665879
vt 0.253731 0.871515
vt 0.994884 0.240466
vt 0.270289 0.814164
vt 0.283291 0.865894
vt 0.269476 0.856368
vt 0.255139 0.798422
vt 0.309679 0.902221
vt 0.339484 0.878970
vt 0.309860 0.965786
vt 0.339465 0.989006
vt 0.339485 0.945961
vt 0.046965 0.083830
vt 0.030052 0.083667
vt 0.072449 0.755068
vt 0.073219 0.689102
vt 0.072016 0.240371
vt 0.067121 0.097244
vt 0.072694 0.352942
vt 0.073367 0.609378
vt 0.070167 0.942717
vt 0.071410 0.842017
vt 0.075320 0.991619
vt 0.917705 0.108355
vt 0.917705 0.062562
vt 0.846961 0.182355
vt 0.803926 0.260326
vt 0.727301 0.327785
vt 0.765401 0.781405
vt 0.768078 0.901671
vt 0.786379 0.775309
vt 0.800668 0.717395
vt 0.815683 0.768502
vt 0.827075 0.674953
vt 0.801500 0.759545
vt 0.784924 0.702256
vt 0.813031 0.568584
vt 0.763718 0.697011
vt 0.369101 0.803870
vt 0.369261 0.875839
vt 0.953035 0.083830
vt 0.960798 0.206963
vt 0.969948 0.083667
vt 0.927306 0.352942
vt 0.929832 0.942717
vt 0.926781 0.689102
vt 0.932881 0.097246
vt 0.927991 0.240372
vt 0.927551 0.755068
vt 0.928590 0.842017
vt 0.924680 0.991619
vt 0.960380 0.995787
vt 0.709601 0.570507
vt 0.699565 0.677384
vt 0.588548 0.114175
vt 0.586929 0.068410
vt 0.714610 0.770621
vt 0.728414 0.761069
vt 0.722337 0.740056
vt 0.707628 0.262029
vt 0.661863 0.185628
vt 0.732657 0.409535
vt 0.744183 0.776195
vt 0.727579 0.718825
vt 0.742727 0.703073
vt 0.369281 0.902220
vt 0.339481 0.911601
vt 0.369260 0.930200
vt 0.369101 0.965785
vt 0.365097 0.996093
vt 0.550942 0.552105
vt 0.449702 0.587560
vt 0.431057 0.587567
vt 0.441494 0.587492
vt 0.566213 0.180181
vt 0.484029 0.179691
vt 0.470523 0.215154
vt 0.462463 0.180002
vt 0.451626 0.179531
vt 0.432848 0.179638
vt 0.423894 0.179665
vt 0.550920 0.622887
vt 0.468753 0.623228
vt 0.438189 0.623453
vt 0.451626 0.995455
vt 0.439735 0.959883
vt 0.432848 0.995348
vt 0.443500 0.994925
vt 0.136758 0.655743
vt 0.086718 0.655890
vt 0.004790 0.609474
vt 0.990398 0.097325
vt 0.275536 0.835374
vt 0.309701 0.930201
vt 0.313864 0.996093
vt 0.784144 0.408615
vt 0.786592 0.326734
vt 0.806732 0.738361
vt 0.369260 0.839455
vt 0.365097 0.773563
vt 0.926633 0.609378
s 1
f 1/1/1 2/2/2 56/3/3
f 1/1/1 3/4/4 2/2/2
f 4/5/5 5/6/6 6/7/7
f 7/8/8 8/9/9 5/6/6
f 64/10/10 12/11/11 11/12/12
f 14/13/13 13/14/14 16/15/15
f 17/16/16 18/17/17 43/18/18
f 69/19/19 68/20/20 18/17/17
f 19/21/21 20/22/22 21/16/23
f 24/23/24 23/24/25 49/25/26
f 27/26/27 26/27/28 28/28/29
f 31/29/30 32/30/31 30/31/32
f 34/32/33 3/4/4 1/1/1
f 35/33/34 36/34/35 6/7/7
f 37/35/36 10/36/37 11/12/12
f 41/37/38 15/38/39 16/15/15
f 39/39/40 40/40/41 41/37/38
f 45/41/42 44/42/43 43/18/18
f 47/43/44 19/21/21 21/16/23
f 50/44/45 51/45/46 49/25/26
f 52/46/47 27/26/27 28/28/29
f 54/47/48 29/48/49 30/31/32
f 1/1/1 56/3/3 57/49/50
f 59/50/51 60/51/52 61/52/53
f 8/9/9 7/8/8 59/50/51
f 12/11/11 64/10/10 63/53/54
f 13/14/14 14/13/13 65/54/55
f 68/20/20 70/55/56 90/56/57
f 20/22/22 71/57/58 72/58/59
f 72/58/59 71/57/58 73/59/60
f 74/60/61 76/61/62 96/62/63
f 23/24/25 75/63/64 74/60/61
f 32/30/31 79/64/65 80/65/66
f 81/66/67 58/67/68 82/68/69
f 84/69/70 83/70/71 61/52/53
f 85/71/72 86/72/73 63/53/54
f 66/73/74 89/74/75 65/54/55
f 88/75/76 87/76/77 89/74/75
f 91/77/78 92/78/79 90/56/57
f 93/79/80 94/80/81 73/59/60
f 97/81/82 98/82/83 96/62/63
f 102/83/84 103/84/85 80/65/66
f 107/85/86 108/86/86 109/87/86
f 108/86/86 105/88/86 109/87/86
f 104/89/86 114/90/86 105/88/86
f 106/91/86 117/92/86 107/85/86
f 112/93/86 118/94/86 113/95/86
f 110/96/86 116/97/86 115/98/86
f 119/99/86 110/96/86 114/90/86
f 115/98/86 112/93/86 113/95/86
f 129/100/87 122/101/88 121/102/89
f 124/103/90 130/104/91 125/105/92
f 122/101/88 131/106/93 120/107/94
f 132/108/95 133/109/96 123/110/97
f 128/111/98 134/112/99 124/103/90
f 123/110/97 129/100/87 121/102/89
f 130/104/91 136/113/100 127/114/101
f 137/115/102 138/116/102 139/117/102
f 140/118/102 141/119/102 142/120/102
f 143/121/102 144/122/102 145/123/102
f 139/117/102 147/124/102 148/125/102
f 149/126/102 150/127/102 151/128/102
f 148/125/102 152/129/102 153/130/102
f 146/131/102 154/132/102 155/133/102
f 149/126/102 156/134/102 142/120/102
f 157/135/102 142/120/102 156/134/102
f 149/126/102 155/133/102 150/127/102
f 140/118/102 157/135/102 158/136/102
f 159/137/103 163/138/104 160/139/105
f 160/139/105 163/138/104 161/140/106
f 161/140/106 162/141/107 164/142/108
f 166/143/109 173/144/110 174/145/111
f 166/143/109 170/146/112 173/144/110
f 167/147/113 175/148/114 168/149/115
f 167/147/113 174/145/111 177/150/116
f 170/146/112 180/151/117 179/152/118
f 171/153/119 181/154/120 180/151/117
f 182/155/102 138/116/102 137/115/102
f 184/156/102 144/122/102 143/121/102
f 182/155/102 141/119/102 183/157/102
f 154/132/102 146/131/102 187/158/102
f 168/149/115 175/148/114 178/159/121
f 188/160/102 185/161/102 140/118/102
f 187/158/102 185/161/102 186/162/102
f 189/163/102 140/118/102 158/136/102
f 159/137/103 190/164/122 165/165/123
f 193/166/124 194/167/125 195/168/126
f 123/110/97 196/169/127 126/170/128
f 120/107/94 197/171/129 198/172/130
f 123/110/97 200/173/131 201/174/132
f 120/107/94 124/103/90 197/171/129
f 122/101/88 199/175/133 121/102/89
f 122/101/88 198/172/130 202/176/134
f 124/103/90 204/177/135 203/178/136
f 125/105/92 205/179/137 204/177/135
f 210/180/138 211/181/138 212/182/138
f 216/183/138 212/182/138 207/184/138
f 217/185/138 218/186/138 219/187/138
f 123/110/97 121/102/89 200/173/131
f 220/188/138 214/189/138 209/190/138
f 219/187/138 214/189/138 215/191/138
f 221/192/138 208/193/138 222/194/138
f 225/195/139 162/141/107 163/138/104
f 223/196/140 163/138/104 165/165/123
f 226/197/141 169/198/142 172/199/143
f 229/200/144 167/147/113 168/149/115
f 170/146/112 230/201/145 171/153/119
f 167/147/113 231/202/146 166/143/109
f 232/203/147 233/204/148 169/198/142
f 228/205/149 234/206/150 170/146/112
f 230/201/145 236/207/151 227/208/152
f 208/193/138 238/209/138 239/210/138
f 240/211/138 211/181/138 241/212/138
f 243/213/138 244/214/138 245/215/138
f 242/216/138 212/182/138 246/217/138
f 208/193/138 237/218/138 238/209/138
f 218/186/138 217/185/138 247/219/138
f 246/217/138 212/182/138 240/211/138
f 169/198/142 229/200/144 168/149/115
f 243/213/138 248/220/138 239/210/138
f 249/221/138 239/210/138 248/220/138
f 243/213/138 247/219/138 244/214/138
f 208/193/138 249/221/138 222/194/138
f 250/222/153 192/223/154 251/224/155
f 251/224/155 195/168/126 252/225/156
f 252/225/156 194/167/125 253/226/157
f 4/5/5 9/227/158 5/6/6
f 9/227/158 7/8/8 5/6/6
f 10/36/37 64/10/10 11/12/12
f 15/38/39 14/13/13 16/15/15
f 17/16/16 69/19/19 18/17/17
f 19/21/21 22/228/159 20/22/22
f 24/23/24 75/63/64 23/24/25
f 26/27/160 77/229/161 25/230/162
f 29/48/49 31/29/30 30/31/32
f 34/32/33 33/231/163 3/4/4
f 6/7/7 36/34/35 4/5/5
f 37/35/36 38/232/164 10/36/37
f 41/37/38 42/233/165 15/38/39
f 41/37/38 40/40/41 42/233/165
f 43/18/18 44/42/43 17/16/16
f 46/234/166 48/235/166 47/43/166
f 49/25/26 51/45/46 24/23/24
f 52/46/47 53/236/167 27/26/27
f 54/47/48 55/237/168 29/48/49
f 57/49/50 56/3/3 58/67/68
f 59/50/51 62/238/169 60/51/52
f 59/50/51 7/8/8 62/238/169
f 65/54/55 67/239/170 66/73/74
f 65/54/55 14/13/13 67/239/170
f 68/20/20 69/19/19 70/55/56
f 20/22/22 22/228/159 71/57/58
f 74/60/61 75/63/64 76/61/62
f 25/230/162 77/229/161 78/240/171
f 32/30/31 31/29/30 79/64/65
f 81/66/67 57/49/50 58/67/68
f 60/51/52 84/69/70 61/52/53
f 64/10/10 85/71/72 63/53/54
f 66/73/74 88/75/76 89/74/75
f 70/55/56 91/77/78 90/56/57
f 93/79/80 95/241/172 94/80/81
f 71/57/58 93/79/80 73/59/60
f 76/61/62 97/81/82 96/62/63
f 100/242/173 101/243/173 99/244/173
f 79/64/65 102/83/84 80/65/66
f 107/85/86 117/92/86 108/86/86
f 104/89/86 119/99/86 114/90/86
f 105/88/86 108/86/86 104/89/86
f 112/93/86 254/245/86 118/94/86
f 110/96/86 111/246/86 116/97/86
f 119/99/86 111/246/86 110/96/86
f 115/98/86 116/97/86 112/93/86
f 125/105/92 130/104/91 127/114/101
f 126/170/128 132/108/95 123/110/97
f 120/107/94 131/106/93 128/111/98
f 120/107/94 128/111/98 124/103/90
f 129/100/87 135/247/174 122/101/88
f 122/101/88 135/247/174 131/106/93
f 124/103/90 134/112/99 130/104/91
f 139/117/102 138/116/102 147/124/102
f 148/125/102 147/124/102 152/129/102
f 153/130/102 152/129/102 143/121/102
f 123/110/97 133/109/96 129/100/87
f 149/126/102 151/128/102 156/134/102
f 149/126/102 146/131/102 155/133/102
f 140/118/102 142/120/102 157/135/102
f 161/140/106 163/138/104 162/141/107
f 159/137/103 165/165/123 163/138/104
f 169/198/142 176/248/175 172/199/143
f 167/147/113 177/150/116 175/148/114
f 167/147/113 166/143/109 174/145/111
f 176/248/175 169/198/142 178/159/121
f 173/144/110 170/146/112 179/152/118
f 170/146/112 171/153/119 180/151/117
f 171/153/119 227/208/152 255/154/176
f 183/157/102 141/119/102 140/118/102
f 185/161/102 256/249/102 186/162/102
f 182/155/102 137/115/102 141/119/102
f 152/129/102 184/156/102 143/121/102
f 169/198/142 168/149/115 178/159/121
f 188/160/102 256/249/102 185/161/102
f 189/163/102 188/160/102 140/118/102
f 187/158/102 146/131/102 185/161/102
f 190/164/122 191/250/177 192/223/154
f 191/250/177 193/166/124 195/168/126
f 193/166/124 257/251/178 194/167/125
f 191/250/177 195/168/126 192/223/154
f 190/164/122 192/223/154 165/165/123
f 123/110/97 201/174/132 196/169/127
f 122/101/88 202/176/134 199/175/133
f 122/101/88 120/107/94 198/172/130
f 197/171/129 124/103/90 203/178/136
f 124/103/90 125/105/92 204/177/135
f 125/105/92 127/114/101 258/179/179
f 206/252/138 213/253/138 207/184/138
f 213/253/138 216/183/138 207/184/138
f 214/189/138 259/254/138 215/191/138
f 200/173/131 121/102/89 199/175/133
f 220/188/138 259/254/138 214/189/138
f 221/192/138 220/188/138 209/190/138
f 219/187/138 218/186/138 214/189/138
f 221/192/138 209/190/138 208/193/138
f 223/196/140 224/255/180 163/138/104
f 224/255/180 225/195/139 163/138/104
f 225/195/139 260/256/181 162/141/107
f 171/153/119 230/201/145 227/208/152
f 226/197/141 232/203/147 169/198/142
f 166/143/109 231/202/146 228/205/149
f 166/143/109 228/205/149 170/146/112
f 229/200/144 235/257/182 167/147/113
f 167/147/113 235/257/182 231/202/146
f 170/146/112 234/206/150 230/201/145
f 237/218/138 206/252/138 207/184/138
f 240/211/138 212/182/138 211/181/138
f 242/216/138 207/184/138 212/182/138
f 208/193/138 206/252/138 237/218/138
f 169/198/142 233/204/148 229/200/144
f 243/213/138 245/215/138 248/220/138
f 243/213/138 218/186/138 247/219/138
f 208/193/138 239/210/138 249/221/138
f 223/196/140 165/165/123 250/222/153
f 252/225/156 195/168/126 194/167/125
f 192/223/154 195/168/126 251/224/155
f 165/165/123 192/223/154 250/222/153
l 283 284
l 285 286
l 291 292
l 307 308
l 337 338
l 346 347
l 398 399
l 475 476
l 478 479
l 494 495
l 509 510
l 525 526
l 533 534
l 543 544
l 553 554
l 555 556
l 559 560
l 475 477
l 269 270
l 349 350
l 362 363
l 364 365
l 372 373
l 374 375
l 404 405
l 433 434
l 441 442
l 480 481
l 503 504
l 505 506
l 513 514
l 557 558
l 561 562
l 574 575
l 269 271
l 561 563
l 272 273
l 275 276
l 287 288
l 289 290
l 293 294
l 313 314
l 319 320
l 351 352
l 366 367
l 376 377
l 388 389
l 394 395
l 406 407
l 424 425
l 435 436
l 437 438
l 453 454
l 455 456
l 462 463
l 482 483
l 496 497
l 498 499
l 511 512
l 515 516
l 564 565
l 576 577
l 272 274
l 277 278
l 297 298
l 309 310
l 339 340
l 360 361
l 384 385
l 390 391
l 396 397
l 408 409
l 443 444
l 447 448
l 447 449
l 451 452
l 457 458
l 464 465
l 466 467
l 531 532
l 578 579
l 261 262
l 295 296
l 299 300
l 303 304
l 315 316
l 317 318
l 325 326
l 327 328
l 333 334
l 343 344
l 368 369
l 381 382
l 419 420
l 421 422
l 439 440
l 500 501
l 507 508
l 517 518
l 519 520
l 527 528
l 545 546
l 566 567
l 568 569
l 263 264
l 279 280
l 323 324
l 353 354
l 386 387
l 400 401
l 413 414
l 416 417
l 469 470
l 471 472
l 484 485
l 521 522
l 535 536
l 539 540
l 541 542
l 549 550
l 484 486
l 265 266
l 281 282
l 305 306
l 321 322
l 329 330
l 331 332
l 335 336
l 355 356
l 370 371
l 378 379
l 402 403
l 426 427
l 445 446
l 460 461
l 473 474
l 487 488
l 490 491
l 547 548
l 551 552
l 487 489
l 78 100
l 267 268
l 301 302
l 311 312
l 357 358
l 392 393
l 411 412
l 428 429
l 430 431
l 492 493
l 523 524
l 529 530
l 537 538
l 570 571
l 572 573
