# Blender 5.2.0 LTS
# www.blender.org
mtllib bucket-edited.mtl
o bucket
v 0.157437 0.026969 0.122502
v 0.151845 0.024669 0.123474
v 0.152545 0.082127 0.214432
v 0.156377 0.087859 0.210788
v 0.159450 0.086399 0.212967
v 0.154408 0.051772 0.171264
v 0.159024 0.022187 0.125860
v 0.152063 0.086515 0.213577
v 0.153906 0.022041 0.127213
v 0.159129 0.056706 0.167659
v 0.158791 0.052393 0.170622
v 0.153492 0.057086 0.166667
v 0.151629 0.055169 0.169819
v 0.159485 0.025004 0.123773
v 0.155409 0.028744 0.124339
v 0.158179 0.082830 0.215550
v -0.001048 0.055836 -0.027165
v 0.146224 0.022732 0.114695
v 0.001392 0.236301 0.237605
v -0.003035 0.233231 0.234294
v 0.041147 0.216008 0.254019
v 0.154407 0.020073 0.121532
v 0.144892 0.102916 0.220563
v 0.001054 0.058752 -0.020803
v -0.002569 0.059324 -0.019893
v -0.000799 0.062204 -0.021858
v 0.051492 0.029186 -0.004252
v 0.157377 0.019760 0.119228
v 0.038868 0.031470 -0.008302
v 0.026871 0.040956 -0.017947
v 0.039575 0.034481 -0.008306
v 0.153776 0.088038 0.215476
v 0.043969 0.210233 0.257513
v 0.040548 0.212596 0.253503
v 0.086219 0.171511 0.250009
v 0.157840 0.088476 0.219739
v -0.000542 0.237976 0.241127
v 0.001478 0.232920 0.234610
v 0.155603 0.090604 0.217425
v 0.153680 0.023319 0.120055
v 0.095647 0.021982 0.040489
v 0.149918 0.021254 0.114498
v 0.103440 0.153542 0.245565
v 0.133693 0.111126 0.227462
v 0.001614 0.057411 -0.026465
v -0.000718 0.054708 -0.024290
v 0.083044 0.020431 0.030172
v 0.075884 0.023785 0.021979
v 0.076537 0.020756 0.019568
v -0.000567 0.234488 0.240991
v 0.074408 0.187787 0.254716
v 0.076261 0.180201 0.254665
v 0.154528 0.086359 0.218623
v 0.155346 0.023797 0.119015
v 0.028172 0.278418 0.204145
v 0.065392 -0.012052 0.360737
v -0.013604 -0.003826 0.372933
v -0.065318 -0.013282 0.358913
v 0.013561 -0.156176 0.147065
v 0.144542 0.204315 0.093525
v 0.141566 0.172491 0.046344
v 0.117037 0.143727 0.003699
v 0.074691 0.122401 -0.027918
v 0.028533 0.112736 -0.042246
v -0.020721 0.111740 -0.043724
v -0.074472 0.122328 -0.028026
v -0.116885 0.143613 0.003530
v -0.141566 0.212683 0.105931
v -0.117037 0.241447 0.148576
v -0.081008 0.260254 0.176457
v 0.035937 0.271750 0.193501
v 0.087376 0.258034 0.173166
v 0.125513 0.234354 0.138059
v 0.132315 -0.068511 0.268684
v 0.120843 -0.108036 0.210088
v 0.078706 -0.135765 0.168976
v 0.031904 -0.148069 0.150736
v -0.019756 -0.149419 0.148732
v -0.068408 -0.139613 0.163271
v -0.130405 -0.090702 0.235788
v -0.127457 -0.054854 0.288932
v -0.089810 -0.020794 0.339430
v -0.031904 -0.004191 0.364043
v 0.019756 -0.002840 0.366046
v 0.068408 -0.012645 0.351507
v 0.110506 -0.034763 0.318721
v 0.133009 0.102243 0.053401
v 0.148591 0.179281 0.061125
v 0.147894 0.153068 0.075725
v 0.144891 0.211940 0.109512
v 0.144689 0.197002 0.119415
v 0.145706 0.185033 0.122991
v 0.149111 0.171715 0.109042
v 0.110734 0.250015 0.165939
v 0.130868 0.220334 0.148741
v 0.120446 0.215467 0.167926
v 0.127918 0.206545 0.160449
v 0.102526 0.216831 0.193604
v 0.084223 0.247069 0.188260
v 0.039384 0.236132 0.221846
v -0.084611 0.246954 0.187863
v -0.070440 0.250057 0.197500
v -0.078778 0.226069 0.206507
v -0.125136 0.224832 0.155054
v -0.121344 0.224984 0.160304
v -0.120300 0.204930 0.175123
v -0.148173 0.190868 0.104734
v -0.148062 0.176014 0.114414
v -0.150557 0.166343 0.118052
v -0.150956 0.187571 0.073221
v -0.144079 0.154269 0.050547
v -0.144699 0.144607 0.062423
v -0.147839 0.142305 0.082523
v -0.126137 0.144746 0.009787
v -0.118942 0.115073 0.018821
v -0.128597 0.112316 0.038309
v -0.064902 0.112440 -0.037991
v -0.084364 0.097000 -0.007812
v -0.080738 0.092855 -0.008256
v -0.066344 0.079008 -0.010639
v 0.090785 0.096408 -0.002435
v 0.106389 0.118639 -0.001876
v 0.130919 0.125465 0.034862
v 0.104879 0.100980 0.002664
v 0.017099 0.078392 -0.029305
v -0.015564 0.070925 -0.022364
v 0.014602 0.247669 0.220850
v -0.015801 0.239459 0.226529
v -0.026306 0.278876 0.204119
v -0.130892 0.146034 0.008243
v 0.120217 0.137627 -0.004461
v 0.153223 0.202049 0.094928
v -0.091937 0.261816 0.179658
v -0.128401 0.240134 0.147357
v -0.150176 0.212963 0.107495
v -0.153246 0.180040 0.060107
v -0.128780 0.223984 0.157150
v -0.150032 0.197615 0.117816
v -0.152258 0.161333 0.061073
v -0.152794 0.162555 0.067941
v -0.134403 0.134468 0.024522
v -0.096491 0.109750 -0.015238
v -0.027538 0.091847 -0.041654
v 0.111214 0.114944 -0.002014
v 0.122964 0.088951 0.033776
v 0.088249 0.072268 0.008900
v 0.154383 0.155959 0.081301
v 0.152411 0.138990 0.078886
v 0.154544 0.170232 0.106932
v 0.148133 0.178480 0.137197
v 0.133344 0.206553 0.160541
v 0.119076 0.209884 0.183464
v 0.070436 0.241350 0.206106
v 0.075257 0.229933 0.212913
v -0.076880 0.239498 0.206132
v -0.116581 0.221569 0.178494
v -0.154185 0.154328 0.082428
v -0.148536 0.129910 0.064302
v -0.129265 0.117981 0.023166
v -0.128580 0.114817 0.024115
v -0.082776 0.091538 -0.012720
v -0.030589 0.079269 -0.032358
v 0.135879 0.123855 0.034914
v -0.016603 0.068212 -0.026331
v 0.014148 0.252074 0.222161
v 0.018051 0.241434 0.229654
v -0.015576 0.241417 0.229499
v 0.136201 -0.084695 0.253042
v 0.125164 -0.109792 0.215832
v -0.111440 -0.035098 0.326570
v -0.135092 -0.069843 0.275058
v -0.108369 -0.126234 0.191455
v 0.100126 -0.131695 0.183360
v -0.143796 0.176519 0.052317
v -0.028733 0.273004 0.195346
v -0.106646 -0.120141 0.192138
v 0.065579 -0.146650 0.161188
v -0.058813 -0.149410 0.157096
v -0.131760 -0.099525 0.231054
v -0.029682 0.058476 -0.011976
v -0.093984 0.076074 0.013721
v -0.135270 0.106224 0.058018
v -0.149204 0.137995 0.104843
v -0.140423 0.170291 0.152551
v -0.105980 0.200988 0.198017
v 0.022602 0.224821 0.233787
v 0.061426 0.217751 0.223539
v 0.109272 0.198311 0.195071
v 0.139910 0.170441 0.154081
v 0.149249 0.138159 0.106479
v 0.150228 0.172160 0.050619
v 0.140752 0.149412 0.043739
v 0.141550 0.135924 0.056127
v 0.130156 0.111262 0.037805
v 0.112097 0.134769 -0.004849
v 0.117442 0.122838 0.009625
v 0.097195 0.101690 -0.000388
v 0.067586 0.115643 -0.033210
v 0.033614 0.094743 -0.037348
v 0.067315 0.100805 -0.023079
v -0.028081 0.106813 -0.046356
v -0.024701 0.094478 -0.037823
v -0.024372 0.091936 -0.036383
v -0.029261 0.082488 -0.029125
v -0.069243 0.103907 -0.023921
v -0.089960 0.107517 -0.013455
v -0.110519 0.121600 0.002222
v -0.135572 0.140257 0.034896
v -0.144244 0.140190 0.061485
v -0.149541 0.171137 0.080566
v -0.134583 0.227319 0.132127
v -0.142563 0.200790 0.124458
v -0.146813 0.184978 0.122111
v -0.131970 0.202516 0.153633
v -0.101742 0.252033 0.168764
v -0.111087 0.222194 0.177248
v -0.095838 0.227961 0.191351
v -0.065707 0.241123 0.205360
v 0.030940 0.261184 0.209089
v 0.024637 0.259250 0.211290
v 0.028173 0.249383 0.217829
v 0.031204 0.273951 0.201319
v 0.067289 0.250446 0.198346
v 0.083223 0.233391 0.199973
v 0.100157 0.252896 0.170169
v 0.115712 0.229283 0.167127
v 0.140423 0.183311 0.144243
v 0.149687 0.181012 0.090542
v 0.147665 0.159393 0.063776
v 0.149265 0.150144 0.095295
v -0.015523 0.077991 -0.029997
v -0.032870 0.246102 0.218373
v 0.026941 0.106341 -0.051679
v 0.141674 0.227408 0.128541
v 0.069058 0.267713 0.192171
v 0.142109 0.158083 0.027164
v -0.026759 0.104269 -0.050052
v -0.098704 0.126035 -0.021981
v -0.029942 0.089396 -0.040085
v -0.069826 0.253792 0.200960
v 0.140594 0.212599 0.139727
v 0.120022 0.123052 0.004742
v 0.069575 0.253847 0.201076
v -0.107138 0.238922 0.178412
v -0.098321 0.108687 -0.011675
v 0.154411 0.181241 0.093238
v 0.063653 0.097932 -0.030027
v 0.023896 0.090674 -0.041210
v 0.113643 0.235173 0.173718
v 0.145975 0.148288 0.044858
v 0.024512 0.263291 0.214558
v 0.028458 0.250869 0.222059
v -0.014282 0.249249 0.223156
v -0.147712 0.116173 0.072728
v -0.116279 0.098115 0.017463
v 0.112965 0.224676 0.181592
v -0.152086 0.158374 0.135006
v -0.024499 0.055054 -0.016928
v 0.069354 0.077464 -0.012314
v 0.107421 0.093694 0.011781
v -0.064014 0.063055 -0.005297
v -0.110207 0.081266 0.021374
v 0.154074 0.144190 0.115455
v -0.118795 0.197296 0.192611
v -0.138719 0.192995 0.157516
v 0.106397 0.203619 0.202960
v -0.090768 0.225923 0.206335
v 0.141413 0.175365 0.161413
v -0.145536 0.193816 0.137837
v 0.146713 0.115268 0.072730
v 0.025136 0.079469 -0.033380
v 0.090002 0.233712 0.200543
v -0.154332 0.157587 0.081674
v -0.072056 0.078490 -0.011349
v 0.037546 0.226419 0.236305
v 0.145069 0.195220 0.138114
v 0.025326 0.106904 -0.046188
v 0.024593 0.092091 -0.036059
v 0.030425 0.082605 -0.028790
v -0.037070 0.272928 0.199763
v -0.028141 0.261627 0.209664
v -0.022110 0.259393 0.211412
v -0.025400 0.249357 0.217645
v -0.030183 0.276586 0.205262
v -0.024999 0.263118 0.214558
v 0.029477 0.055168 -0.016514
v -0.024537 0.227855 0.238148
v 0.014410 0.068264 -0.026132
v 0.015609 0.076404 -0.032196
v -0.114370 0.109655 0.016457
v 0.154513 0.188823 0.070598
v 0.103117 0.256967 0.171612
v -0.142670 0.159670 0.027369
v -0.032604 0.106222 -0.051837
v -0.069508 0.218714 0.224452
v 0.014157 0.238756 0.225617
v 0.025020 0.104062 -0.050329
v 0.027593 0.057991 -0.012416
v -0.033095 0.224628 0.233230
v 0.125309 -0.048162 0.307202
v 0.032718 0.071940 -0.020667
v -0.027404 0.251021 0.222065
v 0.076249 0.116726 -0.035224
v 0.069742 0.087280 -0.018825
vn 0.8390 0.2345 -0.4911
vn -0.6044 0.6914 0.3958
vn 0.7554 0.1247 0.6432
vn 0.7740 0.1429 0.6169
vn -0.7279 0.1917 0.6584
vn -0.6159 -0.1307 -0.7769
vn 0.8318 -0.4759 0.2856
vn 0.7505 -0.5477 0.3698
vn -0.3479 -0.7776 0.5237
vn 0.7751 0.5307 -0.3428
vn -0.6041 -0.3661 0.7079
vn -0.9975 -0.0618 0.0355
vn -0.4029 -0.9066 0.1256
vn 0.0401 0.9780 -0.2049
vn -0.4357 0.7531 -0.4930
vn -0.0645 0.9954 0.0705
vn -0.6766 0.0517 0.7345
vn 0.5139 0.2001 0.8342
vn -0.4631 -0.6634 0.5878
vn -0.0359 0.7514 0.6589
vn -0.5379 -0.8382 0.0899
vn -0.3333 0.7651 0.5509
vn 0.5679 -0.1872 -0.8015
vn -0.3621 -0.8136 0.4549
vn -0.7572 0.6213 0.2016
vn -0.8044 0.1483 0.5753
vn 0.6798 0.6675 0.3039
vn -0.1976 -0.5783 -0.7915
vn 0.5255 0.8483 -0.0647
vn 0.1917 -0.9423 -0.2743
vn 0.3577 -0.7781 -0.5164
vn 0.7027 0.3680 -0.6090
vn 0.2907 0.5629 -0.7737
vn -0.5655 -0.1635 -0.8084
vn 0.4320 0.7245 -0.5371
vn -0.5610 -0.1744 -0.8093
vn -0.6680 -0.7228 0.1770
vn -0.4142 0.8317 0.3697
vn -0.2131 -0.1391 0.9671
vn 0.6278 0.7780 0.0249
vn -0.5709 -0.6769 0.4647
vn -0.3554 -0.5868 0.7276
vn -0.2733 -0.5562 0.7848
vn 0.5695 0.1584 0.8066
vn 0.3605 0.5354 -0.7638
vn 0.6395 -0.3881 -0.6636
vn -0.5971 -0.5964 0.5364
vn -0.6723 -0.2529 -0.6957
vn 0.2140 0.5083 -0.8342
vn 0.6121 0.2142 0.7612
vn -0.8731 0.1750 -0.4551
vn -0.1811 0.1908 -0.9648
vn -0.0787 -0.9882 -0.1314
vn 0.1843 0.2501 -0.9505
vn 0.0917 -0.9713 -0.2194
vn -0.2774 -0.1618 -0.9470
vn 0.2027 0.0871 -0.9754
vn -0.0358 -0.9936 -0.1069
vn -0.1747 0.9626 0.2071
vn 0.1091 0.9696 0.2192
vn -0.4443 0.8900 0.1024
vn 0.5936 0.8044 -0.0228
vn 0.3778 0.9154 0.1389
vn 0.7257 0.6363 -0.2618
vn 0.7081 0.4365 -0.5550
vn -0.6165 0.3339 -0.7130
vn -0.7365 0.5183 -0.4347
vn -0.3823 0.2164 -0.8983
vn 0.7253 0.3378 -0.5998
vn 0.9970 0.0247 0.0735
vn 0.9481 -0.2183 -0.2310
vn 0.7472 0.5658 -0.3487
vn 0.7322 0.6788 0.0562
vn 0.6930 0.4009 0.5992
vn 0.9319 0.1991 0.3032
vn -0.1512 0.9429 0.2969
vn -0.4316 0.5112 0.7432
vn -0.1530 0.5261 0.8366
vn -0.3882 -0.1871 0.9024
vn -0.3561 0.8744 0.3297
vn -0.1447 0.9603 0.2384
vn -0.4321 0.8780 0.2059
vn -0.6814 0.4041 0.6103
vn -0.5174 0.8542 0.0516
vn -0.6180 -0.6571 0.4316
vn -0.6449 -0.7520 0.1362
vn -0.6133 0.5522 -0.5648
vn -0.5507 0.2855 -0.7843
vn -0.4629 0.0458 -0.8852
vn -0.8589 -0.3055 -0.4111
vn 0.2243 0.0445 -0.9735
vn 0.4274 -0.4685 -0.7732
vn 0.1262 -0.5343 -0.8358
vn 0.4728 0.2881 -0.8327
vn 0.7700 0.0721 -0.6340
vn 0.3326 -0.9333 -0.1354
vn 0.5285 -0.8428 0.1018
vn 0.5201 0.0996 -0.8483
vn -0.5478 0.5510 0.6296
vn -0.2896 0.0199 0.9570
vn -0.0555 0.9644 0.2585
vn -0.3593 0.7444 0.5628
vn -0.1428 0.4510 0.8810
vn -0.5982 0.7858 0.1573
vn -0.1086 0.1621 -0.9808
vn 0.5017 0.2475 -0.8289
vn 0.1912 0.1652 -0.9675
vn 0.8654 -0.4830 0.1334
vn 0.7285 0.5155 -0.4513
vn 0.6489 0.3758 -0.6616
vn -0.7094 -0.3807 0.5931
vn -0.8530 0.5015 -0.1444
vn -0.5833 -0.3664 0.7249
vn 0.1671 0.9609 0.2208
vn 0.4488 0.6058 0.6569
vn 0.3839 -0.0465 0.9222
vn 0.8292 -0.2967 0.4737
vn 0.5593 0.8202 -0.1200
vn 0.6818 0.6681 -0.2981
vn -0.6648 0.7463 0.0336
vn 0.2023 0.9261 0.3184
vn 0.4588 0.5039 0.7319
vn 0.4522 0.8588 0.2409
vn -0.7886 0.5702 -0.2301
vn -0.9639 0.1149 0.2401
vn -0.7800 -0.4287 0.4559
vn -0.5875 -0.5258 0.6151
vn -0.6180 -0.2222 0.7541
vn -0.6732 0.7301 -0.1172
vn -0.3090 -0.9348 -0.1754
vn 0.3372 -0.9309 -0.1406
vn 0.6661 -0.7301 0.1525
vn -0.5740 -0.8188 0.0114
vn -0.7210 -0.5067 0.4726
vn -0.3547 -0.2167 0.9095
vn 0.3589 -0.1901 0.9138
vn 0.6683 -0.3749 0.6425
vn 0.1243 0.5746 0.8090
vn -0.0887 0.1912 -0.9775
vn -0.1009 0.2311 -0.9677
vn 0.1849 -0.9400 -0.2866
vn 0.1212 -0.9892 -0.0822
vn -0.1435 -0.9869 -0.0733
vn -0.1767 -0.1056 0.9786
vn 0.0954 -0.2778 0.9559
vn 0.2278 -0.0917 0.9694
vn -0.7025 -0.6736 0.2298
vn -0.3089 -0.1366 0.9412
vn -0.4345 -0.3983 0.8078
vn -0.1613 -0.3234 0.9324
vn 0.2816 -0.3175 0.9055
vn 0.1240 -0.0709 0.9897
vn -0.8559 0.1742 0.4869
vn 0.1628 -0.5142 -0.8420
vn 0.2653 -0.5483 -0.7931
vn 0.5132 -0.8374 -0.1878
vn 0.7351 0.6778 -0.0135
vn 0.2389 0.9302 0.2786
vn 0.3123 0.8599 0.4038
vn 0.5906 -0.2612 0.7635
vn -0.3763 0.1757 -0.9097
vn -0.6165 0.5002 -0.6081
vn -0.8347 0.2636 -0.4835
vn 0.7308 -0.5818 0.3569
vn 0.5337 -0.8455 -0.0157
vn -0.6002 -0.3232 0.7316
vn -0.1034 -0.1072 0.9888
vn 0.9293 0.2747 -0.2471
vn 0.8941 -0.2122 -0.3945
vn 0.7853 -0.2096 -0.5825
vn 0.5586 -0.8047 0.2011
vn 0.5886 -0.5321 -0.6087
vn 0.0576 -0.9728 -0.2243
vn -0.0498 -0.1551 0.9866
vn -0.5276 0.4341 0.7302
vn -0.2651 0.6513 0.7110
vn -0.7873 0.3588 0.5015
vn -0.7622 0.5119 -0.3962
vn -0.9238 0.2297 0.3062
vn 0.6515 -0.3781 -0.6577
vn 0.4413 -0.5100 -0.7384
vn -0.5187 0.4912 -0.6997
vn -0.3871 -0.9074 0.1635
vn -0.2421 0.3862 -0.8901
vn 0.1838 -0.0441 0.9820
vn 0.3985 -0.3860 0.8320
vn 0.4405 0.2912 0.8492
vn 0.5518 -0.3596 -0.7525
vn 0.6207 -0.7720 -0.1370
vn 0.3597 -0.9089 -0.2109
vn 0.5736 -0.7217 -0.3876
vn 0.8116 -0.5769 0.0922
vn 0.9469 -0.1900 0.2594
vn 0.5739 -0.6340 0.5184
vn 0.8694 -0.2926 -0.3981
vn -0.6204 0.5979 -0.5076
vn 0.8968 0.3324 0.2920
vn -0.5899 0.7363 -0.3315
vn -0.4919 0.8608 -0.1306
vn -0.6848 -0.2900 -0.6685
vn 0.0955 0.9906 0.0980
vn -0.8546 -0.1676 -0.4915
vn 0.3078 0.9479 -0.0822
vn -0.9182 -0.0872 -0.3864
vn 0.4876 0.8568 -0.1678
vn -0.9727 0.1830 0.1429
vn 0.5469 0.7575 -0.3566
vn -0.8115 0.4252 0.4009
vn 0.5898 0.5778 -0.5642
vn 0.5051 0.4444 -0.7398
vn 0.5656 0.7429 0.3581
vn -0.3851 0.3544 -0.8521
vn 0.1419 0.7043 0.6955
vn -0.5340 0.4716 -0.7017
vn -0.3975 -0.9169 0.0369
vn -0.2442 -0.9085 -0.3390
vn -0.4975 -0.8673 -0.0139
vn -0.6194 0.6116 -0.4923
vn -0.5428 -0.7779 0.3166
vn -0.8986 -0.2578 0.3549
vn -0.9782 0.2037 -0.0400
vn -0.7128 -0.2884 0.6394
vn 0.6778 -0.4663 0.5684
vn 0.9399 -0.1428 0.3102
vn 0.6805 0.1574 0.7156
vn 0.6288 -0.6707 0.3933
vn -0.4351 -0.3593 -0.8256
vn -0.6560 -0.7547 0.0084
vn 0.9756 0.0328 -0.2169
vn 0.5287 0.1542 0.8347
vn 0.4834 -0.5132 0.7092
vn 0.7830 -0.0658 0.6186
vn 0.2497 -0.1102 -0.9620
vn -0.3056 -0.4560 -0.8359
vn -0.1211 -0.9889 -0.0860
vn -0.9818 -0.1176 -0.1490
vn 0.3396 0.3520 -0.8722
vn 0.1231 0.2972 -0.9469
vn 0.8826 0.4685 0.0385
vn 0.6880 0.6588 0.3045
vn -0.1262 0.9865 0.1047
vn -0.3131 0.9497 -0.0024
vn -0.1431 0.3126 -0.9390
vn -0.1840 -0.7539 -0.6307
vn -0.4370 -0.8933 -0.1046
vn -0.8354 -0.4580 0.3040
vn -0.7837 -0.2330 0.5758
vn -0.5872 -0.1025 0.8029
vn 0.8538 -0.0805 -0.5143
vn 0.6026 0.6283 -0.4921
vn 0.7634 0.4472 -0.4660
vn 0.5566 0.7786 -0.2898
vn 0.7393 0.6433 -0.1992
vn 0.2827 0.5369 0.7949
vn 0.6078 0.0411 0.7930
vn 0.2793 -0.3805 0.8816
vn -0.4690 0.4656 -0.7505
vn -0.6627 0.3199 -0.6771
vn -0.4581 0.0479 -0.8876
vn -0.5261 -0.8483 -0.0597
vn -0.3721 0.1736 -0.9118
vn -0.3016 -0.9365 -0.1788
vn -0.7063 -0.6795 0.1983
vn -0.5996 0.2704 -0.7533
vn 0.3994 0.8890 0.2239
vn 0.4968 -0.2377 0.8347
vn 0.6155 0.7870 0.0427
vn 0.6880 -0.3577 0.6315
vn 0.1009 -0.9842 -0.1453
vn -0.2247 -0.2734 0.9353
vn 0.7795 -0.4946 0.3844
vn 0.7075 -0.6925 0.1411
vn -0.4708 0.8598 0.1978
vn 0.3766 0.1095 -0.9199
vn 0.6893 -0.1578 -0.7071
vn 0.6271 -0.7782 -0.0333
vn -0.6099 -0.7924 0.0004
vn -0.7475 -0.6103 0.2621
vn -0.7161 0.6962 -0.0500
vn 0.2007 0.9796 0.0130
vn 0.4027 0.9061 -0.1301
vn -0.7955 -0.5072 0.3315
vn -0.3543 -0.9327 0.0680
vn 0.4075 -0.8869 -0.2177
vn 0.2383 0.3468 -0.9071
vn -0.3494 -0.1668 -0.9220
vn -0.1676 -0.9511 -0.2593
vn -0.4969 -0.4997 -0.7095
vn -0.7354 0.4154 -0.5353
vn -0.3004 0.9537 0.0107
vn -0.4960 0.8595 -0.1233
vn -0.2713 -0.1181 0.9552
vn -0.5286 -0.1464 0.8361
vn -0.2300 0.7345 -0.6384
vn 0.3775 -0.0927 -0.9213
vn 0.7470 -0.5903 -0.3058
vn 0.1145 -0.9442 -0.3088
vn -0.6886 0.1614 -0.7070
vn -0.5677 -0.7952 0.2131
vn -0.6163 -0.6668 0.4191
vn 0.4638 -0.3948 0.7931
vn 0.5957 -0.5154 0.6161
vn 0.6315 -0.6560 0.4133
vn 0.9901 -0.0839 -0.1123
s 1
usemtl default
f 7//1 8//2 16//3
f 5//4 14//5 16//3
f 8//2 7//1 2//6
f 1//7 5//4 8//2
f 11//8 16//3 6//9
f 11//8 10//10 5//4
f 3//11 13//12 6//9
f 13//12 9//13 6//9
f 10//10 11//8 7//1
f 16//3 8//2 3//11
f 2//6 7//1 9//13
f 8//2 4//14 10//10
f 6//9 16//3 3//11
f 9//13 7//1 11//8
f 13//12 8//2 12//15
f 2//6 13//12 12//15
f 14//5 1//7 7//1
f 26//16 25//17 24//18
f 47//19 31//20 29//21
f 31//20 48//22 27//23
f 22//24 40//25 18//26
f 51//27 34//28 21//29
f 42//30 49//31 41//32
f 41//32 48//22 47//19
f 23//33 35//34 51//27
f 54//35 18//26 40//25
f 17//36 46//37 25//17
f 21//29 37//38 33//39
f 39//40 44//41 53//42
f 52//43 43//44 51//27
f 44//41 39//40 43//44
f 17//36 29//21 46//37
f 31//20 45//45 24//18
f 17//36 25//17 26//16
f 24//18 45//45 26//16
f 38//46 50//47 20//48
f 34//28 19//49 21//29
f 33//39 37//38 50//47
f 34//28 50//47 19//49
f 34//28 52//43 33//39
f 39//40 53//42 36//50
f 32//51 53//42 44//41
f 48//22 41//32 27//23
f 49//31 27//23 41//32
f 37//38 38//46 20//48
f 21//29 19//49 37//38
f 18//26 47//19 42//30
f 47//19 54//35 41//32
f 39//40 54//35 40//25
f 32//51 40//25 53//42
f 22//24 53//42 40//25
f 22//24 36//50 53//42
f 204//52 203//53 279//54
f 297//55 294//56 233//57
f 237//58 294//56 297//55
f 77//59 78//60 76//61
f 176//62 78//60 79//63
f 80//64 81//65 176//62
f 86//66 74//67 85//68
f 192//69 246//70 250//71
f 228//72 95//73 246//70
f 95//73 249//74 241//75
f 281//76 240//77 285//78
f 102//79 218//80 283//81
f 101//82 244//83 240//77
f 102//79 216//84 218//80
f 210//85 208//86 112//87
f 207//88 142//89 141//90
f 199//91 247//92 248//93
f 122//94 242//95 247//92
f 200//96 196//97 197//98
f 133//99 284//100 129//101
f 167//102 253//103 128//104
f 84//105 82//106 83//107
f 229//108 89//109 123//110
f 212//111 213//112 105//113
f 216//84 102//79 105//113
f 221//114 153//115 223//116
f 91//117 96//118 92//119
f 229//108 92//119 89//109
f 244//83 101//82 104//120
f 219//121 243//122 99//123
f 107//124 138//125 104//120
f 257//126 184//127 264//128
f 74//67 75//129 85//68
f 81//65 82//106 85//68
f 176//62 81//65 85//68
f 78//60 176//62 85//68
f 76//61 78//60 85//68
f 75//129 76//61 85//68
f 178//130 177//131 169//132
f 172//133 178//130 169//132
f 171//134 172//133 169//132
f 58//135 171//134 169//132
f 56//136 58//135 169//132
f 300//137 56//136 169//132
f 251//138 281//76 285//78
f 143//139 202//140 199//91
f 286//141 298//142 180//143
f 251//138 219//121 281//76
f 287//144 186//145 275//146
f 172//133 171//134 179//147
f 295//148 185//149 299//150
f 275//146 186//145 187//151
f 243//122 219//121 251//138
f 221//114 223//116 220//152
f 244//83 104//120 137//153
f 288//154 289//155 125//156
f 296//157 165//158 166//159
f 123//110 196//97 229//108
f 196//97 123//110 197//98
f 226//160 153//115 96//118
f 226//160 223//116 153//115
f 205//161 202//140 143//139
f 111//162 207//88 141//90
f 111//162 139//163 107//124
f 99//123 249//74 95//73
f 249//74 99//123 243//122
f 169//132 168//164 300//137
f 177//131 173//165 169//132
f 58//135 170//166 171//134
f 221//114 220//152 282//167
f 291//168 236//169 131//170
f 87//171 169//132 173//165
f 177//131 146//172 173//165
f 180//143 59//173 178//130
f 186//145 57//174 56//136
f 283//81 155//175 302//176
f 218//80 156//177 155//175
f 216//84 213//112 156//177
f 213//112 273//178 269//179
f 197//98 124//180 304//181
f 116//182 290//183 120//184
f 222//185 225//186 235//187
f 303//188 131//170 195//189
f 195//189 198//190 303//188
f 247//92 242//95 144//191
f 242//95 250//71 144//191
f 193//192 149//193 93//194
f 289//155 304//181 125//156
f 124//180 163//195 193//192
f 291//168 60//196 234//197
f 131//170 61//198 291//168
f 303//188 62//199 131//170
f 238//200 65//201 294//56
f 130//202 66//203 238//200
f 293//204 67//205 130//202
f 135//206 174//207 293//204
f 134//208 68//209 135//206
f 133//99 69//210 134//208
f 292//211 72//212 55//213
f 234//197 73//214 292//211
f 146//172 177//131 298//142
f 178//130 181//215 180//143
f 239//216 245//217 142//89
f 116//182 113//218 209//219
f 209//219 113//218 108//220
f 108//220 109//221 214//222
f 234//197 90//223 132//224
f 234//197 94//225 90//223
f 132//224 90//223 88//226
f 238//200 117//227 114//228
f 147//229 163//195 123//110
f 123//110 89//109 147//229
f 272//230 97//231 151//232
f 151//232 93//194 149//193
f 59//173 180//143 298//142
f 57//174 186//145 299//150
f 271//233 162//234 204//52
f 297//55 201//235 237//58
f 293//204 136//236 135//206
f 65//201 238//200 66//203
f 66//203 130//202 67//205
f 67//205 293//204 174//207
f 70//237 129//101 175//238
f 56//136 187//151 186//145
f 147//229 92//119 276//239
f 276//239 96//118 256//240
f 279//54 304//181 271//233
f 222//185 235//187 55//213
f 201//235 117//227 237//58
f 64//241 233//57 65//201
f 291//168 61//198 60//196
f 131//170 62//199 61//198
f 303//188 63//242 62//199
f 233//57 64//241 63//242
f 135//206 68//209 174//207
f 134//208 69//210 68//209
f 133//99 70//237 69//210
f 55//213 72//212 71//243
f 292//211 73//214 72//212
f 234//197 60//196 73//214
f 143//139 239//216 142//89
f 231//244 120//184 119//245
f 110//246 130//202 114//228
f 134//208 211//247 215//248
f 94//225 235//187 225//186
f 153//115 256//240 96//118
f 194//249 230//250 148//251
f 230//250 227//252 150//253
f 279//54 197//98 304//181
f 252//254 127//255 224//256
f 96//118 276//239 92//119
f 115//257 159//258 112//87
f 118//259 159//258 115//257
f 197//98 123//110 163//195
f 55//213 71//243 175//238
f 222//185 55//213 284//100
f 279//54 271//233 204//52
f 262//260 274//261 261//262
f 254//263 255//264 262//260
f 154//265 275//146 266//266
f 152//267 266//266 268//268
f 199//91 201//235 277//269
f 281//76 222//185 280//270
f 222//185 281//76 219//121
f 271//233 231//244 162//234
f 253//103 165//158 302//176
f 88//226 228//72 192//69
f 90//223 95//73 228//72
f 198//190 199//91 277//269
f 198//190 195//189 122//94
f 195//189 192//69 122//94
f 250//71 246//70 229//108
f 285//78 240//77 102//79
f 244//83 102//79 240//77
f 148//251 263//271 270//272
f 150//253 268//268 263//271
f 167//102 295//148 287//144
f 267//273 264//128 295//148
f 271//233 304//181 289//155
f 259//274 260//275 146//172
f 202//140 201//235 199//91
f 75//129 62//199 76//61
f 76//61 63//242 77//59
f 78//60 66//203 79//63
f 79//63 67//205 176//62
f 176//62 174//207 80//64
f 174//207 81//65 80//64
f 82//106 175//238 83//107
f 84//105 71//243 85//68
f 85//68 72//212 86//66
f 73//214 74//67 86//66
f 270//272 194//249 148//251
f 146//172 260//275 145//276
f 273//178 159//258 160//277
f 160//277 157//278 273//178
f 111//162 107//124 110//246
f 107//124 104//120 211//247
f 257//126 264//128 265//279
f 104//120 101//82 215//248
f 280//270 101//82 281//76
f 296//157 100//280 127//255
f 153//115 252//254 272//230
f 100//280 98//281 224//256
f 225//186 99//123 95//73
f 227//252 93//194 97//231
f 212//111 105//113 137//153
f 141//90 208//86 140//282
f 241//75 226//160 91//117
f 246//70 91//117 229//108
f 206//283 245//217 239//216
f 77//59 65//201 78//60
f 83//107 175//238 84//105
f 111//162 114//228 207//88
f 205//161 201//235 202//140
f 199//91 198//190 122//94
f 282//167 285//78 102//79
f 272//230 256//240 153//115
f 61//198 75//129 74//67
f 69//210 82//106 81//65
f 121//284 301//285 125//156
f 261//262 164//286 258//287
f 117//227 207//88 114//228
f 161//288 160//277 159//258
f 158//289 257//126 109//221
f 224//256 127//255 100//280
f 152//267 154//265 266//266
f 97//231 98//281 227//252
f 137//153 138//125 212//111
f 243//122 220//152 223//116
f 138//125 140//282 210//85
f 247//92 144//191 200//96
f 239//216 203//53 206//283
f 286//141 258//287 288//154
f 158//289 113//218 116//182
f 255//264 116//182 120//184
f 161//288 231//244 119//245
f 267//273 128//104 103//290
f 160//277 209//219 157//278
f 265//279 106//291 109//221
f 267//273 103//290 106//291
f 155//175 232//292 302//176
f 269//179 108//220 214//222
f 160//277 119//245 290//183
f 156//177 217//293 155//175
f 267//273 106//291 265//279
f 156//177 214//222 217//293
f 16//3 14//5 7//1
f 5//4 1//7 14//5
f 2//6 1//7 8//2
f 4//14 8//2 5//4
f 1//7 2//6 15//294
f 3//11 8//2 13//12
f 9//13 11//8 6//9
f 5//4 16//3 11//8
f 7//1 1//7 10//10
f 10//10 15//294 12//15
f 13//12 2//6 9//13
f 15//294 2//6 12//15
f 4//14 5//4 10//10
f 1//7 15//294 10//10
f 12//15 8//2 10//10
f 30//295 17//36 45//45
f 26//16 45//45 17//36
f 29//21 27//23 49//31
f 47//19 48//22 31//20
f 31//20 30//295 45//45
f 20//48 50//47 37//38
f 33//39 52//43 51//27
f 21//29 33//39 51//27
f 51//27 35//34 34//28
f 34//28 35//34 52//43
f 37//38 19//49 38//46
f 34//28 33//39 50//47
f 44//41 52//43 35//34
f 44//41 43//44 52//43
f 24//18 25//17 46//37
f 39//40 32//51 23//33
f 41//32 54//35 42//30
f 23//33 32//51 35//34
f 29//21 31//20 46//37
f 30//295 31//20 27//23
f 46//37 31//20 24//18
f 50//47 38//46 19//49
f 51//27 43//44 23//33
f 47//19 49//31 42//30
f 17//36 30//295 29//21
f 49//31 47//19 29//21
f 42//30 54//35 28//296
f 42//30 22//24 18//26
f 42//30 28//296 22//24
f 30//295 27//23 29//21
f 47//19 18//26 54//35
f 23//33 43//44 39//40
f 35//34 32//51 44//41
f 39//40 36//50 54//35
f 32//51 39//40 40//25
f 28//296 54//35 36//50
f 22//24 28//296 36//50
f 299//150 287//144 295//148
f 292//211 55//213 235//187
f 294//56 117//227 238//200
f 233//57 303//188 297//55
f 283//81 221//114 282//167
f 298//142 286//141 146//172
f 180//143 181//215 261//262
f 192//69 228//72 246//70
f 246//70 95//73 241//75
f 105//113 213//112 216//84
f 213//112 212//111 210//85
f 115//257 208//86 206//283
f 279//54 278//297 200//96
f 122//94 192//69 242//95
f 164//286 126//298 231//244
f 234//197 292//211 94//225
f 262//260 181//215 182//299
f 254//263 182//299 183//300
f 257//126 183//300 184//127
f 264//128 184//127 185//149
f 185//149 295//148 264//128
f 187//151 266//266 275//146
f 188//301 268//268 266//266
f 189//302 263//271 268//268
f 190//303 270//272 263//271
f 84//105 85//68 82//106
f 129//101 284//100 55//213
f 293//204 130//202 136//236
f 132//224 191//304 291//168
f 200//96 197//98 279//54
f 206//283 204//52 118//259
f 208//86 115//257 112//87
f 210//85 112//87 213//112
f 250//71 242//95 192//69
f 205//161 143//139 142//89
f 281//76 101//82 240//77
f 111//162 141//90 139//163
f 139//163 138//125 107//124
f 138//125 137//153 104//120
f 257//126 254//263 183//300
f 146//172 145//276 87//171
f 186//145 287//144 299//150
f 237//58 117//227 294//56
f 165//158 296//157 127//255
f 261//262 258//287 180//143
f 235//187 94//225 292//211
f 187//151 188//301 266//266
f 188//301 189//302 268//268
f 189//302 190//303 263//271
f 190//303 87//171 270//272
f 278//297 279//54 203//53
f 236//169 291//168 191//304
f 291//168 234//197 132//224
f 204//52 206//283 203//53
f 206//283 118//259 115//257
f 91//117 226//160 96//118
f 229//108 91//117 92//119
f 142//89 207//88 205//161
f 247//92 199//91 122//94
f 254//263 262//260 182//299
f 262//260 261//262 181//215
f 87//171 145//276 270//272
f 178//130 59//173 177//131
f 56//136 57//174 58//135
f 282//167 102//79 283//81
f 199//91 248//93 143//139
f 180//143 258//287 286//141
f 277//269 201//235 297//55
f 280//270 222//185 284//100
f 283//81 302//176 221//114
f 303//188 233//57 63//242
f 133//99 129//101 70//237
f 172//133 182//299 181//215
f 179//147 183//300 182//299
f 171//134 184//127 183//300
f 170//166 185//149 184//127
f 58//135 185//149 170//166
f 283//81 218//80 155//175
f 218//80 216//84 156//177
f 156//177 213//112 269//179
f 288//154 301//285 259//274
f 277//269 297//55 303//188
f 303//188 198//190 277//269
f 195//189 131//170 236//169
f 236//169 191//304 195//189
f 142//89 245//217 141//90
f 193//192 147//229 149//193
f 121//284 304//181 124//180
f 143//139 248//93 239//216
f 165//158 252//254 221//114
f 173//165 146//172 87//171
f 298//142 177//131 59//173
f 181//215 178//130 172//133
f 182//299 172//133 179//147
f 183//300 179//147 171//134
f 184//127 171//134 170//166
f 299//150 58//135 57//174
f 56//136 300//137 188//301
f 231//244 126//298 120//184
f 119//245 120//184 290//183
f 139//163 141//90 140//282
f 139//163 140//282 138//125
f 108//220 113//218 109//221
f 214//222 109//221 106//291
f 106//291 103//290 217//293
f 103//290 128//104 232//292
f 133//99 134//208 215//248
f 280//270 284//100 133//99
f 301//285 260//275 259//274
f 230//250 150//253 148//251
f 161//288 118//259 204//52
f 204//52 162//234 161//288
f 154//265 98//281 100//280
f 100//280 166//159 154//265
f 272//230 224//256 97//231
f 272//230 252//254 224//256
f 221//114 252//254 153//115
f 159//258 273//178 112//87
f 151//232 97//231 93//194
f 304//181 121//284 125//156
f 163//195 147//229 193//192
f 175//238 129//101 55//213
f 302//176 165//158 221//114
f 300//137 168//164 190//303
f 168//164 169//132 87//171
f 152//267 98//281 154//265
f 124//180 197//98 163//195
f 127//255 252//254 165//158
f 253//103 232//292 128//104
f 215//248 280//270 133//99
f 110//246 211//247 135//206
f 166//159 100//280 296//157
f 87//171 190//303 168//164
f 299//150 185//149 58//135
f 188//301 187//151 56//136
f 189//302 188//301 300//137
f 190//303 189//302 300//137
f 116//182 209//219 290//183
f 106//291 217//293 214//222
f 232//292 217//293 103//290
f 110//246 135//206 136//236
f 211//247 134//208 135//206
f 88//226 191//304 132//224
f 110//246 136//236 130//202
f 114//228 130//202 238//200
f 92//119 147//229 89//109
f 227//252 152//267 150//253
f 152//267 227//252 98//281
f 112//87 273//178 213//112
f 118//259 161//288 159//258
f 233//57 294//56 65//201
f 253//103 167//102 165//158
f 271//233 289//155 231//244
f 193//192 93//194 230//250
f 94//225 225//186 95//73
f 225//186 222//185 99//123
f 195//189 191//304 192//69
f 124//180 193//192 194//249
f 91//117 246//70 241//75
f 138//125 210//85 212//111
f 140//282 208//86 210//85
f 208//86 141//90 245//217
f 245//217 206//283 208//86
f 247//92 200//96 278//297
f 144//191 196//97 200//96
f 196//97 144//191 250//71
f 167//102 267//273 295//148
f 273//178 157//278 269//179
f 286//141 288//154 259//274
f 148//251 150//253 263//271
f 164//286 288//154 258//287
f 166//159 167//102 287//144
f 60//196 61//198 74//67
f 61//198 62//199 75//129
f 62//199 63//242 76//61
f 63//242 64//241 77//59
f 78//60 65//201 66//203
f 79//63 66//203 67//205
f 176//62 67//205 174//207
f 174//207 68//209 81//65
f 68//209 69//210 81//65
f 69//210 70//237 82//106
f 82//106 70//237 175//238
f 71//243 72//212 85//68
f 72//212 73//214 86//66
f 73//214 60//196 74//67
f 191//304 88//226 192//69
f 121//284 194//249 260//275
f 259//274 146//172 286//141
f 205//161 117//227 201//235
f 111//162 110//246 114//228
f 158//289 254//263 257//126
f 219//121 99//123 222//185
f 272//230 151//232 256//240
f 224//256 98//281 97//231
f 90//223 94//225 95//73
f 151//232 149//193 276//239
f 244//83 105//113 102//79
f 244//83 137//153 105//113
f 250//71 229//108 196//97
f 77//59 64//241 65//201
f 285//78 282//167 220//152
f 289//155 164//286 231//244
f 230//250 194//249 193//192
f 227//252 230//250 93//194
f 104//120 215//248 211//247
f 207//88 117//227 205//161
f 223//116 226//160 249//74
f 278//297 248//93 247//92
f 254//263 158//289 255//264
f 289//155 288//154 164//286
f 203//53 248//93 278//297
f 275//146 166//159 287//144
f 270//272 145//276 194//249
f 124//180 194//249 121//284
f 260//275 194//249 145//276
f 121//284 260//275 301//285
f 261//262 274//261 164//286
f 262//260 255//264 274//261
f 107//124 211//247 110//246
f 257//126 265//279 109//221
f 264//128 267//273 265//279
f 280//270 215//248 101//82
f 154//265 166//159 275//146
f 276//239 256//240 151//232
f 150//253 152//267 268//268
f 88//226 90//223 228//72
f 147//229 276//239 149//193
f 125//156 301//285 288//154
f 167//102 166//159 165//158
f 241//75 249//74 226//160
f 243//122 251//138 220//152
f 249//74 243//122 223//116
f 175//238 71//243 84//105
f 203//53 239//216 248//93
f 220//152 251//138 285//78
f 253//103 302//176 232//292
f 167//102 128//104 267//273
f 214//222 156//177 269//179
f 108//220 269//179 157//278
f 161//288 162//234 231//244
f 155//175 217//293 232//292
f 108//220 157//278 209//219
f 160//277 161//288 119//245
f 158//289 116//182 255//264
f 255//264 120//184 274//261
f 274//261 120//184 164//286
f 290//183 209//219 160//277
f 164//286 120//184 126//298
f 113//218 158//289 109//221
