# Blender 5.2.0 LTS
# www.blender.org
mtllib cone-for-spray.mtl
o Cone
v 0.000000 -0.039771 -0.216854
v 0.029476 -0.042913 -0.213712
v 0.056332 -0.052058 -0.204567
v 0.078183 -0.066395 -0.190231
v 0.093087 -0.084649 -0.171977
v 0.099720 -0.105198 -0.151427
v 0.097493 -0.126217 -0.130409
v 0.086603 -0.145837 -0.110788
v 0.068017 -0.162317 -0.094309
v 0.043388 -0.174190 -0.082435
v 0.014904 -0.180403 -0.076222
v -0.014904 -0.180403 -0.076222
v -0.043388 -0.174190 -0.082435
v -0.068017 -0.162317 -0.094309
v -0.086603 -0.145837 -0.110788
v -0.097493 -0.126217 -0.130409
v -0.099720 -0.105198 -0.151427
v -0.093087 -0.084649 -0.171977
v -0.078183 -0.066395 -0.190231
v -0.056332 -0.052058 -0.204567
v -0.029476 -0.042913 -0.213712
v 0.000000 0.030939 -0.004722
vn 0.1336 0.9402 -0.3134
vn 0.3889 0.8845 -0.2577
vn 0.6097 0.7780 -0.1513
vn 0.7763 0.6303 -0.0035
vn 0.8739 0.4544 0.1723
vn 0.8939 0.2660 0.3608
vn 0.8345 0.0818 0.5450
vn 0.7008 -0.0818 0.7086
vn 0.5050 -0.2103 0.8371
vn 0.2642 -0.2923 0.9191
vn -0.0000 -0.3205 0.9473
vn -0.2642 -0.2923 0.9191
vn -0.5050 -0.2103 0.8371
vn -0.7009 -0.0818 0.7086
vn -0.8345 0.0818 0.5450
vn -0.8939 0.2660 0.3608
vn -0.8739 0.4544 0.1723
vn -0.7763 0.6303 -0.0035
vn -0.6097 0.7780 -0.1513
vn -0.0000 -0.7071 -0.7071
vn -0.3889 0.8845 -0.2577
vn -0.1336 0.9402 -0.3134
vt 0.250000 0.490000
vt 0.250000 0.250000
vt 0.320741 0.479337
vt 0.385197 0.448297
vt 0.437640 0.399638
vt 0.473410 0.337682
vt 0.489329 0.267935
vt 0.483983 0.196595
vt 0.457846 0.130000
vt 0.413241 0.074068
vt 0.354132 0.033767
vt 0.285770 0.012681
vt 0.214230 0.012681
vt 0.145868 0.033767
vt 0.086759 0.074068
vt 0.042154 0.130000
vt 0.016017 0.196595
vt 0.010671 0.267935
vt 0.026590 0.337682
vt 0.062360 0.399638
vt 0.114803 0.448297
vt 0.750000 0.490000
vt 0.820741 0.479337
vt 0.885197 0.448297
vt 0.937640 0.399638
vt 0.973410 0.337682
vt 0.989329 0.267935
vt 0.983983 0.196595
vt 0.957846 0.130000
vt 0.913242 0.074068
vt 0.854132 0.033767
vt 0.785770 0.012681
vt 0.714230 0.012681
vt 0.645868 0.033767
vt 0.586758 0.074068
vt 0.542154 0.130000
vt 0.516017 0.196595
vt 0.510671 0.267935
vt 0.526590 0.337682
vt 0.562360 0.399638
vt 0.614803 0.448297
vt 0.679259 0.479337
vt 0.179259 0.479337
s 0
f 1/1/1 22/2/1 2/3/1
f 2/3/2 22/2/2 3/4/2
f 3/4/3 22/2/3 4/5/3
f 4/5/4 22/2/4 5/6/4
f 5/6/5 22/2/5 6/7/5
f 6/7/6 22/2/6 7/8/6
f 7/8/7 22/2/7 8/9/7
f 8/9/8 22/2/8 9/10/8
f 9/10/9 22/2/9 10/11/9
f 10/11/10 22/2/10 11/12/10
f 11/12/11 22/2/11 12/13/11
f 12/13/12 22/2/12 13/14/12
f 13/14/13 22/2/13 14/15/13
f 14/15/14 22/2/14 15/16/14
f 15/16/15 22/2/15 16/17/15
f 16/17/16 22/2/16 17/18/16
f 17/18/17 22/2/17 18/19/17
f 18/19/18 22/2/18 19/20/18
f 19/20/19 22/2/19 20/21/19
f 1/22/20 2/23/20 3/24/20 4/25/20 5/26/20 6/27/20 7/28/20 8/29/20 9/30/20 10/31/20 11/32/20 12/33/20 13/34/20 14/35/20 15/36/20 16/37/20 17/38/20 18/39/20 19/40/20 20/41/20 21/42/20
f 20/21/21 22/2/21 21/43/21
f 21/43/22 22/2/22 1/1/22
