# Blender 5.2.0 LTS
# www.blender.org
mtllib eraser-edited.mtl
o eraser
v -0.079431 -0.031110 0.408307
v 0.080384 -0.031724 0.406872
v -0.080895 -0.030706 -0.035691
v 0.080895 -0.030706 -0.035691
v -0.080895 0.024865 0.435691
v 0.080895 0.024865 0.435691
v -0.080384 0.025883 -0.006872
v 0.079570 0.025245 -0.008228
v 0.081841 0.031177 0.424736
v -0.081279 0.031747 0.009937
v 0.081777 -0.008051 0.419466
v -0.081777 -0.008052 0.419466
v 0.081777 0.002210 -0.019466
v -0.081777 0.002211 -0.019466
v 0.074585 0.022633 0.437775
v -0.081056 -0.037651 -0.027331
v -0.081220 0.031868 0.425250
v -0.079168 0.016974 -0.013490
v 0.080501 -0.037562 -0.031480
v -0.079132 -0.039256 -0.012210
v -0.078833 -0.037762 -0.035138
v -0.078698 -0.038418 0.397743
v -0.079024 0.032111 0.434639
v -0.078698 0.032577 0.002257
v 0.079024 0.032111 0.434639
v 0.079913 0.032982 0.418788
v 0.083034 0.029405 0.017699
v 0.082720 -0.033748 0.398129
v 0.082828 -0.035677 0.382270
v -0.082396 -0.036120 0.391094
v -0.082587 0.030306 0.017551
v -0.082181 0.028311 -0.000955
v -0.083797 0.009853 0.421521
v -0.069232 -0.039421 0.400879
v -0.073760 -0.039899 0.395630
v 0.070096 -0.039113 0.402048
v 0.071593 -0.038200 -0.039771
v -0.072473 -0.038534 -0.038818
v 0.063070 0.033263 0.439444
v 0.073399 0.032504 0.438823
v -0.075661 0.033409 0.435725
v -0.066207 0.033294 0.439272
v -0.067254 0.033464 -0.001797
v -0.072867 0.032639 -0.002486
v -0.073760 0.034058 0.004370
v 0.073356 0.032398 -0.002989
v 0.066919 0.033515 -0.001566
v 0.068793 -0.036647 0.406603
v -0.074548 0.022651 0.437791
v 0.068228 0.026491 0.439813
v 0.066576 0.030206 0.440937
v -0.074639 -0.028878 -0.037915
v -0.067580 -0.032998 -0.040094
v 0.066575 -0.036047 -0.040937
v -0.073169 0.021715 -0.012389
v -0.079800 0.010343 0.430302
v -0.079003 -0.007426 0.421947
v 0.079800 0.010342 0.430302
v 0.077884 -0.029419 0.410135
v 0.083796 0.009828 0.421523
v 0.082778 0.024702 0.431558
v 0.082783 -0.027218 0.406086
v 0.083796 -0.015669 -0.021522
v 0.082778 -0.030543 -0.031558
v 0.082294 0.019901 -0.008119
v 0.083588 0.022880 -0.001133
v 0.079800 -0.016183 -0.030302
v 0.075873 -0.030262 -0.038101
v -0.079800 -0.016183 -0.030302
v -0.076605 -0.002398 -0.024550
v -0.082783 0.021377 -0.006085
v -0.082778 -0.030543 -0.031558
v -0.082294 -0.025742 0.408119
v -0.082778 0.024702 0.431558
v -0.083528 -0.028615 0.401576
v 0.081026 -0.037911 0.389573
v 0.078872 -0.039212 0.381383
v 0.074981 -0.039804 0.396076
v 0.078247 -0.039467 -0.018282
v 0.080985 -0.035470 -0.034592
v 0.077977 -0.038473 -0.034960
v 0.081236 -0.038039 -0.010193
v -0.078041 -0.039542 0.376165
v -0.080908 -0.038235 0.381153
v -0.077873 0.033753 0.418730
v -0.078912 0.033512 0.023283
v -0.078807 0.031074 -0.001750
v 0.081274 0.032083 0.018528
v 0.079241 0.033117 0.010366
v 0.074951 0.033969 0.003885
v 0.083402 0.027433 0.422208
v 0.082766 -0.035501 -0.022910
v 0.083625 -0.030523 -0.022811
v 0.083680 -0.029696 0.397582
v -0.083467 -0.032570 0.391925
v -0.083625 -0.030523 -0.022811
v -0.082658 -0.036360 -0.013070
v -0.083644 0.024864 0.003446
v -0.083628 0.024554 0.422912
v -0.082867 0.029718 0.415942
v -0.068353 -0.037501 0.405632
v -0.075045 -0.035046 0.407098
v 0.075335 -0.035681 0.406331
v 0.065416 -0.038363 -0.040477
v 0.072769 -0.039877 -0.034995
v 0.076715 -0.036061 -0.038792
v -0.072170 -0.039900 -0.035167
v -0.076193 -0.035830 -0.039315
v -0.066519 -0.038344 -0.040359
v 0.066993 0.031975 0.440655
v 0.075002 0.034054 0.433609
v 0.074186 0.030088 0.439933
v -0.073304 0.034037 0.433874
v -0.074425 0.031157 0.439526
v -0.065970 0.031504 0.440931
v -0.066056 0.031339 -0.006062
v -0.075450 0.029651 -0.006572
v 0.075684 0.029170 -0.006892
v 0.066854 0.031580 -0.005667
v 0.072304 -0.029445 0.411420
v -0.072565 -0.031323 0.410385
v -0.070986 0.029920 0.440526
v -0.067803 0.026997 0.440021
v -0.068312 -0.036459 -0.040892
v 0.071758 -0.030761 -0.039100
v 0.069336 0.027947 -0.008931
v -0.070299 0.028136 -0.008676
v 0.079003 -0.007425 0.421948
v 0.083172 0.000984 0.421084
v 0.083172 -0.006823 -0.021084
v 0.079003 0.001586 -0.021947
v -0.083172 -0.006824 -0.021084
v -0.083172 0.000983 0.421084
v 0.079288 -0.037193 0.400741
v -0.080479 -0.035432 -0.035404
v -0.076655 -0.039168 -0.034259
v -0.077836 -0.037286 0.402145
v -0.080479 0.029591 0.435404
v 0.079287 0.031352 -0.000741
v 0.080479 0.029591 0.435404
v 0.076117 0.033535 0.434127
v 0.081993 0.029312 0.431709
v 0.081851 0.029165 -0.000431
v 0.081487 -0.034590 0.401883
v -0.081486 -0.034590 0.401883
v -0.083796 -0.015657 -0.021512
v -0.081993 -0.035153 -0.031709
v -0.081993 0.029312 0.431709
v -0.076914 0.029541 0.438959
v 0.076913 0.029541 0.438959
v 0.075184 -0.034691 -0.039621
v 0.074050 0.019168 -0.013660
vn 0.2998 -0.9538 -0.0207
vn 0.6751 -0.7370 -0.0330
vn 0.6310 -0.7694 0.0990
vn 0.3410 -0.9401 0.0049
vn 0.1996 -0.9721 0.1234
vn -0.1327 -0.9863 0.0981
vn 0.1317 -0.9733 -0.1879
vn -0.0696 -0.9628 0.2612
vn -0.6018 -0.7981 0.0292
vn -0.8732 -0.4873 -0.0039
vn -0.3811 -0.9245 -0.0042
vn -0.2525 -0.9676 0.0042
vn -0.1017 -0.9789 -0.1772
vn 0.0014 -0.6864 -0.7272
vn -0.7151 0.6982 0.0345
vn -0.2847 0.9586 0.0092
vn -0.3641 0.9314 -0.0039
vn -0.1287 0.9872 -0.0943
vn -0.0950 0.9907 0.0973
vn -0.0567 0.8762 0.4787
vn -0.0750 0.3294 0.9412
vn 0.0139 0.8878 0.4601
vn 0.4656 0.8850 0.0074
vn 0.7618 0.6464 0.0433
vn 0.7092 0.7040 -0.0379
vn 0.4710 0.8802 -0.0579
vn 0.1886 0.9709 0.1474
vn 0.1899 0.9740 -0.1234
vn 0.0276 0.9635 -0.2664
vn 0.0302 0.8163 -0.5769
vn -0.0376 0.9566 -0.2891
vn -0.5152 -0.3640 0.7759
vn -0.2048 -0.3687 0.9067
vn -0.6879 -0.0764 0.7218
vn -0.7848 -0.2914 0.5471
vn -0.3451 -0.4324 0.8330
vn -0.5821 -0.5156 0.6288
vn -0.1163 -0.5321 0.8386
vn -0.0681 -0.7995 0.5968
vn 0.0498 -0.7505 0.6590
vn 0.3682 -0.4986 0.7848
vn 0.7190 -0.3561 0.5969
vn 0.3475 -0.4328 0.8318
vn 0.5153 -0.3639 0.7759
vn 0.0958 -0.5150 0.8518
vn 0.2072 -0.3676 0.9066
vn 0.0518 -0.0636 0.9966
vn 0.1198 0.4665 0.8764
vn 0.0544 -0.3484 0.9358
vn 0.9399 0.3407 -0.0216
vn 0.9939 -0.0319 0.1057
vn 0.9901 -0.1235 0.0666
vn 0.9771 0.1657 -0.1338
vn 0.9391 -0.1496 0.3093
vn 0.6719 -0.1350 0.7282
vn 0.9165 -0.2346 0.3241
vn 0.5725 -0.5043 0.6465
vn 0.9169 -0.3991 0.0062
vn 0.9949 -0.0881 -0.0488
vn 0.7483 0.3062 -0.5885
vn 0.9362 0.1504 -0.3175
vn 0.6644 0.1359 -0.7349
vn 0.8648 0.2810 -0.4162
vn 0.4893 0.5421 -0.6832
vn 0.3507 0.4290 -0.8324
vn 0.5028 0.3677 -0.7823
vn 0.1459 0.4814 -0.8643
vn 0.0917 0.3559 -0.9300
vn 0.3047 0.3353 -0.8915
vn -0.1320 -0.0944 -0.9867
vn 0.0586 0.0363 -0.9976
vn 0.0001 -0.6697 -0.7427
vn -0.0469 0.3348 -0.9411
vn -0.5125 0.3657 -0.7770
vn -0.2065 0.3582 -0.9105
vn -0.6858 0.0720 -0.7242
vn -0.7634 0.2931 -0.5757
vn -0.1793 0.4466 -0.8766
vn -0.4585 0.4464 -0.7685
vn -0.5697 0.5818 -0.5805
vn -0.1269 0.4976 -0.8581
vn -0.0722 0.5938 -0.8014
vn -0.0372 0.7705 -0.6364
vn 0.0641 0.5895 -0.8052
vn -0.9390 0.1496 -0.3096
vn -0.9606 -0.0171 -0.2775
vn -0.9936 0.0361 -0.1066
vn -0.9827 -0.1803 0.0433
vn -0.9924 -0.1128 -0.0498
vn -0.8245 -0.5599 0.0817
vn -0.9749 -0.1724 0.1411
vn -0.8604 -0.2833 0.4236
vn -0.9364 -0.1502 0.3173
vn -0.9606 0.0178 0.2774
vn -0.9937 -0.0359 0.1065
vn -0.9216 0.3880 0.0090
vn -0.8937 0.4486 -0.0067
vn -0.9847 0.1642 -0.0579
vn 0.7107 -0.6957 -0.1046
vn 0.4511 -0.8249 -0.3406
vn 0.8108 -0.3378 -0.4780
vn 0.4559 -0.2980 -0.8386
vn -0.6852 -0.7240 -0.0795
vn -0.3930 -0.2082 -0.8956
vn -0.5571 -0.7252 -0.4046
vn -0.8300 -0.2998 -0.4704
vn -0.9095 -0.3665 -0.1961
vn -0.3310 -0.9206 -0.2071
vn -0.3738 -0.8259 0.4221
vn -0.7844 -0.5038 0.3617
vn -0.4497 -0.8747 0.1808
vn -0.4683 0.1468 0.8713
vn -0.5693 0.7593 0.3152
vn -0.8297 0.3053 0.4673
vn -0.3000 0.8917 0.3390
vn -0.4704 0.7854 -0.4024
vn -0.8436 0.4519 -0.2902
vn -0.4455 0.8755 -0.1872
vn 0.7837 0.5594 -0.2701
vn 0.5025 0.7964 -0.3365
vn 0.7787 0.3990 0.4842
vn 0.9086 0.3643 0.2043
vn 0.5638 0.7501 0.3457
vn 0.4778 0.1978 0.8559
vn 0.3655 0.8997 0.2387
vn 0.9609 0.0097 0.2766
vn 0.9795 0.1986 0.0339
vn 0.9079 -0.4160 -0.0519
vn 0.9625 -0.0389 -0.2685
vn 0.9936 0.0361 -0.1070
vn 0.7524 -0.5240 0.3991
vn 0.9109 -0.3932 0.1253
vn -0.9183 0.2285 -0.3232
vn -0.7271 0.6838 -0.0604
vn -0.9934 0.1022 0.0530
vn -0.8927 0.3856 0.2333
vn -0.2635 -0.6755 0.6886
vn 0.3088 -0.7052 0.6382
vn 0.0867 -0.9424 0.3231
vn 0.1690 -0.5997 -0.7822
vn -0.2085 -0.7535 -0.6236
vn 0.2693 0.7430 0.6127
vn 0.3102 0.1090 0.9444
vn -0.2695 0.4778 0.8361
vn -0.1660 0.9088 -0.3828
vn -0.3008 0.6917 -0.6566
vn 0.3184 0.6940 -0.6457
vn 0.1892 0.8935 -0.4072
vn -0.0309 -0.3245 0.9454
vn -0.1598 -0.0098 0.9871
vn 0.3011 0.0434 -0.9526
vn 0.4804 -0.8210 0.3084
s 1
f 79//1 82//2 76//3
f 77//4 78//5 79//1
f 76//3 77//4 79//1
f 78//5 35//6 105//7
f 78//5 34//8 35//6
f 84//9 97//10 20//11
f 20//11 83//12 84//9
f 83//12 20//11 107//13
f 104//14 105//7 107//13
f 17//15 85//16 86//17
f 45//18 85//16 113//19
f 42//20 115//21 39//22
f 26//23 9//24 88//25
f 89//26 111//27 26//23
f 89//26 90//28 111//27
f 47//29 119//30 43//31
f 90//28 43//31 45//18
f 56//32 49//33 5//34
f 56//32 5//34 12//35
f 49//33 56//32 57//36
f 1//37 121//38 57//36
f 57//36 121//38 49//33
f 121//38 101//39 48//40
f 59//41 11//42 128//43
f 128//43 11//42 58//44
f 128//43 120//45 59//41
f 120//45 128//43 15//46
f 115//21 51//47 110//48
f 50//49 49//33 15//46
f 88//25 9//24 27//50
f 60//51 94//52 66//53
f 11//42 129//54 6//55
f 62//56 11//42 2//57
f 11//42 62//56 129//54
f 94//52 60//51 62//56
f 29//58 93//59 94//52
f 13//60 130//61 4//62
f 65//63 13//60 8//64
f 13//60 65//63 130//61
f 8//64 13//60 131//65
f 131//65 13//60 67//66
f 152//67 8//64 131//65
f 125//68 131//65 68//69
f 152//67 131//65 125//68
f 124//70 54//71 104//14
f 104//14 109//72 124//70
f 54//71 53//73 125//68
f 69//74 52//75 3//76
f 69//74 3//76 14//77
f 52//75 69//74 70//78
f 18//79 14//77 7//80
f 18//79 55//81 70//78
f 70//78 69//74 18//79
f 52//75 70//78 55//81
f 127//82 116//83 126//84
f 132//85 72//86 146//87
f 95//88 96//89 97//10
f 97//10 84//9 30//90
f 75//91 73//92 133//93
f 133//93 74//94 33//95
f 100//96 17//15 31//97
f 100//96 31//97 98//98
f 78//5 77//4 76//3
f 19//99 81//100 80//101
f 81//100 106//102 80//101
f 79//1 105//7 81//100
f 82//2 79//1 19//99
f 20//11 97//10 16//103
f 108//104 21//105 135//106
f 16//103 147//107 21//105
f 107//13 20//11 136//108
f 137//109 145//110 22//111
f 22//111 30//90 84//9
f 83//12 35//6 22//111
f 22//111 84//9 83//12
f 149//112 23//113 138//114
f 41//115 85//16 23//113
f 113//19 85//16 41//115
f 87//116 32//117 24//118
f 86//17 45//18 24//118
f 89//26 88//25 143//119
f 143//119 139//120 89//26
f 140//121 142//122 25//123
f 25//123 150//124 140//121
f 9//24 26//23 25//123
f 25//123 142//122 9//24
f 141//125 26//23 111//27
f 142//122 140//121 61//126
f 142//122 61//126 91//127
f 91//127 61//126 60//51
f 66//53 65//63 143//119
f 143//119 27//50 66//53
f 92//128 64//129 93//59
f 19//99 80//101 92//128
f 93//59 64//129 63//130
f 144//131 28//132 62//56
f 76//3 29//58 28//132
f 28//132 144//131 76//3
f 145//110 1//37 73//92
f 73//92 75//91 145//110
f 145//110 95//88 30//90
f 146//87 95//88 75//91
f 72//86 96//89 146//87
f 72//86 3//76 135//106
f 135//106 147//107 72//86
f 72//86 147//107 96//89
f 32//117 7//80 71//133
f 71//133 98//98 32//117
f 31//97 10//134 32//117
f 74//94 99//135 33//95
f 74//94 5//34 138//114
f 138//114 148//136 74//94
f 148//136 17//15 100//96
f 74//94 148//136 99//135
f 49//33 121//38 15//46
f 35//6 34//8 22//111
f 102//137 137//109 101//39
f 101//39 137//109 34//8
f 103//138 48//40 36//139
f 105//7 37//140 81//100
f 38//141 107//13 136//108
f 110//48 40//142 39//22
f 25//123 40//142 150//124
f 141//125 40//142 25//123
f 111//27 39//22 40//142
f 40//142 110//48 112//143
f 114//144 23//113 149//112
f 114//144 115//21 42//20
f 42//20 41//115 114//144
f 42//20 113//19 41//115
f 45//18 44//145 24//118
f 24//118 44//145 87//116
f 44//145 116//83 117//146
f 139//120 118//147 46//148
f 46//148 119//30 47//29
f 120//45 48//40 103//138
f 102//137 101//39 121//38
f 1//37 102//137 121//38
f 123//149 115//21 122//150
f 5//34 49//33 149//112
f 122//150 115//21 114//144
f 122//150 114//144 149//112
f 15//46 6//55 150//124
f 112//143 110//48 51//47
f 50//49 15//46 112//143
f 3//76 52//75 108//104
f 55//81 125//68 52//75
f 151//151 4//62 106//102
f 68//69 4//62 151//151
f 151//151 37//140 54//71
f 151//151 106//102 37//140
f 125//68 68//69 151//151
f 126//84 118//147 152//67
f 152//67 55//81 126//84
f 55//81 18//79 117//146
f 117//146 127//82 55//81
f 116//83 127//82 117//146
f 121//38 120//45 15//46
f 36//139 48//40 101//39
f 36//139 101//39 34//8
f 78//5 36//139 34//8
f 107//13 109//72 104//14
f 107//13 105//7 35//6
f 86//17 10//134 17//15
f 39//22 111//27 42//20
f 115//21 110//48 39//22
f 113//19 111//27 45//18
f 113//19 42//20 111//27
f 26//23 88//25 89//26
f 111//27 90//28 45//18
f 119//30 116//83 43//31
f 90//28 47//29 43//31
f 1//37 57//36 12//35
f 57//36 56//32 12//35
f 48//40 120//45 121//38
f 59//41 2//57 11//42
f 58//44 6//55 15//46
f 15//46 128//43 58//44
f 58//44 11//42 6//55
f 51//47 123//149 50//49
f 123//149 51//47 115//21
f 27//50 9//24 91//127
f 91//127 66//53 27//50
f 6//55 129//54 61//126
f 129//54 60//51 61//126
f 62//56 60//51 129//54
f 92//128 29//58 76//3
f 29//58 92//128 93//59
f 76//3 82//2 92//128
f 66//53 94//52 63//130
f 4//62 130//61 64//129
f 130//61 63//130 64//129
f 66//53 63//130 130//61
f 66//53 130//61 65//63
f 67//66 4//62 68//69
f 68//69 131//65 67//66
f 67//66 13//60 4//62
f 54//71 124//70 53//73
f 125//68 55//81 152//67
f 18//79 69//74 14//77
f 119//30 126//84 116//83
f 55//81 127//82 126//84
f 71//133 7//80 14//77
f 14//77 132//85 71//133
f 132//85 146//87 71//133
f 72//86 132//85 3//76
f 14//77 3//76 132//85
f 98//98 71//133 146//87
f 95//88 97//10 30//90
f 146//87 75//91 98//98
f 73//92 1//37 12//35
f 12//35 133//93 73//92
f 133//93 33//95 75//91
f 74//94 133//93 5//34
f 12//35 5//34 133//93
f 100//96 98//98 99//135
f 31//97 17//15 10//134
f 33//95 98//98 75//91
f 144//131 2//57 134//152
f 76//3 134//152 78//5
f 76//3 144//131 134//152
f 79//1 78//5 105//7
f 106//102 4//62 80//101
f 81//100 19//99 79//1
f 135//106 3//76 108//104
f 135//106 21//105 147//107
f 136//108 20//11 16//103
f 16//103 21//105 136//108
f 83//12 107//13 35//6
f 137//109 1//37 145//110
f 22//111 145//110 30//90
f 138//114 5//34 149//112
f 138//114 23//113 148//136
f 23//113 17//15 148//136
f 23//113 85//16 17//15
f 86//17 85//16 45//18
f 87//116 7//80 32//117
f 10//134 86//17 24//118
f 24//118 32//117 10//134
f 143//119 8//64 139//120
f 89//26 139//120 90//28
f 150//124 6//55 140//121
f 141//125 25//123 26//23
f 61//126 140//121 6//55
f 142//122 91//127 9//24
f 66//53 91//127 60//51
f 143//119 65//63 8//64
f 143//119 88//25 27//50
f 82//2 19//99 92//128
f 64//129 80//101 4//62
f 92//128 80//101 64//129
f 94//52 93//59 63//130
f 144//131 62//56 2//57
f 28//132 29//58 94//52
f 62//56 28//132 94//52
f 145//110 75//91 95//88
f 146//87 96//89 95//88
f 16//103 97//10 147//107
f 96//89 147//107 97//10
f 98//98 31//97 32//117
f 33//95 99//135 98//98
f 99//135 148//136 100//96
f 102//137 1//37 137//109
f 22//111 34//8 137//109
f 134//152 2//57 103//138
f 103//138 36//139 134//152
f 78//5 134//152 36//139
f 81//100 37//140 106//102
f 37//140 105//7 104//14
f 108//104 38//141 21//105
f 38//141 108//104 109//72
f 136//108 21//105 38//141
f 107//13 38//141 109//72
f 150//124 40//142 112//143
f 141//125 111//27 40//142
f 114//144 41//115 23//113
f 117//146 7//80 87//116
f 87//116 44//145 117//146
f 45//18 43//31 44//145
f 44//145 43//31 116//83
f 139//120 8//64 118//147
f 46//148 118//147 119//30
f 90//28 139//120 46//148
f 46//148 47//29 90//28
f 59//41 103//138 2//57
f 120//45 103//138 59//41
f 123//149 122//150 49//33
f 149//112 49//33 122//150
f 49//33 50//49 123//149
f 112//143 15//46 150//124
f 50//49 112//143 51//47
f 53//73 124//70 52//75
f 108//104 124//70 109//72
f 108//104 52//75 124//70
f 52//75 125//68 53//73
f 125//68 151//151 54//71
f 54//71 37//140 104//14
f 152//67 118//147 8//64
f 118//147 126//84 119//30
f 117//146 18//79 7//80
