# Blender 5.2.0 LTS
# www.blender.org
mtllib hair-strand.mtl
o hairstrand
v 0.001174 0.001641 0.035460
v 0.002159 0.000000 0.001577
v 0.001174 -0.001641 0.035460
v -0.001067 -0.001713 -0.000540
v -0.002159 -0.000000 0.034537
v -0.001067 0.001713 -0.000540
vn 0.4833 0.8750 -0.0283
vn 0.4833 -0.8750 -0.0283
vn -0.2669 -0.0000 0.9637
vn -0.4481 -0.8935 0.0297
vn 0.9996 -0.0000 0.0290
vn -0.4481 0.8935 0.0297
vn -0.9995 -0.0000 -0.0311
vn 0.5489 -0.0000 -0.8359
vt 0.898562 1.000000
vt 0.844417 0.531012
vt 0.987183 0.500000
vt 0.598776 1.000000
vt 0.412737 0.500000
vt 0.655583 0.531012
vt 0.070361 0.238958
vt 0.373625 0.078429
vt 0.373625 0.421571
vt 0.253688 0.984553
vt 0.490000 0.250000
vt 0.012817 1.000000
vt 0.090373 0.500000
vt 0.639965 0.069264
vt 0.510000 0.250000
vt 0.639965 0.430736
vt 0.930844 0.250000
s 0
f 1/1/1 2/2/1 6/3/1
f 3/4/2 4/5/2 2/6/2
f 5/7/3 3/8/3 1/9/3
f 3/4/4 5/10/4 4/5/4
f 3/8/5 2/11/5 1/9/5
f 5/10/6 1/12/6 6/13/6
f 4/14/7 5/15/7 6/16/7
f 6/16/8 2/17/8 4/14/8
