# Blender 5.2.0 LTS
# www.blender.org
mtllib ink-edited.mtl
o Ink
v -0.011597 -0.021743 -0.015857
v -0.008816 -0.021673 -0.015697
v -0.010311 -0.037141 0.060397
v -0.003683 -0.034651 0.053971
v 0.000861 -0.035097 0.060561
v -0.006115 -0.024711 0.021599
v -0.004600 -0.037892 0.074290
v -0.001791 -0.038237 0.325108
v 0.004054 -0.036850 0.325007
v 0.007250 -0.051987 0.327994
v -0.011184 -0.052993 0.328355
v -0.004554 -0.055319 0.330855
v 0.010587 -0.052457 0.330006
v -0.005790 -0.051517 0.338733
v 0.015451 -0.046188 0.338341
v 0.005790 -0.050054 0.338580
v 0.008477 -0.047314 0.358508
v 0.001142 -0.045027 0.444104
v -0.001091 -0.034244 0.463752
v 0.007015 -0.036710 0.458572
v 0.007956 -0.043341 0.444377
v -0.005800 -0.020213 -0.015930
v -0.002648 -0.023510 0.023872
v 0.006716 -0.032604 0.073028
v 0.006634 -0.031004 0.060175
v 0.020779 -0.040816 0.326424
v 0.022340 -0.045975 0.331894
v 0.022912 -0.043905 0.328382
v 0.023238 -0.039583 0.338319
v 0.014549 -0.040737 0.439246
v 0.021344 -0.035417 0.436845
v 0.021729 -0.038966 0.357824
v 0.017021 -0.037474 0.447406
v 0.013397 -0.027484 0.463582
v 0.015942 -0.033825 0.454868
v -0.003375 -0.017454 -0.015829
v 0.010448 -0.026626 0.060232
v 0.011109 -0.021272 0.054087
v 0.000998 -0.020150 0.025046
v 0.011163 -0.027715 0.072944
v 0.014468 -0.020817 0.072398
v 0.016195 -0.027347 0.324772
v 0.019572 -0.019838 0.324714
v 0.028205 -0.032559 0.326391
v 0.030317 -0.037068 0.331647
v 0.033860 -0.030553 0.329891
v 0.034920 -0.021966 0.327606
v 0.028238 -0.033121 0.338092
v 0.029872 -0.025900 0.357918
v 0.027262 -0.032491 0.346518
v 0.020978 -0.022730 0.458416
v 0.027137 -0.021122 0.448046
v -0.002456 -0.013536 -0.015462
v 0.014136 -0.015334 0.059749
v 0.001255 -0.011373 0.021512
v 0.015531 -0.011454 0.074410
v 0.020172 -0.012700 0.324689
v 0.036044 -0.012599 0.327779
v 0.033132 -0.019395 0.337999
v 0.033321 -0.011083 0.338162
v 0.032232 -0.017950 0.346091
v 0.022439 -0.015307 0.458308
v 0.016717 -0.015774 0.465465
v 0.027601 -0.008048 0.447875
v -0.003779 -0.009871 -0.015999
v 0.013445 -0.008587 0.059738
v 0.011217 -0.002451 0.060154
v 0.012731 -0.002685 0.073227
v 0.036866 -0.007632 0.331491
v 0.034230 -0.000299 0.328572
v 0.028855 0.001021 0.326165
v 0.031938 -0.002629 0.338075
v 0.029948 0.002116 0.338051
v 0.031577 -0.008707 0.357749
v 0.027057 -0.001442 0.437461
v 0.029847 -0.000341 0.345973
v 0.016507 -0.008970 0.465192
v 0.021494 -0.003335 0.456527
v 0.006849 0.000885 0.054886
v -0.002543 -0.003569 0.025670
v 0.003394 0.005945 0.060840
v 0.014671 0.001619 0.324795
v 0.027483 0.011111 0.328256
v 0.022771 0.014515 0.327340
v 0.030029 0.009822 0.331803
v 0.022919 0.017515 0.331843
v 0.025484 0.009324 0.338231
v 0.017757 0.014759 0.357713
v 0.025035 0.007261 0.356956
v 0.022100 0.001821 0.450629
v 0.012353 -0.000985 0.465029
v 0.015103 0.008603 0.452067
v -0.006331 -0.007159 -0.015904
v -0.003988 0.007379 0.055506
v 0.001809 0.008056 0.073507
v 0.008185 0.007239 0.324907
v 0.018265 0.020619 0.329724
v 0.010407 0.024029 0.328949
v 0.018318 0.016098 0.338421
v 0.012039 0.019875 0.338521
v 0.012834 0.013821 0.441674
v 0.006526 0.020886 0.346460
v 0.008305 0.007609 0.459420
v -0.010468 -0.005917 -0.015664
v -0.007668 0.009408 0.060341
v -0.009110 -0.002067 0.023270
v -0.006700 0.010351 0.072571
v 0.000314 0.010099 0.325045
v 0.000029 0.025342 0.327963
v 0.002004 0.027086 0.332063
v -0.006186 0.027407 0.331746
v -0.007866 0.026242 0.328999
v 0.005195 0.022444 0.338517
v -0.003963 0.023613 0.338734
v 0.006794 0.016382 0.439501
v -0.004117 0.022461 0.345857
v 0.005335 0.015068 0.448490
v 0.001290 0.007515 0.462342
v -0.005464 0.011707 0.456339
v -0.013938 -0.006679 -0.015428
v -0.019982 0.006482 0.059815
v -0.015464 -0.003200 0.024194
v -0.013916 0.008792 0.060422
v -0.013763 0.009956 0.074301
v -0.021247 0.007138 0.073811
v -0.018343 0.022352 0.328120
v -0.017749 0.025133 0.330719
v -0.012589 0.022353 0.339098
v -0.018399 0.020624 0.339093
v -0.007107 0.016948 0.442962
v -0.015719 0.019663 0.358584
v -0.011856 0.014279 0.448730
v -0.007476 0.004830 0.464649
v -0.017278 0.009021 0.453807
v -0.016135 -0.008422 -0.015784
v -0.024563 0.003493 0.060728
v -0.019543 -0.007239 0.023460
v -0.029255 -0.000315 0.073949
v -0.024394 -0.000201 0.325502
v -0.031137 0.015345 0.328760
v -0.035872 0.012741 0.331527
v -0.032848 0.009903 0.339333
v -0.026250 0.016194 0.339108
v -0.026300 0.014489 0.347398
v -0.029872 0.009942 0.359168
v -0.014392 -0.001439 0.466512
v -0.018816 -0.001276 0.463249
v -0.018296 -0.011993 -0.015515
v -0.029404 -0.002589 0.060208
v -0.021719 -0.010402 0.025647
v -0.027938 -0.007957 0.325592
v -0.037256 0.002048 0.327503
v -0.039635 0.007257 0.333283
v -0.044451 -0.004073 0.332801
v -0.042071 -0.000161 0.329588
v -0.039360 -0.001170 0.339353
v -0.038531 -0.003232 0.346956
v -0.028979 -0.002530 0.450393
v -0.018440 -0.015384 -0.015145
v -0.030318 -0.010718 0.053876
v -0.031739 -0.018203 0.059651
v -0.022160 -0.015575 0.025993
v -0.033068 -0.010391 0.068341
v -0.028486 -0.016283 0.325597
v -0.040749 -0.008611 0.327701
v -0.044700 -0.014984 0.329875
v -0.041377 -0.013945 0.339505
v -0.039057 -0.012159 0.358942
v -0.029902 -0.010288 0.452731
v -0.022877 -0.010837 0.462738
v -0.016873 -0.018443 -0.015760
v -0.027596 -0.025285 0.054681
v -0.020878 -0.019992 0.026469
v -0.032761 -0.018499 0.074865
v -0.026768 -0.023216 0.325578
v -0.043270 -0.025023 0.330075
v -0.042266 -0.029955 0.332701
v -0.040273 -0.023036 0.339363
v -0.036215 -0.033266 0.339300
v -0.032357 -0.023002 0.439356
v -0.031332 -0.021458 0.447542
v -0.020611 -0.016149 0.465322
v -0.025293 -0.021127 0.458697
v -0.025509 -0.030510 0.451299
v -0.022422 -0.030961 0.054593
v -0.017842 -0.022326 0.022394
v -0.027858 -0.029131 0.074857
v -0.024126 -0.032820 0.066618
v -0.017094 -0.034705 0.325376
v -0.037959 -0.035613 0.329454
v -0.030266 -0.045707 0.333966
v -0.029249 -0.046581 0.330275
v -0.026526 -0.047163 0.329029
v -0.024101 -0.044550 0.327183
v -0.029132 -0.041644 0.339160
v -0.034810 -0.032488 0.347688
v -0.028487 -0.030503 0.443373
v -0.030652 -0.038258 0.346919
v -0.019966 -0.031582 0.457419
v -0.016131 -0.025130 0.466051
v -0.014813 -0.020707 -0.015298
v -0.017731 -0.035677 0.061116
v -0.011920 -0.026290 0.025628
v -0.019026 -0.035994 0.074331
v -0.009313 -0.037787 0.325237
v -0.016368 -0.053331 0.330826
v -0.023762 -0.045607 0.339168
v -0.015909 -0.049326 0.339033
v -0.019691 -0.040218 0.438682
v -0.021940 -0.044517 0.358719
v -0.010924 -0.034070 0.461790
v -0.015965 -0.039569 0.450445
v -0.012642 -0.043151 0.444510
v -0.012523 -0.038018 0.073218
v -0.012163 -0.048393 0.358409
v -0.003987 -0.041423 0.453629
v -0.002685 -0.053900 0.336543
v 0.010998 -0.050716 0.336461
v 0.026909 -0.039166 0.335999
v 0.019264 -0.045968 0.336370
v 0.033920 -0.027069 0.335741
v 0.035743 -0.011599 0.336067
v 0.029189 0.007965 0.336122
v 0.021212 0.017241 0.335926
v 0.011511 0.022637 0.336507
v -0.002353 0.026148 0.336460
v -0.029750 0.016708 0.336915
v -0.037065 0.008219 0.337264
v -0.041618 -0.000331 0.337047
v -0.043682 -0.011609 0.337541
v -0.039057 -0.032618 0.337365
v -0.033549 -0.040890 0.336881
v -0.023987 -0.048352 0.337112
v -0.013645 -0.052400 0.336895
v 0.010560 -0.033469 0.324862
v 0.018849 -0.005589 0.324725
v -0.006577 0.010383 0.325099
v -0.012416 0.009053 0.325299
v -0.023018 -0.029452 0.325502
v 0.001596 -0.049758 0.346450
v -0.005456 -0.050110 0.346563
v 0.014939 -0.045082 0.345092
v 0.031213 -0.026575 0.338173
v -0.034866 0.004638 0.347531
v -0.039484 -0.020365 0.347175
v -0.037958 -0.026108 0.346796
v 0.003995 -0.054285 0.333564
v 0.013439 -0.051211 0.333265
v 0.037235 -0.017692 0.332002
v 0.034328 0.001195 0.332933
v 0.011033 0.024476 0.333329
v -0.016677 0.024268 0.336574
v -0.025975 0.021392 0.333005
v -0.045151 -0.017502 0.334173
v -0.042819 -0.023516 0.337069
v -0.038392 -0.037096 0.332932
v -0.018591 -0.052536 0.334109
v 0.001107 -0.036067 0.072831
v 0.008424 0.003268 0.073674
v -0.018775 0.005742 0.325401
v -0.030764 -0.024522 0.065668
v -0.008222 -0.023756 0.012091
v -0.001598 -0.019710 0.014059
v 0.000466 -0.016084 0.018486
v 0.000070 -0.012829 0.013738
v -0.000989 -0.008112 0.019068
v -0.004420 -0.005303 0.014061
v -0.009213 -0.003804 0.013346
v -0.013321 -0.004649 0.010784
v -0.016570 -0.006284 0.013494
v -0.019525 -0.010420 0.013740
v -0.019958 -0.016067 0.014347
v -0.012851 -0.023697 0.014560
v -0.016688 -0.021246 0.010934
v -0.005666 -0.044954 0.443083
v 0.025724 -0.028198 0.444080
v 0.028977 -0.009573 0.442330
v 0.029105 -0.019122 0.441039
v 0.023355 0.004446 0.442443
v 0.019410 0.008670 0.444350
v -0.000981 0.017287 0.444238
v -0.013903 0.015447 0.438879
v -0.020275 0.011525 0.442833
v -0.025921 0.004287 0.448297
v -0.026367 0.006424 0.438623
v -0.031000 -0.001251 0.440612
v -0.033423 -0.012521 0.442775
v -0.024690 -0.035505 0.443148
v -0.003750 -0.050025 0.326725
v 0.006948 -0.046687 0.326281
v 0.030255 -0.016077 0.325802
v 0.017187 0.012673 0.325989
v 0.006120 0.021294 0.326646
v -0.018958 0.017044 0.326588
v -0.039236 -0.023521 0.327424
v -0.033073 -0.035830 0.327314
v 0.002703 -0.029927 0.467045
v 0.008207 -0.027390 0.466868
v 0.012784 -0.022304 0.466811
v 0.011591 -0.014484 0.468491
v 0.011820 -0.006340 0.467496
v 0.004967 0.000981 0.467269
v -0.001106 -0.003936 0.469701
v -0.006134 0.001298 0.467670
v -0.008504 -0.007406 0.469986
v -0.017366 -0.010724 0.467699
v -0.016127 -0.019781 0.467895
v -0.007045 -0.026143 0.468725
v -0.007024 -0.030388 0.466746
v 0.001485 -0.023305 0.469690
v 0.003920 -0.017628 0.470535
v 0.004403 -0.008658 0.470175
v -0.008108 -0.012435 0.470635
v -0.010124 -0.018560 0.469904
v -0.001913 -0.019481 0.470924
v -0.001382 -0.008434 0.470863
vn 0.3296 -0.9183 -0.2193
vn -0.1864 -0.9451 -0.2685
vn 0.2200 -0.9319 -0.2884
vn 0.1603 -0.9863 -0.0379
vn -0.0273 -0.9815 -0.1896
vn -0.1418 -0.9892 -0.0363
vn 0.3913 -0.9014 -0.1854
vn -0.0123 -0.3094 -0.9509
vn -0.1263 -0.6059 -0.7855
vn 0.1479 -0.5986 -0.7873
vn -0.0159 -0.9643 -0.2644
vn 0.3437 -0.8646 -0.3666
vn 0.1060 -0.9673 0.2303
vn 0.3318 -0.9098 0.2492
vn 0.3335 -0.9414 0.0506
vn 0.1130 -0.9884 0.1018
vn 0.2998 -0.7721 0.5603
vn -0.0493 -0.8788 0.4746
vn 0.5817 -0.7672 -0.2702
vn 0.6382 -0.7683 -0.0490
vn 0.4116 -0.9101 -0.0485
vn 0.6543 -0.7273 -0.2072
vn 0.6306 -0.7759 0.0158
vn 0.4354 -0.8775 0.2010
vn 0.5236 -0.8473 0.0885
vn 0.7115 -0.7015 0.0422
vn 0.5176 -0.8504 0.0943
vn 0.8410 -0.5051 -0.1939
vn 0.7994 -0.5256 -0.2912
vn 0.9021 -0.3262 -0.2826
vn 0.8265 -0.5605 -0.0517
vn 0.3479 -0.2173 -0.9120
vn 0.1922 -0.2406 -0.9514
vn 0.4937 -0.5599 -0.6654
vn 0.8242 -0.5645 -0.0438
vn 0.8552 -0.3852 -0.3469
vn 0.6461 -0.1354 -0.7512
vn 0.8504 -0.5196 0.0828
vn 0.8551 -0.4684 0.2224
vn 0.9426 -0.3318 0.0376
vn 0.7700 -0.3196 0.5522
vn 0.9106 -0.2105 0.3557
vn 0.9752 -0.0897 -0.2023
vn 0.9362 0.2081 -0.2832
vn 0.9648 -0.1692 -0.2013
vn 0.9924 -0.1073 0.0610
vn 0.6815 0.0297 -0.7312
vn 0.9815 -0.1524 0.1159
vn 0.8371 -0.0153 0.5468
vn 0.9249 0.1847 0.3323
vn 0.9512 0.2252 -0.2108
vn 0.9872 0.1591 -0.0070
vn 0.9080 0.3481 0.2331
vn 0.7414 0.2706 -0.6141
vn 0.2776 0.1327 -0.9515
vn 0.7656 0.3520 0.5384
vn 0.6517 0.1760 0.7378
vn 0.6976 0.6602 -0.2785
vn 0.5082 0.8099 -0.2930
vn 0.8322 0.5104 -0.2166
vn 0.8456 0.5000 -0.1871
vn 0.7070 0.7055 -0.0492
vn 0.5200 0.8360 -0.1752
vn 0.5848 0.4521 -0.6735
vn 0.8016 0.5954 0.0532
vn 0.9210 0.3821 0.0755
vn 0.8228 0.5455 0.1593
vn 0.5083 0.4691 0.7222
vn 0.5418 0.7102 0.4495
vn 0.2650 0.9247 -0.2732
vn 0.4281 0.9026 -0.0454
vn 0.4779 0.7718 -0.4194
vn 0.6599 0.7513 -0.0014
vn 0.3591 0.9144 0.1869
vn 0.2822 0.7435 -0.6062
vn 0.3594 0.4097 -0.8384
vn 0.5892 0.8059 0.0578
vn 0.4726 0.8676 0.1543
vn 0.2665 0.9577 0.1086
vn 0.3646 0.7293 0.5790
vn 0.2382 0.8985 0.3686
vn 0.0488 0.9701 -0.2377
vn 0.0827 0.9813 -0.1741
vn 0.1013 0.9935 -0.0520
vn 0.2657 0.9597 0.0911
vn 0.0351 0.9730 0.2283
vn 0.0043 0.9937 0.1118
vn -0.1090 0.8449 0.5238
vn 0.1059 0.7440 0.6597
vn -0.2174 0.9597 -0.1782
vn -0.2092 0.9773 -0.0333
vn -0.0853 0.7210 -0.6877
vn -0.0588 0.9971 -0.0479
vn -0.3185 0.8979 -0.3038
vn -0.2158 0.4924 -0.8432
vn -0.2083 0.6804 0.7026
vn -0.4878 0.7188 0.4954
vn -0.2995 0.8865 0.3527
vn -0.6681 0.7238 -0.1723
vn -0.7793 0.5911 -0.2079
vn -0.4476 0.8609 -0.2419
vn -0.5310 0.8472 0.0152
vn -0.7546 0.6160 -0.2261
vn -0.4337 0.4748 -0.7658
vn -0.5746 0.7963 0.1890
vn -0.3387 0.9385 0.0668
vn -0.3758 0.9218 0.0953
vn -0.4028 0.4190 0.8138
vn -0.6071 0.4462 0.6576
vn -0.8666 0.4628 -0.1869
vn -0.8647 0.4991 0.0556
vn -0.7211 0.2711 -0.6376
vn -0.8434 0.3543 0.4040
vn -0.7365 0.5850 0.3397
vn -0.9556 0.1455 -0.2562
vn -0.9368 0.2471 -0.2477
vn -0.9646 -0.1211 -0.2343
vn -0.8306 0.5567 -0.0123
vn -0.9867 0.1487 -0.0663
vn -0.9656 -0.1643 -0.2017
vn -0.9753 0.2198 -0.0206
vn -0.8002 -0.0172 -0.5995
vn -0.9498 0.2874 0.1234
vn -0.9818 0.0533 0.1824
vn -0.9958 0.0526 0.0748
vn -0.6826 0.1760 -0.7093
vn -0.8482 -0.1693 -0.5019
vn -0.5183 -0.3442 -0.7829
vn -0.9834 -0.1814 -0.0002
vn -0.8903 -0.4428 -0.1068
vn -0.9542 -0.2801 0.1050
vn -0.9304 -0.3445 0.1253
vn -0.9750 -0.1858 0.1217
vn -0.7792 -0.2409 0.5786
vn -0.9157 -0.2319 0.3282
vn -0.8767 0.1016 0.4701
vn -0.7551 0.1274 0.6431
vn -0.7005 -0.7096 -0.0755
vn -0.4761 -0.7321 -0.4872
vn -0.8301 -0.4963 -0.2541
vn -0.6321 -0.7685 -0.0997
vn -0.6059 -0.7514 -0.2611
vn -0.7810 -0.6245 0.0028
vn -0.6281 -0.3924 -0.6719
vn -0.9227 -0.3854 -0.0079
vn -0.8197 -0.5722 0.0243
vn -0.5716 -0.7001 -0.4280
vn -0.3578 -0.5610 -0.7465
vn -0.8439 -0.5029 0.1870
vn -0.6903 -0.6959 0.1981
vn -0.8515 -0.5098 0.1227
vn -0.5905 -0.5763 0.5650
vn -0.7391 -0.5247 0.4223
vn -0.1055 -0.6101 -0.7853
vn -0.3650 -0.9124 -0.1853
vn -0.6424 -0.7325 -0.2253
vn -0.1891 -0.2682 -0.9446
vn -0.5122 -0.8555 0.0764
vn -0.5453 -0.8321 0.1012
vn -0.3167 -0.7057 0.6338
vn -0.4879 -0.4031 0.7742
vn -0.4428 -0.8004 0.4041
vn -0.4172 -0.9087 -0.0124
vn -0.2571 -0.9639 0.0698
vn -0.3377 -0.9149 0.2210
vn -0.1258 -0.9763 0.1762
vn -0.0493 -0.9932 0.1053
vn 0.0321 -0.7341 0.6783
vn 0.0302 -0.8344 0.5503
vn -0.0458 -0.8641 0.5013
vn 0.2303 -0.8567 0.4616
vn 0.3028 -0.7405 0.6000
vn 0.6506 -0.5184 0.5550
vn 0.6285 -0.6082 0.4848
vn 0.7646 -0.4502 0.4611
vn 0.8141 -0.2756 0.5112
vn 0.8855 -0.1288 0.4464
vn 0.8234 -0.2936 0.4856
vn 0.8231 0.0510 0.5656
vn 0.8776 0.2550 0.4060
vn 0.8678 0.0704 0.4919
vn 0.6952 0.5543 0.4577
vn 0.6872 0.4420 0.5766
vn 0.8046 0.3936 0.4447
vn 0.5347 0.6518 0.5378
vn 0.5346 0.7077 0.4619
vn 0.3221 0.7378 0.5933
vn 0.3919 0.7872 0.4761
vn 0.2115 0.8590 0.4663
vn -0.8091 0.2887 0.5119
vn -0.7866 0.2860 0.5473
vn -0.6609 0.4563 0.5958
vn -0.7212 -0.3735 0.5834
vn -0.7365 -0.4514 0.5038
vn -0.6076 -0.5577 0.5655
vn -0.4571 -0.7277 0.5114
vn -0.4011 -0.7028 0.5875
vn -0.5704 -0.6449 0.5087
vn -0.1593 -0.8087 0.5662
vn -0.2690 -0.8343 0.4813
vn 0.4576 -0.7421 0.4898
vn 0.9896 -0.1156 0.0855
vn 0.9900 0.1357 0.0392
vn 0.9257 0.3680 0.0876
vn -0.1610 0.8712 0.4638
vn -0.3684 0.8016 0.4709
vn -0.4935 0.7154 0.4945
vn -0.5908 0.7994 0.1095
vn -0.6722 0.5567 0.4880
vn -0.8694 0.4804 0.1151
vn -0.7381 0.6711 0.0696
vn -0.8603 -0.0059 0.5097
vn -0.8339 -0.2125 0.5093
vn -0.7289 -0.6741 0.1199
vn 0.1942 -0.9586 0.2082
vn 0.4995 -0.6510 0.5716
vn 0.8205 0.5715 0.0089
vn 0.1546 0.9873 -0.0358
vn 0.0398 0.8348 0.5490
vn -0.2517 0.8161 0.5203
vn 0.5921 -0.6434 0.4852
vn 0.6012 -0.7331 0.3181
vn -0.5370 0.6386 0.5512
vn -0.7964 0.0587 0.6019
vn -0.9807 -0.0873 0.1748
vn -0.8044 -0.2062 0.5571
vn -0.6182 -0.7530 0.2254
vn -0.3395 -0.9087 0.2428
vn 0.2062 -0.6031 -0.7706
vn 0.3746 -0.5039 -0.7783
vn 0.5190 -0.3529 -0.7785
vn 0.9595 -0.2752 -0.0609
vn 0.5984 -0.1635 -0.7843
vn 0.9934 0.1044 -0.0480
vn 0.6266 0.0372 -0.7784
vn 0.5816 0.2226 -0.7824
vn 0.8902 0.4522 -0.0548
vn 0.4768 0.4018 -0.7818
vn 0.3023 0.5438 -0.7828
vn 0.1006 0.6342 -0.7666
vn -0.2212 0.6063 -0.7638
vn -0.5222 0.8524 -0.0263
vn -0.4031 0.5024 -0.7649
vn -0.5448 0.3619 -0.7565
vn -0.6559 -0.0509 -0.7531
vn -0.6042 -0.2444 -0.7584
vn -0.5076 -0.4061 -0.7598
vn -0.3475 -0.5402 -0.7665
vn -0.1559 -0.6252 -0.7648
vn 0.0235 -0.9931 -0.1146
vn 0.8047 -0.5820 -0.1176
vn 0.9822 0.1563 -0.1045
vn 0.5328 0.8363 -0.1294
vn 0.0882 0.9888 -0.1203
vn -0.3278 0.9407 -0.0870
vn -0.6868 0.7145 -0.1334
vn -0.9348 0.3334 -0.1222
vn -0.2936 -0.9447 -0.1460
vn 0.3663 -0.4983 -0.7858
vn 0.1760 -0.7458 -0.6425
vn 0.5945 -0.2895 -0.7502
vn 0.8115 0.0378 -0.5831
vn 0.0014 0.6877 -0.7260
vn -0.3388 0.7435 -0.5766
vn -0.4703 0.4128 -0.7800
vn -0.9672 -0.2192 -0.1282
vn 0.7375 -0.6714 0.0730
vn 0.9811 0.1320 0.1415
vn 0.7666 0.4973 0.4062
vn -0.1750 0.9693 0.1725
vn -0.7664 0.6339 0.1038
vn -0.9132 0.3832 0.1388
vn 0.5236 0.3153 -0.7915
vn 0.3148 0.5563 -0.7690
vn 0.0644 -0.2155 -0.9744
vn 0.2179 -0.0114 -0.9759
vn 0.1141 0.1662 -0.9795
vn 0.0812 0.3081 -0.9479
vn -0.1177 0.2071 -0.9712
vn 0.0344 0.6080 -0.7932
vn -0.3204 0.1684 -0.9322
vn -0.6318 0.1512 -0.7603
vn -0.3707 0.0451 -0.9277
vn -0.3285 -0.0868 -0.9405
vn -0.2717 -0.1970 -0.9420
vn 0.0448 -0.6376 -0.7690
vn 0.3284 -0.4424 0.8345
vn 0.5533 -0.4999 0.6662
vn 0.1522 -0.5253 0.8372
vn 0.1183 -0.2889 0.9500
vn 0.6486 -0.0772 0.7572
vn 0.4786 -0.2631 0.8377
vn 0.3827 -0.0153 0.9237
vn 0.4057 0.2263 0.8856
vn 0.2142 0.4817 0.8498
vn -0.1132 0.4740 0.8732
vn 0.0308 0.2987 0.9539
vn -0.1961 0.1996 0.9601
vn -0.4768 0.1134 0.8717
vn -0.6696 -0.0970 0.7364
vn -0.4318 -0.1799 0.8838
vn -0.1475 -0.3409 0.9285
vn -0.1734 -0.5512 0.8162
vn 0.1896 -0.0956 0.9772
vn 0.1994 0.1455 0.9691
vn 0.0200 0.1364 0.9904
vn -0.1747 0.0288 0.9842
vn -0.2292 -0.1271 0.9650
vn -0.0064 -0.1448 0.9894
vn 0.6631 0.7157 0.2192
vn -0.4499 0.8712 -0.1964
vn -0.0462 0.6781 0.7335
vn -0.8437 -0.4708 -0.2579
vn -0.7894 -0.2158 -0.5747
vn -0.2895 -0.9024 -0.3191
vn -0.0062 0.8646 0.5024
s 1
usemtl wire_229166215
f 6//1 4//3 203//2
f 7//4 214//6 3//5
f 4//3 5//7 3//5
f 289//8 10//10 11//9
f 10//10 13//12 12//11
f 18//13 17//15 21//14
f 18//13 240//16 17//15
f 20//17 216//18 18//13
f 18//13 21//14 20//17
f 23//19 4//3 6//1
f 24//20 258//21 5//7
f 24//20 5//7 25//22
f 27//23 248//24 13//12
f 30//25 242//27 32//26
f 37//28 25//22 39//29
f 37//28 39//29 38//30
f 25//22 40//31 24//20
f 44//32 28//34 26//33
f 28//34 45//35 27//23
f 46//36 44//32 47//37
f 50//38 49//40 276//39
f 276//39 52//42 51//41
f 54//43 264//45 55//44
f 54//43 37//28 38//30
f 47//37 249//46 46//36
f 47//37 58//47 249//46
f 49//40 278//48 276//39
f 52//42 64//50 62//49
f 55//44 66//51 54//43
f 69//52 249//46 58//47
f 69//52 70//54 250//53
f 58//47 71//55 70//54
f 78//56 62//49 64//50
f 78//56 77//57 62//49
f 79//58 266//60 80//59
f 67//61 81//63 259//62
f 71//55 83//64 70//54
f 89//65 279//67 75//66
f 78//56 91//68 77//57
f 91//68 78//56 92//69
f 80//59 81//63 79//58
f 81//63 80//59 94//70
f 95//71 259//62 81//63
f 97//72 86//73 83//64
f 97//72 98//75 251//74
f 84//76 98//75 97//72
f 88//77 102//79 101//78
f 92//69 117//81 103//80
f 106//82 94//70 80//59
f 94//70 105//83 81//63
f 107//84 95//71 105//83
f 115//85 101//78 102//79
f 102//79 116//87 281//86
f 117//81 281//86 119//88
f 118//89 117//81 119//88
f 123//90 105//83 106//82
f 124//91 107//84 123//90
f 112//92 127//94 111//93
f 112//92 126//95 127//94
f 119//88 134//97 133//96
f 119//88 132//98 134//97
f 136//99 122//101 137//100
f 253//102 140//104 141//103
f 283//105 282//107 131//106
f 134//97 146//108 133//96
f 134//97 147//109 146//108
f 149//110 136//99 137//100
f 141//103 155//112 153//111
f 141//103 140//104 155//112
f 147//109 284//114 158//113
f 160//115 149//110 150//116
f 160//115 150//116 162//117
f 149//110 163//119 138//118
f 160//115 163//119 149//110
f 160//115 161//120 163//119
f 154//121 155//112 166//122
f 157//123 168//125 287//124
f 148//126 171//128 159//127
f 161//120 160//115 162//117
f 161//120 174//129 163//119
f 174//129 161//120 261//130
f 180//131 245//133 246//132
f 183//134 169//136 181//135
f 183//134 170//137 169//136
f 274//138 171//128 201//139
f 261//130 161//120 172//140
f 172//140 185//142 188//141
f 261//130 188//141 187//143
f 190//144 256//146 177//145
f 190//144 192//147 256//146
f 190//144 193//148 192//147
f 197//149 196//151 288//150
f 199//152 183//134 184//153
f 201//139 171//128 1//154
f 185//142 186//156 202//155
f 185//142 202//155 188//141
f 193//148 194//157 11//9
f 210//158 209//159 288//150
f 211//160 200//161 199//152
f 211//160 199//152 212//162
f 214//6 204//163 202//155
f 214//6 202//155 3//5
f 215//164 275//166 213//165
f 275//166 241//167 18//13
f 215//164 241//167 275//166
f 213//165 216//18 212//162
f 211//160 216//18 19//168
f 217//169 16//171 14//170
f 217//169 218//172 16//171
f 219//173 48//175 29//174
f 219//173 221//176 48//175
f 59//177 243//178 221//176
f 221//176 222//179 59//177
f 72//180 60//181 222//179
f 87//182 73//184 223//183
f 87//182 223//183 224//185
f 99//186 87//182 224//185
f 225//187 113//189 100//188
f 156//190 228//192 229//191
f 231//193 232//195 179//194
f 207//196 195//198 233//197
f 234//199 14//170 208//200
f 234//199 217//169 14//170
f 14//170 240//16 241//167
f 240//16 16//171 17//15
f 242//27 16//171 15//201
f 242//27 17//15 16//171
f 242//27 29//174 32//26
f 50//38 243//178 49//40
f 61//202 49//40 243//178
f 61//202 59//177 60//181
f 74//203 60//181 76//204
f 76//204 72//180 73//184
f 73//184 87//182 76//204
f 89//65 76//204 87//182
f 99//186 100//188 88//77
f 113//189 102//79 100//188
f 128//205 129//206 131//106
f 143//207 142//209 144//208
f 244//210 145//211 142//209
f 244//210 142//209 156//190
f 157//123 156//190 167//212
f 178//213 179//194 246//132
f 179//194 196//151 246//132
f 198//214 179//194 195//198
f 195//198 207//196 198//214
f 207//196 210//158 198//214
f 210//158 207//196 208//200
f 215//164 210//158 208//200
f 215//164 208//200 241//167
f 247//215 217//169 12//11
f 218//172 247//215 248//24
f 247//215 13//12 248//24
f 27//23 220//216 248//24
f 45//35 219//173 27//23
f 45//35 46//36 221//176
f 221//176 249//46 222//179
f 222//179 250//53 72//180
f 223//183 72//180 250//53
f 85//217 223//183 250//53
f 223//183 85//217 224//185
f 85//217 86//73 224//185
f 224//185 86//73 251//74
f 110//218 226//219 251//74
f 127//94 252//220 111//93
f 252//220 226//219 111//93
f 20//17 21//14 33//222 35//221
f 252//220 127//94 253//102
f 141//103 228//192 227//223
f 154//121 230//224 229//191
f 230//224 154//121 254//225
f 255//226 254//225 177//145
f 256//146 191//227 232//195
f 191//227 233//197 232//195
f 257//228 234//199 233//197
f 9//229 7//4 258//21
f 24//20 235//230 258//21
f 258//21 235//230 9//229
f 42//231 40//31 41//232
f 43//233 41//232 56//234
f 56//234 236//236 57//235
f 236//236 56//234 68//237
f 82//238 236//236 68//237
f 82//238 68//237 259//62
f 259//62 96//239 82//238
f 108//240 96//239 95//71
f 124//91 125//242 238//241
f 260//243 238//241 125//242
f 260//243 125//242 138//118
f 138//118 139//244 260//243
f 164//245 174//129 175//246
f 188//141 189//248 239//247
f 189//248 188//141 204//163
f 214//6 205//249 204//163
f 6//1 203//2 262//250
f 23//19 6//1 263//251
f 265//252 55//44 264//45
f 55//44 265//252 266//60
f 80//59 266//60 267//253
f 106//82 267//253 268//254
f 267//253 106//82 80//59
f 122//101 106//82 268//254
f 122//101 268//254 269//255
f 270//256 137//100 122//101
f 150//116 137//100 271//257
f 203//2 186//156 273//258
f 186//156 274//138 273//258
f 273//258 262//250 203//2
f 22//259 262//250 2//260
f 6//1 22//259 263//251
f 36//261 263//251 22//259
f 263//251 36//261 264//45
f 265//252 264//45 53//262
f 265//252 53//262 266//60
f 104//263 268//254 267//253
f 269//255 268//254 104//263
f 104//263 120//264 269//255
f 270//256 269//255 120//264
f 135//265 271//257 270//256
f 271//257 135//265 148//126
f 272//266 148//126 159//127
f 274//138 272//266 171//128
f 274//138 186//156 272//266
f 274//138 201//139 273//258
f 1//154 273//258 201//139
f 273//258 1//154 262//250
f 18//13 216//18 275//166
f 30//25 21//14 17//15
f 30//25 33//222 21//14
f 33//222 30//25 31//267
f 31//267 276//39 33//222
f 276//39 278//48 52//42
f 64//50 277//268 75//66
f 279//67 90//269 64//50
f 75//66 279//67 64//50
f 132//98 281//86 130//270
f 283//105 134//97 132//98
f 283//105 284//114 134//97
f 283//105 285//271 284//114
f 287//124 158//113 286//272
f 184//153 197//149 288//150
f 288//150 212//162 184//153
f 209//159 212//162 288//150
f 212//162 209//159 213//165
f 36//261 22//259 65//273
f 135//265 120//264 104//263
f 135//265 171//128 148//126
f 93//274 65//273 135//265
f 135//265 1//154 171//128
f 290//275 10//10 289//8
f 26//33 290//275 235//230
f 235//230 44//32 26//33
f 44//32 42//231 43//233
f 291//276 44//32 43//233
f 291//276 47//37 44//32
f 291//276 43//233 57//235
f 71//55 292//277 84//76
f 293//278 292//277 96//239
f 294//279 126//95 109//280
f 294//279 140//104 126//95
f 294//279 260//243 139//244
f 152//281 294//279 139//244
f 139//244 151//282 152//281
f 165//283 152//281 151//282
f 165//283 151//282 295//284
f 295//284 164//245 175//246
f 296//285 239//247 189//248
f 194//157 296//285 189//248
f 194//157 189//248 205//249
f 289//8 194//157 205//249
f 289//8 205//249 8//286
f 205//249 214//6 8//286
f 298//287 20//17 34//288
f 298//287 310//290 297//289
f 63//291 299//292 51//41
f 63//291 300//293 299//292
f 77//57 301//294 300//293
f 77//57 91//68 301//294
f 302//295 91//68 103//80
f 91//68 302//295 301//294
f 304//296 302//295 118//89
f 118//89 302//295 103//80
f 302//295 304//296 303//297
f 304//296 118//89 133//96
f 146//108 305//298 304//296
f 306//299 146//108 147//109
f 182//300 306//299 170//137
f 307//301 306//299 182//300
f 200//161 308//302 307//301
f 309//303 200//161 211//160
f 200//161 309//303 308//302
f 309//303 211//160 19//168
f 311//304 299//292 300//293
f 311//304 298//287 299//292
f 300//293 312//305 311//304
f 303//297 312//305 302//295
f 302//295 312//305 301//294
f 303//297 316//306 312//305
f 305//298 303//297 304//296
f 313//307 305//298 306//299
f 313//307 306//299 314//308
f 314//308 315//309 313//307
f 314//308 307//301 308//302
f 314//308 308//302 315//309
f 315//309 308//302 310//290
f 313//307 316//306 305//298
f 312//305 316//306 311//304
f 311//304 316//306 315//309
f 4//3 3//5 203//2
f 7//4 3//5 5//7
f 7//4 5//7 258//21
f 10//10 12//11 11//9
f 247//215 12//11 13//12
f 240//16 18//13 241//167
f 20//17 19//168 216//18
f 5//7 4//3 23//19
f 5//7 23//19 25//22
f 23//19 39//29 25//22
f 28//34 10//10 26//33
f 28//34 13//12 10//10
f 27//23 13//12 28//34
f 30//25 17//15 242//27
f 30//25 32//26 31//267
f 266//60 67//61 66//51 55//44
f 35//221 34//288 20//17
f 37//28 40//31 25//22
f 40//31 37//28 41//232
f 46//36 28//34 44//32
f 46//36 45//35 28//34
f 31//267 32//26 50//38
f 50//38 276//39 31//267
f 35//221 33//222 276//39
f 34//288 35//221 51//41
f 276//39 51//41 35//221
f 264//45 38//30 39//29
f 264//45 54//43 38//30
f 41//232 37//28 54//43
f 54//43 56//234 41//232
f 61//202 278//48 49//40
f 62//49 51//41 52//42
f 62//49 63//291 51//41
f 65//273 53//262 36//261
f 53//262 65//273 266//60
f 68//237 56//234 66//51 67//61
f 56//234 54//43 66//51
f 278//48 61//202 74//203 277//268
f 69//52 58//47 70//54
f 75//66 277//268 74//203 76//204
f 112//92 111//93 110//218 109//280
f 77//57 63//291 62//49
f 79//58 67//61 266//60
f 67//61 79//58 81//63
f 67//61 259//62 68//237
f 84//76 83//64 71//55
f 85//217 250//53 70//54
f 83//64 85//217 70//54
f 85//217 83//64 86//73
f 89//65 75//66 76//204
f 279//67 88//77 280//310
f 89//65 88//77 279//67
f 90//269 78//56 64//50
f 280//310 92//69 90//269
f 90//269 92//69 78//56
f 97//72 83//64 84//76
f 84//76 293//278 98//75
f 101//78 280//310 88//77
f 103//80 91//68 92//69
f 94//70 106//82 105//83
f 95//71 81//63 105//83
f 98//75 293//278 109//280
f 110//218 251//74 98//75
f 110//218 98//75 109//280
f 121//311 125//242 124//91 123//90
f 102//79 281//86 115//85
f 118//89 103//80 117//81
f 122//101 121//311 123//90
f 106//82 122//101 123//90
f 107//84 105//83 123//90
f 285//271 283//105 144//208 145//211
f 238//241 108//240 237//312
f 112//92 109//280 126//95
f 130//270 281//86 116//87
f 131//106 130//270 116//87
f 131//106 282//107 130//270
f 132//98 119//88 281//86
f 133//96 118//89 119//88
f 122//101 136//99 121//311
f 125//242 121//311 136//99
f 125//242 136//99 138//118
f 140//104 127//94 126//95
f 253//102 127//94 140//104
f 283//105 131//106 144//208
f 147//109 158//113 169//136 170//137
f 137//100 150//116 149//110
f 149//110 138//118 136//99
f 153//111 155//112 154//121
f 152//281 155//112 140//104
f 285//271 145//211 244//210
f 244//210 286//272 285//271
f 244//210 157//123 286//272
f 284//114 147//109 134//97
f 155//112 152//281 165//283
f 154//121 166//122 254//225
f 165//283 166//122 155//112
f 173//313 172//140 161//120 162//117
f 186//156 185//142 172//140 173//313
f 166//122 165//283 295//284
f 176//314 254//225 166//122
f 254//225 176//314 177//145
f 295//284 176//314 166//122
f 287//124 168//125 245//133
f 180//131 287//124 245//133
f 182//300 170//137 183//134
f 183//134 181//135 184//153
f 295//284 296//285 190//144 176//314
f 261//130 172//140 188//141
f 194//157 193//148 190//144 296//285
f 190//144 177//145 176//314
f 256//146 192//147 191//227
f 180//131 246//132 196//151 197//149
f 219//173 29//174 15//201 220//216
f 196//151 198//214 288//150
f 200//161 183//134 199//152
f 186//156 203//2 202//155
f 188//141 202//155 204//163
f 192//147 206//315 257//228
f 192//147 193//148 206//315
f 210//158 288//150 198//214
f 209//159 210//158 213//165
f 199//152 184//153 212//162
f 3//5 202//155 203//2
f 11//9 206//315 193//148
f 11//9 12//11 206//315
f 215//164 213//165 210//158
f 211//160 212//162 216//18
f 218//172 15//201 16//171
f 220//216 15//201 218//172
f 225//187 100//188 99//186 224//185
f 221//176 243//178 48//175
f 222//179 60//181 59//177
f 73//184 72//180 223//183
f 114//316 226//219 252//220 128//205
f 226//219 113//189 225//187
f 226//219 114//316 113//189
f 252//220 227//223 143//207 129//206
f 252//220 129//206 128//205
f 167//212 230//224 255//226 178//213
f 143//207 227//223 142//209
f 142//209 227//223 228//192
f 142//209 228//192 156//190
f 230//224 156//190 229//191
f 156//190 230//224 167//212
f 231//193 179//194 178//213 255//226
f 235//230 24//20 40//31 42//231
f 179//194 232//195 195//198
f 195//198 232//195 233//197
f 233//197 208//200 207//196
f 234//199 208//200 233//197
f 16//171 240//16 14//170
f 15//201 29//174 242//27
f 50//38 29//174 48//175
f 50//38 32//26 29//174
f 48//175 243//178 50//38
f 61//202 243//178 59//177
f 74//203 61//202 60//181
f 60//181 72//180 76//204
f 89//65 87//182 88//77
f 99//186 88//77 87//182
f 88//77 100//188 102//79
f 102//79 114//316 116//87
f 113//189 114//316 102//79
f 128//205 116//87 114//316
f 131//106 116//87 128//205
f 144//208 129//206 143//207
f 144//208 131//106 129//206
f 145//211 144//208 142//209
f 156//190 157//123 244//210
f 157//123 167//212 168//125
f 245//133 167//212 178//213
f 245//133 168//125 167//212
f 178//213 246//132 245//133
f 196//151 179//194 198//214
f 14//170 241//167 208//200
f 247//215 218//172 217//169
f 220//216 218//172 248//24
f 27//23 219//173 220//216
f 219//173 45//35 221//176
f 221//176 46//36 249//46
f 222//179 249//46 69//52
f 69//52 250//53 222//179
f 224//185 251//74 225//187
f 86//73 97//72 251//74
f 226//219 225//187 251//74
f 110//218 111//93 226//219
f 227//223 252//220 253//102
f 253//102 141//103 227//223
f 153//111 228//192 141//103
f 153//111 229//191 228//192
f 153//111 154//121 229//191
f 255//226 230//224 254//225
f 255//226 177//145 231//193
f 231//193 177//145 256//146
f 256//146 232//195 231//193
f 191//227 257//228 233//197
f 192//147 257//228 191//227
f 257//228 217//169 234//199
f 206//315 12//11 257//228
f 257//228 12//11 217//169
f 7//4 8//286 214//6
f 8//286 7//4 9//229
f 175//246 261//130 187//143 239//247
f 42//231 41//232 43//233
f 43//233 56//234 57//235
f 95//71 96//239 259//62
f 107//84 108//240 95//71
f 108//240 107//84 237//312
f 124//91 237//312 107//84
f 237//312 124//91 238//241
f 139//244 138//118 151//282
f 163//119 151//282 138//118
f 151//282 163//119 164//245
f 174//129 164//245 163//119
f 174//129 261//130 175//246
f 162//117 150//116 271//257 272//266
f 188//141 239//247 187//143
f 39//29 23//19 263//251
f 39//29 263//251 264//45
f 122//101 269//255 270//256
f 271//257 137//100 270//256
f 93//274 267//253 266//60 65//273
f 272//266 173//313 162//117
f 186//156 173//313 272//266
f 262//250 1//154 2//260
f 6//1 262//250 22//259
f 264//45 36//261 53//262
f 64//50 52//42 278//48 277//268
f 104//263 267//253 93//274
f 120//264 135//265 270//256
f 148//126 272//266 271//257
f 171//128 272//266 159//127
f 236//236 71//55 291//276 57//235
f 279//67 280//310 90//269
f 92//69 280//310 101//78
f 101//78 117//81 92//69
f 101//78 115//85 117//81
f 281//86 117//81 115//85
f 282//107 132//98 130//270
f 132//98 282//107 283//105
f 286//272 284//114 285//271
f 286//272 158//113 284//114
f 287//124 286//272 157//123
f 169//136 158//113 287//124
f 181//135 169//136 287//124
f 181//135 287//124 180//131
f 184//153 181//135 197//149
f 197//149 181//135 180//131
f 216//18 213//165 275//166
f 1//154 22//259 2//260
f 104//263 93//274 135//265
f 22//259 135//265 65//273
f 1//154 135//265 22//259
f 289//8 8//286 9//229
f 289//8 9//229 290//275
f 290//275 9//229 235//230
f 26//33 10//10 290//275
f 42//231 44//32 235//230
f 47//37 291//276 58//47
f 58//47 291//276 71//55
f 82//238 292//277 71//55 236//236
f 175//246 239//247 296//285 295//284
f 96//239 292//277 82//238
f 292//277 293//278 84//76
f 108//240 293//278 96//239
f 293//278 108//240 294//279
f 294//279 108//240 238//241
f 109//280 293//278 294//279
f 260//243 294//279 238//241
f 152//281 140//104 294//279
f 164//245 295//284 151//282
f 11//9 194//157 289//8
f 205//249 189//248 204//163
f 297//289 19//168 20//17
f 309//303 19//168 297//289
f 297//289 20//17 298//287
f 299//292 34//288 51//41
f 298//287 34//288 299//292
f 77//57 300//293 63//291
f 304//296 133//96 146//108
f 306//299 305//298 146//108
f 306//299 147//109 170//137
f 182//300 183//134 200//161
f 307//301 182//300 200//161
f 297//289 308//302 309//303
f 310//290 308//302 297//289
f 310//290 298//287 311//304
f 310//290 311//304 315//309
f 300//293 301//294 312//305
f 314//308 306//299 307//301
f 315//309 316//306 313//307
f 303//297 305//298 316//306
