# Blender 5.2.0 LTS
# www.blender.org
mtllib magnifier-edited.mtl
o magnifier
v 0.078225 0.089548 0.117085
v 0.088292 0.080363 0.084164
v 0.079276 0.081157 0.084164
v 0.073470 0.085792 0.117085
v 0.038450 0.111796 0.117085
v 0.042523 0.103648 0.084164
v 0.050103 0.107379 0.084164
v 0.035398 0.106523 0.117085
v 0.006694 0.117445 0.084164
v -0.000250 0.111973 0.084164
v -0.013117 0.117296 0.117085
v 0.000226 0.111339 0.117085
v -0.056072 0.104133 0.117085
v -0.035376 0.106465 0.117085
v -0.039078 0.111659 0.084164
v -0.052838 0.099893 0.084164
v -0.083381 0.078265 0.117085
v -0.091632 0.077310 0.117085
v -0.077878 0.089832 0.084164
v -0.090199 0.069176 0.084164
v -0.117525 0.032227 0.117085
v -0.103632 0.060929 0.084164
v -0.120687 0.020452 0.084164
v -0.111498 0.031297 0.084164
v -0.113891 0.024876 0.117085
v -0.123025 -0.010284 0.117085
v -0.122137 -0.018444 0.084164
v -0.116462 -0.023323 0.084164
v -0.115036 -0.049198 0.117085
v -0.114357 -0.031950 0.117085
v -0.114804 -0.050271 0.084164
v -0.096640 -0.081768 0.117085
v -0.096277 -0.072791 0.084164
v -0.092664 -0.077483 0.117085
v -0.082601 -0.097455 0.084164
v -0.068172 -0.108051 0.117085
v -0.063852 -0.103764 0.084164
v -0.056560 -0.108540 0.117085
v -0.046549 -0.119458 0.084164
v -0.037567 -0.122507 0.117085
v -0.028968 -0.118981 0.084164
v 0.000279 -0.129045 0.117085
v -0.000127 -0.129113 0.084164
v -0.004612 -0.123344 0.117085
v 0.013951 -0.122229 0.084164
v 0.042843 -0.120977 0.117085
v 0.053237 -0.109906 0.084164
v 0.048838 -0.112381 0.117085
v 0.045477 -0.119997 0.084164
v 0.073052 -0.104452 0.117085
v 0.083388 -0.096552 0.084164
v 0.108038 -0.065587 0.117085
v 0.086856 -0.084779 0.084164
v 0.106679 -0.066598 0.084164
v 0.112959 -0.037895 0.084164
v 0.094016 -0.076888 0.117085
v 0.111229 -0.041604 0.117085
v 0.121555 -0.025361 0.117085
v 0.121447 -0.027729 0.084164
v 0.121063 0.019503 0.117085
v 0.117095 -0.011252 0.117085
v 0.120718 0.020803 0.084164
v 0.117106 0.005550 0.084164
v 0.114362 0.018839 0.117085
v 0.103739 0.061020 0.117085
v 0.101703 0.053375 0.117085
v 0.106166 0.056404 0.084164
v 0.104536 0.047511 0.084164
v -0.079918 -0.096872 0.113420
v -0.088893 -0.087898 0.115087
v -0.094830 -0.081960 0.108548
v -0.077053 -0.099737 0.091845
v -0.077054 -0.099736 0.091845
v -0.076973 -0.099817 0.092004
v -0.077135 -0.099655 0.091688
v -0.084307 -0.092483 0.115500
v -0.076166 -0.100624 0.107652
v -0.074926 -0.101864 0.100323
v -0.076018 -0.100772 0.094149
v -0.079160 -0.097630 0.088565
v -0.083019 -0.093771 0.086063
v -0.087372 -0.089418 0.085731
v -0.093001 -0.083789 0.089561
v -0.096209 -0.080581 0.098399
v -0.108753 -0.093811 0.103809
v -0.105827 -0.094935 0.109896
v -0.102166 -0.099631 0.114454
v -0.095228 -0.105549 0.115322
v -0.088358 -0.113763 0.105426
v -0.087321 -0.113932 0.099841
v -0.090460 -0.110933 0.090070
v -0.095090 -0.106608 0.086463
v -0.099149 -0.102548 0.085851
v -0.103752 -0.095993 0.088847
v -0.121446 -0.109002 0.104059
v -0.119872 -0.112135 0.110124
v -0.108660 -0.102451 0.110756
v -0.105753 -0.107158 0.113238
v -0.110439 -0.120054 0.113420
v -0.092958 -0.116083 0.105832
v -0.103752 -0.128403 0.100312
v -0.093609 -0.117646 0.100613
v -0.093310 -0.116300 0.095550
v -0.102330 -0.106632 0.087223
v -0.117778 -0.112386 0.089852
v -0.107110 -0.102627 0.089331
v -0.110086 -0.100198 0.093308
v -0.121614 -0.109127 0.097072
v -0.111403 -0.098040 0.099263
v -0.127906 -0.112452 0.099146
v -0.127268 -0.112623 0.104944
v -0.129129 -0.116784 0.108581
v -0.124537 -0.116283 0.111951
v -0.120385 -0.126132 0.115615
v -0.114238 -0.126188 0.114871
v -0.111009 -0.129765 0.112346
v -0.205506 -0.226966 0.110479
v -0.107408 -0.132652 0.106451
v -0.106818 -0.133593 0.099819
v -0.108003 -0.132507 0.093828
v -0.114343 -0.126374 0.086258
v -0.119253 -0.121507 0.085887
v -0.129475 -0.118883 0.090938
v -0.126901 -0.113268 0.094417
v -0.215046 -0.217412 0.115486
v -0.218819 -0.207565 0.109822
v -0.120009 -0.119973 0.115046
v -0.220043 -0.213342 0.112825
v -0.203869 -0.228327 0.093641
v -0.223846 -0.208240 0.099157
v -0.223713 -0.209106 0.104993
v -0.211043 -0.221346 0.115174
v -0.207615 -0.224675 0.113185
v -0.203164 -0.228650 0.105925
v -0.212006 -0.220599 0.085742
v -0.215366 -0.214880 0.086244
v -0.220175 -0.212202 0.089060
v -0.222708 -0.209891 0.093397
v -0.226513 -0.214308 0.104285
v -0.232685 -0.224821 0.109648
v -0.220292 -0.220400 0.113099
v -0.216766 -0.224855 0.113525
v -0.228733 -0.228982 0.113354
v -0.223826 -0.234200 0.113415
v -0.213110 -0.228822 0.111408
v -0.210823 -0.231361 0.107895
v -0.208650 -0.232414 0.103047
v -0.209787 -0.232390 0.095743
v -0.217473 -0.240318 0.095402
v -0.214488 -0.226690 0.088403
v -0.225583 -0.230399 0.087747
v -0.230499 -0.220452 0.094034
v -0.224304 -0.217158 0.091002
v -0.226823 -0.214087 0.098434
v -0.237645 -0.224437 0.107492
v -0.241994 -0.226835 0.104604
v -0.238665 -0.230161 0.111995
v -0.231693 -0.229598 0.114533
v -0.230648 -0.238181 0.115722
v -0.225032 -0.236401 0.114817
v -0.220288 -0.241472 0.110773
v -0.217536 -0.244447 0.100022
v -0.221014 -0.247815 0.097995
v -0.223346 -0.237671 0.087368
v -0.224211 -0.244617 0.089725
v -0.229514 -0.239314 0.085802
v -0.227799 -0.234089 0.085783
v -0.234736 -0.234092 0.086239
v -0.237498 -0.224211 0.094235
v -0.238694 -0.223171 0.101148
v -0.241903 -0.226926 0.096902
v -0.219541 -0.242333 0.091903
v -0.235427 -0.233401 0.114624
v -0.225842 -0.242986 0.113322
v -0.221969 -0.246859 0.107148
v -0.239428 -0.229400 0.090136
v -0.107868 -0.093473 0.095768
v -0.097922 -0.113573 0.089395
v -0.088181 -0.113729 0.095947
v -0.090819 -0.110928 0.111284
v -0.096990 -0.113282 0.111544
v -0.100488 -0.109305 0.113663
v -0.111077 -0.099916 0.106198
v -0.115687 -0.116613 0.113821
v -0.107144 -0.123432 0.111554
v -0.104285 -0.126279 0.107017
v -0.104954 -0.125144 0.092286
v -0.109862 -0.130078 0.089869
v -0.109758 -0.120825 0.088013
v -0.113485 -0.117421 0.087467
v -0.122591 -0.117718 0.087572
v -0.219489 -0.221615 0.087817
v -0.206973 -0.225430 0.088714
v -0.211471 -0.229446 0.091036
v -0.202806 -0.229584 0.100143
v -0.224000 -0.216661 0.110151
v -0.235498 -0.222432 0.098821
v -0.235070 -0.222961 0.104942
v -0.220420 -0.238129 0.111008
v -0.217039 -0.241012 0.104020
v -0.222683 -0.235514 0.088397
v -0.233008 -0.228060 0.087772
v -0.230070 -0.228086 0.088494
v -0.233555 -0.224936 0.091704
v 0.069979 0.090704 0.102388
v 0.096474 0.065150 0.097778
v 0.080231 0.073205 0.097778
v 0.079009 0.074512 0.102870
v 0.092885 0.069359 0.102870
v 0.048438 0.103140 0.100324
v 0.051973 0.094128 0.097778
v 0.050409 0.094992 0.102870
v 0.012013 0.113410 0.102870
v 0.012903 0.113424 0.097778
v 0.016634 0.105610 0.102870
v 0.018409 0.105389 0.097778
v -0.042215 0.106842 0.102870
v -0.024246 0.104549 0.102870
v -0.037126 0.108110 0.097778
v -0.022820 0.104919 0.097778
v -0.069945 0.090648 0.097778
v -0.062000 0.088153 0.102870
v -0.088945 0.074478 0.102870
v -0.060533 0.089177 0.097778
v -0.092122 0.070135 0.097778
v -0.086882 0.065725 0.097778
v -0.088103 0.064185 0.102870
v -0.108584 0.042932 0.102870
v -0.113818 0.031188 0.097778
v -0.102382 0.040150 0.097778
v -0.118810 0.007935 0.102870
v -0.105429 0.033396 0.102870
v -0.112011 0.005145 0.097778
v -0.118907 -0.005633 0.097778
v -0.112311 -0.000111 0.102870
v -0.115346 -0.035349 0.102870
v -0.107099 -0.040596 0.102870
v -0.113604 -0.042583 0.097778
v -0.107290 -0.040208 0.097778
v -0.102881 -0.065171 0.102870
v -0.083091 -0.081758 0.102870
v -0.080876 -0.093633 0.102870
v -0.087716 -0.086746 0.097778
v -0.084555 -0.080032 0.097778
v -0.054245 -0.111702 0.097778
v -0.055697 -0.102863 0.097778
v -0.023160 -0.115896 0.097778
v -0.040471 -0.111240 0.102870
v -0.011177 -0.124602 0.097778
v -0.030665 -0.121558 0.102870
v 0.011390 -0.117126 0.097778
v 0.024095 -0.122040 0.097778
v 0.018431 -0.117238 0.102870
v 0.031344 -0.121510 0.102870
v 0.060755 -0.108662 0.097778
v 0.045269 -0.108844 0.097778
v 0.066243 -0.096879 0.102870
v 0.075459 -0.097996 0.102870
v 0.096573 -0.075075 0.102870
v 0.098048 -0.074001 0.097778
v 0.087550 -0.077374 0.097778
v 0.113687 -0.042666 0.102870
v 0.094615 -0.066355 0.102870
v 0.108398 -0.035614 0.097778
v 0.109001 -0.032957 0.102870
v 0.115371 -0.035887 0.097778
v 0.119123 -0.000573 0.102360
v 0.112312 0.005511 0.102870
v 0.112109 0.006882 0.097778
v 0.111283 0.037456 0.102870
v 0.114965 0.026145 0.097778
v 0.100775 0.044318 0.097778
v 0.099633 0.046618 0.102870
v -0.070438 -0.094924 0.108146
v 0.031665 0.102921 0.106771
v 0.077250 0.078820 0.108107
v -0.025179 -0.116093 0.106455
v 0.033319 -0.114749 0.103442
v -0.021161 0.106461 0.104073
v 0.107035 0.032186 0.106955
v 0.112007 -0.019094 0.104462
v 0.094606 -0.066905 0.102464
v 0.078928 -0.085955 0.099512
v -0.105119 -0.049125 0.107191
v -0.112588 0.004185 0.104569
v -0.100758 0.044176 0.101054
v -0.050863 0.094754 0.097672
v -0.011435 0.106943 0.095974
v 0.023793 0.104622 0.094300
v 0.075690 0.078315 0.092773
v 0.094973 0.056094 0.092976
v 0.109214 0.023950 0.094091
v 0.106931 -0.040869 0.097080
v 0.023296 -0.115703 0.096547
v -0.011933 -0.118259 0.094838
v -0.094780 -0.067241 0.093031
v -0.109001 -0.035058 0.094144
v -0.112425 0.005969 0.096059
v -0.083166 0.070631 0.099921
v 0.112744 -0.004327 0.095437
v 0.051719 -0.105779 0.097694
v 0.051507 0.095179 0.093175
v -0.071125 -0.093546 0.092717
v -0.045638 -0.108753 0.093344
vn -0.4471 -0.4893 -0.7488
vn 0.3079 0.6757 -0.6698
vn 0.5185 0.5213 -0.6777
vn 0.4606 0.5765 0.6749
vn -0.4140 -0.5245 0.7440
vn -0.2479 -0.6212 -0.7434
vn 0.2231 0.7068 0.6713
vn -0.2019 -0.6305 0.7494
vn 0.0452 0.7397 -0.6714
vn 0.0062 -0.6615 -0.7499
vn -0.0731 0.7399 0.6687
vn -0.0009 -0.6808 0.7325
vn 0.1995 -0.6291 0.7513
vn 0.2911 -0.5811 -0.7599
vn -0.2342 0.7044 -0.6700
vn -0.3394 0.6545 0.6756
vn 0.4600 -0.4492 0.7659
vn -0.4594 0.5751 -0.6769
vn -0.5539 0.4928 0.6711
vn 0.5239 -0.4053 -0.7492
vn -0.6283 0.3913 -0.6724
vn 0.6185 -0.2129 -0.7564
vn -0.7019 0.2368 0.6718
vn 0.6216 -0.1664 0.7654
vn -0.7240 0.1539 -0.6724
vn -0.7368 -0.0296 0.6755
vn 0.6399 0.0908 -0.7631
vn -0.7277 -0.0784 -0.6813
vn -0.6879 -0.2598 0.6777
vn -0.6829 -0.2832 -0.6734
vn 0.5437 0.3676 -0.7545
vn 0.6389 0.1524 0.7540
vn -0.5923 -0.4515 0.6673
vn -0.5063 -0.5432 -0.6698
vn -0.4046 -0.6125 0.6790
vn 0.3756 0.5525 -0.7441
vn 0.5221 0.4040 0.7511
vn -0.2702 -0.6846 -0.6770
vn -0.2132 -0.7031 0.6784
vn 0.3168 0.5792 0.7511
vn 0.0272 0.6537 0.7563
vn 0.0008 -0.7441 -0.6680
vn 0.1674 0.6455 -0.7452
vn 0.2454 -0.6967 0.6741
vn 0.0071 -0.7425 0.6698
vn -0.0872 0.6540 -0.7515
vn -0.2785 0.5954 0.7536
vn -0.3130 0.5881 -0.7458
vn 0.2677 -0.6887 -0.6738
vn 0.4444 -0.5867 0.6769
vn -0.4791 0.4467 -0.7556
vn 0.5070 -0.5490 -0.6645
vn 0.6488 -0.3671 0.6665
vn -0.6345 0.1937 -0.7483
vn 0.6354 -0.3608 -0.6827
vn 0.7332 -0.1273 -0.6679
vn -0.6424 0.2220 0.7335
vn -0.5124 0.3945 0.7628
vn 0.7304 -0.1097 0.6741
vn -0.6746 0.0386 0.7372
vn -0.6621 -0.0670 -0.7465
vn 0.7312 0.1478 0.6660
vn -0.6610 -0.1559 0.7340
vn -0.6000 -0.3000 -0.7417
vn -0.5717 -0.3373 0.7479
vn 0.7283 0.1541 -0.6677
vn 0.6270 0.3885 0.6752
vn 0.6422 0.3524 -0.6808
vn 0.3605 0.5651 -0.7421
vn 0.2678 0.6431 0.7175
vn 0.9549 -0.0071 -0.2969
vn 0.0813 0.8318 -0.5490
vn -0.0766 0.9910 -0.1096
vn 0.5338 0.4088 0.7402
vn 0.7554 0.1739 0.6317
vn 0.9351 -0.0077 0.3542
vn 0.9978 -0.0657 -0.0045
vn 0.3269 0.6918 -0.6438
vn -0.4581 -0.5557 -0.6938
vn -0.6408 -0.4346 -0.6328
vn 0.9062 0.1143 -0.4071
vn 0.9131 0.0681 -0.4020
vn -0.6157 0.5272 0.5857
vn 0.3614 0.6664 0.6521
vn 0.7100 0.7042 -0.0029
vn 0.7072 0.7070 -0.0000
vn 0.1029 0.7480 -0.6557
vn -0.7530 -0.1370 -0.6436
vn 0.4620 0.5230 -0.7163
vn 0.1317 -0.7311 -0.6694
vn 0.0122 -0.7920 -0.6104
vn 0.7902 -0.3065 -0.5308
vn 0.7456 0.1358 -0.6523
vn 0.7970 0.0416 -0.6025
vn 0.6515 0.4075 -0.6398
vn -0.7248 0.6885 -0.0242
vn -0.7480 0.1167 -0.6533
vn -0.8398 0.5174 0.1645
vn 0.7607 -0.5158 0.3941
vn 0.6452 -0.7418 -0.1827
vn 0.7688 -0.1231 0.6275
vn -0.7435 0.0831 0.6636
vn -0.7095 -0.2721 0.6500
vn -0.4630 -0.5917 0.6599
vn -0.2978 -0.6919 -0.6577
vn -0.1583 -0.7518 0.6401
vn 0.2885 -0.7859 0.5469
vn 0.4925 -0.6771 -0.5468
vn 0.7093 0.2397 0.6629
vn 0.5054 0.5658 0.6515
vn 0.1668 0.7308 0.6619
vn -0.2216 0.8030 0.5533
vn -0.0327 0.7788 -0.6264
vn -0.5353 0.7419 -0.4037
vn -0.5764 -0.3199 0.7519
vn -0.4896 -0.4583 -0.7418
vn -0.6035 -0.2633 -0.7527
vn 0.6422 0.4364 -0.6302
vn 0.7757 0.1677 -0.6085
vn -0.6198 -0.0472 0.7833
vn -0.4381 -0.1540 -0.8857
vn 0.9617 0.0341 0.2719
vn 0.7347 0.3226 0.5967
vn 0.7382 -0.2838 0.6120
vn -0.6496 0.1297 0.7491
vn -0.6239 0.1924 -0.7575
vn 0.7514 -0.1359 -0.6457
vn -0.5308 0.2866 0.7976
vn -0.4025 0.3552 -0.8437
vn 0.6431 -0.4304 -0.6334
vn 0.5584 -0.4176 0.7168
vn 0.5564 -0.6236 0.5492
vn -0.2955 0.4024 0.8664
vn -0.2024 0.4659 -0.8614
vn 0.2422 -0.7917 0.5609
vn 0.4120 -0.7420 -0.5288
vn -0.1073 0.5610 0.8208
vn -0.0134 0.6916 -0.7221
vn 0.0897 -0.7043 -0.7042
vn -0.0202 -0.8702 -0.4923
vn -0.2365 -0.8226 0.5171
vn 0.0634 0.4978 -0.8650
vn 0.2028 0.5131 0.8340
vn -0.4133 -0.7572 -0.5058
vn -0.5001 -0.6223 0.6022
vn 0.4679 0.4510 0.7601
vn 0.3199 0.4811 -0.8162
vn 0.5145 0.4034 -0.7567
vn -0.7203 -0.4214 0.5510
vn 0.6247 0.2169 0.7501
vn 0.6213 0.2004 -0.7575
vn -0.7425 -0.1412 0.6548
vn -0.7362 -0.2731 -0.6192
vn -0.8090 0.0989 0.5794
vn 0.6367 0.0185 0.7709
vn 0.6371 -0.0837 -0.7662
vn -0.7820 -0.0453 -0.6217
vn -0.7766 0.2421 -0.5816
vn 0.5852 -0.2953 -0.7552
vn -0.6918 0.3631 0.6242
vn 0.5894 -0.1904 0.7850
vn -0.5598 0.5406 0.6280
vn 0.5327 -0.4062 0.7425
vn 0.5001 -0.4388 -0.7466
vn -0.6017 0.4287 -0.6740
vn -0.3083 0.7312 0.6086
vn 0.3793 -0.5506 0.7437
vn 0.3349 -0.5664 -0.7530
vn -0.4852 0.6953 -0.5303
vn -0.1515 0.7456 -0.6489
vn 0.1600 -0.6420 0.7499
vn 0.1150 -0.6421 -0.7580
vn 0.0535 0.7381 0.6725
vn 0.0788 0.7490 -0.6578
vn -0.0312 -0.6421 0.7660
vn -0.1191 -0.6497 -0.7508
vn -0.2583 -0.4621 0.8484
vn -0.1848 -0.4354 -0.8811
vn 0.4100 0.9120 0.0131
vn 0.5330 0.8052 0.2600
vn -0.4498 -0.4666 0.7616
vn 0.5508 0.5135 0.6579
vn -0.1066 0.5729 -0.8127
vn -0.3405 0.7069 -0.6200
vn -0.0202 0.5294 -0.8481
vn 0.1193 0.1454 -0.9821
vn 0.2181 0.2172 -0.9514
vn 0.1889 0.1560 -0.9695
vn 0.4533 -0.1173 -0.8836
vn 0.7578 -0.3159 -0.5710
vn 0.8196 -0.4381 -0.3693
vn 0.8805 -0.4740 -0.0106
vn 0.7215 -0.3007 0.6238
vn 0.8091 -0.5260 0.2621
vn 0.6405 -0.2130 0.7378
vn 0.3938 0.0402 0.9183
vn -0.0332 0.4610 0.8868
vn 0.0297 0.3672 0.9297
vn -0.3480 0.6368 0.6881
vn -0.4112 0.7746 0.4805
vn -0.4363 0.8453 0.3085
vn -0.4855 0.8739 0.0241
vn -0.4783 0.8646 -0.1540
vn -0.7660 0.5682 0.3006
vn -0.7846 0.5299 0.3219
vn -0.7957 0.5754 -0.1892
vn -0.5518 0.2501 0.7956
vn -0.6008 0.5354 0.5936
vn 0.4913 -0.6657 0.5617
vn 0.2674 -0.4759 0.8379
vn 0.2988 -0.4750 0.8277
vn 0.4169 -0.6391 0.6463
vn 0.5639 -0.7492 0.3475
vn 0.5679 -0.8073 0.1605
vn 0.5954 -0.8023 -0.0414
vn 0.5528 -0.7505 -0.3622
vn 0.5160 -0.7194 -0.4650
vn 0.3790 -0.5987 -0.7056
vn 0.3179 -0.5235 -0.7905
vn 0.1225 -0.3414 -0.9319
vn -0.0077 -0.2086 -0.9780
vn -0.5794 0.3821 -0.7199
vn -0.5384 0.3298 -0.7754
vn -0.2349 0.0293 -0.9716
vn -0.5227 0.7201 -0.4563
vn -0.3433 0.5040 -0.7926
vn -0.2629 0.4584 -0.8489
vn -0.0124 0.1841 -0.9828
vn 0.3010 -0.1267 -0.9452
vn 0.6441 -0.4575 -0.6131
vn 0.5589 -0.3681 -0.7430
vn 0.7230 -0.5436 -0.4264
vn 0.8082 -0.5877 -0.0387
vn 0.7946 -0.6052 -0.0478
vn 0.6903 -0.5391 0.4826
vn 0.2225 -0.0482 0.9737
vn -0.0592 0.2697 0.9611
vn -0.0806 0.2830 0.9557
vn 0.2841 -0.0986 0.9537
vn 0.0369 0.0143 0.9992
vn -0.3658 0.5549 0.7472
vn -0.5682 0.6246 0.5357
vn -0.5633 0.7669 0.3075
vn -0.4045 0.5957 0.6939
vn -0.5905 0.7629 0.2632
vn -0.6148 0.7845 -0.0813
vn -0.7264 0.5434 0.4207
vn -0.7894 0.5794 0.2026
vn -0.8020 0.5896 -0.0954
vn -0.3455 0.1733 0.9223
vn -0.6183 0.4667 0.6323
vn -0.5392 0.3592 0.7617
vn -0.2093 0.0976 0.9730
vn 0.5585 -0.7569 0.3394
vn 0.3897 -0.5834 0.7126
vn 0.5204 -0.7479 0.4121
vn 0.6147 -0.7880 -0.0352
vn 0.6096 -0.7922 -0.0291
vn 0.5220 -0.7489 -0.4082
vn 0.5374 -0.7676 -0.3492
vn -0.1552 -0.0870 -0.9840
vn -0.1881 -0.0055 -0.9821
vn 0.1099 -0.3008 -0.9473
vn -0.4003 -0.4789 0.7813
vn -0.6076 -0.2999 -0.7355
vn 0.0804 -0.9436 0.3212
vn -0.0093 0.9141 0.4053
vn 0.3958 -0.6023 -0.6932
vn 0.8846 0.0953 -0.4566
vn -0.7012 -0.7130 -0.0025
vn 0.7786 0.1572 -0.6075
vn 0.0539 -0.2360 0.9703
vn 0.5970 0.3427 -0.7253
vn -0.5120 0.3611 -0.7794
vn -0.7500 0.5729 -0.3307
vn -0.0006 -0.2059 0.9786
vn 0.3179 -0.4989 0.8063
vn 0.4954 -0.3197 0.8077
vn 0.2911 -0.4542 -0.8420
vn 0.3219 -0.1194 -0.9392
vn 0.0273 0.1688 -0.9853
vn -0.4577 0.2758 -0.8453
vn -0.6726 0.4966 -0.5486
vn -0.5716 0.7675 -0.2903
vn 0.5332 -0.3736 0.7590
vn -0.2762 0.1231 -0.9532
vn -0.5130 0.5535 -0.6561
vn -0.7250 0.5043 -0.4691
vn 0.7464 -0.5416 0.3867
vn -0.2285 0.0150 0.9734
vn 0.0606 -0.2596 0.9638
vn -0.5869 0.4108 0.6977
vn -0.0055 -0.2017 0.9794
vn -0.3245 0.1268 0.9373
vn 0.3547 0.0559 0.9333
vn -0.9767 0.0662 0.2039
vn -0.8134 -0.0588 0.5788
vn -0.6457 -0.2932 0.7050
vn -0.3360 -0.5702 -0.7496
vn -0.8430 -0.0340 -0.5368
vn -0.3865 0.8204 -0.4213
vn -0.9802 0.0588 -0.1888
vn -0.1590 -0.7454 0.6474
vn 0.0852 -0.9854 -0.1471
vn -0.0791 -0.8226 -0.5631
vn -0.6041 -0.5016 -0.6193
vn -0.6131 0.6531 -0.4445
vn -0.7969 0.5961 -0.0978
vt 0.500000 0.011548
vt 0.250000 0.058592
vt 0.296464 0.004672
vt 0.000000 0.015504
vt 0.749999 0.017224
vt 0.500000 0.065975
vt 1.000000 0.074666
vt 0.750000 0.076383
vt 0.250000 0.116431
vt -0.000000 0.074666
vt 0.499999 0.125416
vt 0.000000 0.142013
vt 0.750001 0.124767
vt 1.000000 0.142013
vt 0.750000 0.173755
vt 0.500000 0.199053
vt 0.250000 0.176299
vt 1.000000 0.200269
vt 0.750000 0.249678
vt 0.250000 0.234026
vt -0.000000 0.258044
vt 0.000000 0.200269
vt 1.000000 0.258044
vt 0.500000 0.264958
vt 0.250000 0.284261
vt 0.500000 0.324235
vt 1.000000 0.325541
vt 0.750000 0.333441
vt 0.250000 0.341261
vt 0.000000 0.381146
vt 0.000000 0.325541
vt 0.500000 0.399147
vt 0.250000 0.391731
vt 0.000000 0.432716
vt 0.250000 0.434096
vt 0.500000 0.471985
vt 0.750000 0.411115
vt 0.000000 0.481261
vt 0.250000 0.508431
vt -0.000000 0.531551
vt 0.500000 0.533183
vt 0.750000 0.480047
vt 0.250000 0.563203
vt 0.000000 0.575471
vt 1.000000 0.531551
vt 1.000000 0.575471
vt 0.750000 0.545036
vt 0.750000 0.618658
vt 0.250000 0.624763
vt 0.500000 0.585127
vt 0.000000 0.681502
vt -0.000000 0.625291
vt 1.000000 0.625291
vt 1.000000 0.681502
vt 0.500000 0.643885
vt 0.750000 0.693184
vt 0.500000 0.699990
vt 0.250000 0.685116
vt 0.000000 0.726188
vt 1.000000 0.726188
vt 0.500000 0.757227
vt 0.250000 0.743008
vt 0.000000 0.794251
vt 0.500001 0.830610
vt 0.250000 0.792214
vt 0.250000 0.846250
vt 1.000000 0.794251
vt 0.750000 0.825075
vt 0.750000 0.771705
vt 1.000000 0.849272
vt 0.750000 0.867221
vt 0.500000 0.890034
vt 0.000000 0.907465
vt 0.000000 0.849272
vt 1.000000 0.907465
vt 0.750000 0.908458
vt 0.500000 0.949757
vt 0.750000 0.958592
vt 0.250000 0.909205
vt 0.000000 0.965841
vt 0.250000 0.959116
vt 0.250001 0.993197
vt 0.500000 0.991493
vt 0.000000 1.000000
vt 1.000000 0.965841
vt 0.750000 1.000000
vt 0.588217 0.013982
vt 0.650263 0.967609
vt 0.055525 0.278890
vt 0.835382 0.143834
vt 0.985588 0.428897
vt 0.441152 0.993945
vt 0.234391 0.914600
vt 0.066459 0.737169
vt 0.006248 0.490177
vt 0.949648 1.000105
vt 0.483055 1.000007
vt 0.533486 0.999864
vt 0.096200 0.206600
vt 0.092400 0.211900
vt 0.100100 0.201400
vt 0.908204 1.000215
vt 0.583474 0.999764
vt 0.983300 1.000021
vt 0.341581 1.000374
vt 0.391558 1.000257
vt 0.176088 0.999734
vt 0.083427 0.999764
vt 0.123673 0.999793
vt 0.033429 0.999864
vt 0.743695 0.844746
vt 0.641773 0.999697
vt 0.698918 0.493427
vt 0.216779 0.000080
vt 0.251139 0.392232
vt 0.144559 0.000273
vt 0.639350 0.000000
vt 0.562896 0.000000
vt 0.481992 0.000000
vt 0.441147 1.000126
vt 0.411675 0.000000
vt 0.327557 0.000000
vt 0.299080 1.000346
vt 0.073548 0.000000
vt 0.272961 0.000000
vt 0.972991 0.000000
vt 0.919482 0.000000
vt 0.844603 0.000000
vt 0.858259 1.000337
vt 0.799894 1.000360
vt 0.750000 0.951785
vt 0.499999 0.993959
vt 0.499999 0.948160
vt 0.250000 0.975689
vt 0.250000 0.917809
vt 0.750000 0.890617
vt 0.500000 0.892585
vt 1.000000 0.883138
vt 1.000000 0.933691
vt 1.000000 0.824739
vt 0.750000 0.835750
vt 0.500000 0.831918
vt 0.250000 0.834030
vt 0.038979 0.881957
vt 0.000000 0.824739
vt 0.750000 0.784022
vt 0.500000 0.765631
vt 0.250000 0.777959
vt 1.000000 0.775635
vt 1.000000 0.733875
vt 0.750000 0.724799
vt 0.500000 0.690662
vt 1.000000 0.666883
vt 0.250000 0.709669
vt -0.000000 0.733875
vt 0.000000 0.666883
vt 0.750000 0.650905
vt 0.500000 0.641093
vt 0.250000 0.657401
vt 0.250000 0.610030
vt 1.000000 0.583762
vt 0.500000 0.592013
vt 0.750000 0.566674
vt 0.250000 0.549768
vt -0.000000 0.583762
vt -0.000000 0.506722
vt 0.750000 0.493102
vt 0.500000 0.542192
vt 0.500000 0.489894
vt 1.000000 0.458586
vt 1.000000 0.506722
vt 0.750000 0.425325
vt 0.500000 0.424719
vt 1.000000 0.415246
vt 0.250000 0.425146
vt 0.000000 0.458586
vt 0.000000 0.415246
vt 1.000000 0.357019
vt 0.750000 0.367299
vt 0.500000 0.359877
vt 0.250000 0.375126
vt 0.000000 0.357019
vt 0.250000 0.325347
vt 0.500000 0.308245
vt 0.000000 0.308226
vt 1.000000 0.308226
vt 0.750000 0.318711
vt 1.000000 0.258449
vt 0.750000 0.268489
vt 0.500000 0.265730
vt 0.250000 0.265610
vt -0.000000 0.258449
vt 1.000000 0.182310
vt 0.750000 0.218095
vt 0.500000 0.215585
vt 0.250000 0.225125
vt -0.000000 0.182310
vt 0.250000 0.175323
vt 0.750000 0.159573
vt 0.500000 0.157490
vt 1.000000 0.109052
vt 0.250000 0.107863
vt 0.750000 0.101427
vt 0.500000 0.098913
vt 0.750000 0.051086
vt 0.500000 0.048575
vt 1.000000 0.058635
vt 0.027309 0.024423
vt 0.125000 0.058355
vt 0.750000 0.006228
vt 1.000000 0.024295
vt 0.499999 0.007228
vt 0.250000 0.000000
vt 0.000000 0.000000
vt 0.835149 0.082640
vt 0.887140 0.107709
vt 0.820425 0.108704
vt 0.755928 0.118911
vt 0.687206 0.110961
vt 0.744602 0.076641
vt 0.674872 0.073723
vt 0.597774 0.076360
vt 0.565605 0.106798
vt 0.502649 0.069575
vt 0.381276 0.073014
vt 0.460032 0.107486
vt 0.360843 0.106721
vt 0.294771 0.081657
vt 0.191130 0.071640
vt 0.204912 0.107653
vt 0.115468 0.112564
vt 0.081310 0.071481
vt 0.050903 0.109176
vt 0.015445 0.082373
vt 0.009317 0.108395
vt 0.047280 0.183054
vt 0.051363 0.217911
vt 0.005233 0.191065
vt 0.144022 0.218643
vt 0.101392 0.242743
vt 0.402919 0.179190
vt 0.345817 0.220794
vt 0.347625 0.181630
vt 0.392756 0.217491
vt 0.444357 0.222696
vt 0.468879 0.184757
vt 0.499538 0.218555
vt 0.566641 0.182369
vt 0.567779 0.219741
vt 0.628847 0.184216
vt 0.642496 0.219225
vt 0.684433 0.182199
vt 0.720025 0.218333
vt 0.864285 0.184982
vt 0.847965 0.219826
vt 0.774194 0.182902
vt 0.920733 0.782014
vt 0.845312 0.814157
vt 0.841306 0.781384
vt 0.774737 0.779992
vt 0.699294 0.777787
vt 0.610831 0.814241
vt 0.625297 0.783266
vt 0.565538 0.778341
vt 0.509269 0.810298
vt 0.500026 0.781041
vt 0.423228 0.817594
vt 0.278556 0.816169
vt 0.210677 0.810393
vt 0.213553 0.783832
vt 0.295127 0.780888
vt 0.258557 0.761774
vt 0.133679 0.778197
vt 0.093589 0.761163
vt 0.050926 0.782065
vt 0.125353 0.811344
vt 0.039297 0.814793
vt 0.004378 0.795332
vt 0.070239 0.884445
vt 0.032955 0.914361
vt 0.013742 0.886068
vt 0.192854 0.917899
vt 0.114082 0.916987
vt 0.137680 0.881917
vt 0.201400 0.874653
vt 0.455816 0.915620
vt 0.371810 0.915871
vt 0.434536 0.887599
vt 0.503208 0.882007
vt 0.515111 0.918338
vt 0.557909 0.886605
vt 0.567518 0.916972
vt 0.759683 0.888176
vt 0.769106 0.917081
vt 0.705439 0.914472
vt 0.464522 0.991245
vt 0.636158 0.023267
vt 0.043849 0.689456
vt 0.915315 0.755230
vt 0.991756 0.586800
vt 0.789505 0.907377
vt 0.135684 0.841796
vt 0.020685 0.359637
vt 0.094706 0.207888
vt 0.212784 0.099407
vt 0.243266 1.000000
vt 0.278829 0.918111
vt 0.252841 0.999973
vt 0.624041 0.917524
vt 0.578007 0.999922
vt 0.719958 1.000001
vt 0.854862 0.924031
vt 0.802982 0.999945
vt 0.908219 1.000000
vt 0.938985 0.917084
vt 0.999700 0.954470
vt 0.991275 0.987788
vt 0.278291 0.887878
vt 0.340734 0.885948
vt 0.344779 0.812962
vt 0.657374 0.885355
vt 0.695928 0.812701
vt 0.762418 0.816466
vt 0.838587 0.888251
vt 0.904590 0.884741
vt 0.956331 0.814605
vt 0.978353 0.889787
vt 0.997516 0.838979
vt 0.353742 0.778763
vt 0.779097 0.230846
vt 0.889494 0.752783
vt 0.915845 0.218321
vt 0.416911 0.773860
vt 0.220490 0.220766
vt 0.287084 0.217702
vt 0.126608 0.184055
vt 0.264985 0.179729
vt 0.200131 0.185315
vt 0.288997 0.108545
vt 0.036162 0.000000
vt 0.093800 0.000000
vt 0.098578 0.000000
vt 0.111790 0.002123
vt 0.206070 0.000000
vt 0.216700 0.000000
vt 0.248206 0.001009
vt 0.440647 0.004804
vt 0.763559 0.000000
vt 0.770866 0.001492
vt 0.880744 0.001768
vt 0.925672 0.076372
vt 0.959374 0.000061
vt 0.134308 0.840132
vt 0.233901 0.916842
vt 0.069855 0.246173
vt 0.018007 0.415861
vt 0.158744 0.144477
vt 0.836770 0.862356
vt 0.973115 0.627962
vt 0.858498 0.166875
vt 0.980847 0.373973
vt 1.000000 0.023795
vt 1.000000 0.381146
vt 1.000000 0.432716
vt 1.000000 0.481261
vt 0.925683 1.000000
vt 0.387799 0.015381
vt -0.008365 0.999979
vt 0.750000 0.991802
vt 1.000000 0.983033
vt 0.000000 0.933691
vt 0.000000 0.983033
vt 0.000000 0.775635
vt 0.250000 0.493841
vt 0.000000 0.109052
vt 1.000000 0.000000
vt 0.982827 0.077347
vt 0.974167 0.114167
vt 0.914842 0.143647
vt 0.970947 0.188800
vt 0.973845 0.220254
vt 0.004602 0.209605
vt 0.977688 0.783494
vt 0.000589 0.803726
vt 0.990388 0.906547
vt 0.369203 0.981865
vt 0.072769 0.999949
vt 0.138726 1.000000
vt 0.231200 1.000000
vt 0.356070 0.999903
vt 0.414591 0.999932
vt 0.467586 1.000000
vt 0.462500 1.000000
vt 0.516077 1.000000
vt 0.645772 0.999911
vt 0.669435 0.992456
vt 0.703650 0.999790
vt 0.738991 1.000000
vt 0.852345 0.995448
vt 0.814600 1.000000
vt 0.928407 1.000000
vt 0.923820 1.000000
vt 0.002704 0.755852
vt 0.180635 0.000282
vt 0.333148 0.000100
vt 0.564269 0.000000
vt 0.638276 0.000494
vt 0.700630 0.004065
vt 0.806086 0.000880
vt 0.008475 0.588117
vt 0.385249 0.019733
vt 0.276833 0.053273
vt 0.998352 0.469821
vt 0.680802 0.962902
s 1
usemtl Material__2
f 3/1/1 7/2/2 2/3/3
f 2/3/3 7/2/2 1/4/4
f 4/5/5 6/6/6 3/1/1
f 4/5/5 5/7/7 8/8/8
f 7/2/2 9/9/9 5/10/7
f 7/2/2 10/11/10 9/9/9
f 9/9/9 11/12/11 5/10/7
f 5/7/7 12/13/12 8/8/8
f 12/13/12 11/14/11 14/15/13
f 10/11/10 16/16/14 15/17/15
f 14/15/13 16/16/14 10/11/10
f 11/14/11 13/18/16 14/15/13
f 14/15/13 17/19/17 16/16/14
f 14/15/13 13/18/16 17/19/17
f 19/20/18 18/21/19 13/22/16
f 13/18/16 18/23/19 17/19/17
f 16/16/14 20/24/20 19/20/18
f 17/19/17 20/24/20 16/16/14
f 20/24/20 22/25/21 19/20/18
f 17/19/17 24/26/22 20/24/20
f 17/19/17 21/27/23 25/28/24
f 18/23/19 21/27/23 17/19/17
f 22/25/21 24/26/22 23/29/25
f 23/29/25 26/30/26 21/31/23
f 24/26/22 28/32/27 23/29/25
f 25/28/24 28/32/27 24/26/22
f 23/29/25 27/33/28 26/30/26
f 27/33/28 29/34/29 26/30/26
f 28/32/27 31/35/30 27/33/28
f 28/32/27 33/36/31 31/35/30
f 30/37/32 33/36/31 28/32/27
f 31/35/30 32/38/33 29/34/29
f 35/39/34 36/40/35 32/38/33
f 33/36/31 37/41/36 35/39/34
f 34/42/37 37/41/36 33/36/31
f 35/39/34 39/43/38 36/40/35
f 35/39/34 37/41/36 39/43/38
f 39/43/38 40/44/39 36/40/35
f 36/45/35 40/46/39 38/47/40
f 38/47/40 40/46/39 44/48/41
f 39/43/38 43/49/42 40/44/39
f 39/43/38 41/50/43 43/49/42
f 43/49/42 46/51/44 42/52/45
f 42/53/45 46/54/44 44/48/41
f 45/55/46 48/56/47 47/57/48
f 49/58/49 50/59/50 46/51/44
f 46/54/44 50/60/50 48/56/47
f 48/56/47 53/61/51 47/57/48
f 51/62/52 52/63/53 50/59/50
f 53/61/51 55/64/54 54/65/55
f 54/65/55 55/64/54 59/66/56
f 52/67/53 57/68/57 56/69/58
f 57/68/57 58/70/59 61/71/60
f 61/71/60 63/72/61 55/64/54
f 59/66/56 60/73/62 58/74/59
f 61/71/60 60/75/62 64/76/63
f 64/76/63 68/77/64 63/72/61
f 60/75/62 66/78/65 64/76/63
f 62/79/66 65/80/67 60/73/62
f 63/72/61 67/81/68 62/79/66
f 68/77/64 67/81/68 63/72/61
f 68/77/64 2/82/3 67/81/68
f 66/78/65 3/83/1 68/77/64
f 2/82/3 1/84/4 65/80/67
f 65/85/67 4/86/5 66/78/65
f 82/87/69 70/88/70 79/89/71
f 83/90/72 84/91/73 82/87/69
f 76/92/74 69/93/75 70/88/70
f 77/94/76 78/95/77 79/89/71
f 302/96/78 303/97/79 296/98/80
f 73/99/81 79/89/71 74/100/82
f 72/99/83 73/99/84 74/100/85
f 75/101/86 73/99/84 72/99/83
f 289/102/87 302/96/78 297/103/88
f 302/96/78 290/104/89 303/97/79
f 294/105/90 295/106/91 293/107/92
f 293/107/92 292/108/93 300/109/94
f 292/108/93 303/97/79 291/110/95
f 299/111/96 298/112/97 286/113/98
f 282/114/99 283/115/100 293/107/92
f 281/116/101 293/107/92 300/109/94
f 286/113/98 298/112/97 285/117/102
f 285/117/102 297/103/88 284/118/103
f 284/118/103 296/98/80 274/119/104
f 274/119/104 303/97/79 304/120/105
f 277/121/106 304/120/105 295/106/91
f 278/122/107 295/106/91 294/105/90
f 278/122/107 294/105/90 301/123/108
f 282/114/99 293/107/92 281/116/101
f 281/116/101 292/108/93 280/124/109
f 280/124/109 291/110/95 276/125/110
f 276/126/110 290/104/89 302/96/78
f 275/127/111 302/96/78 289/102/87
f 279/128/112 289/102/87 288/129/113
f 279/128/112 288/129/113 287/130/114
f 279/128/112 299/111/96 286/113/98
f 282/114/99 278/122/107 283/115/100
f 275/127/111 279/128/112 284/118/103
f 280/124/109 277/121/106 281/116/101
f 276/126/110 275/127/111 284/118/103
f 274/119/104 277/121/106 280/124/109
f 276/125/110 284/118/103 274/119/104
f 273/131/115 207/132/116 272/133/117
f 272/133/117 207/132/116 206/134/118
f 271/135/119 272/133/117 206/134/118
f 268/136/120 272/133/117 269/137/121
f 267/138/122 270/139/123 268/136/120
f 262/140/124 268/136/120 265/141/125
f 265/141/125 269/137/121 264/142/126
f 266/143/127 267/144/122 262/145/124
f 263/146/128 262/140/124 265/141/125
f 263/146/128 264/142/126 261/147/129
f 261/147/129 264/142/126 260/148/130
f 259/149/131 262/140/124 263/146/128
f 258/150/132 259/149/131 257/151/133
f 257/151/133 261/147/129 256/152/134
f 254/153/135 258/150/132 257/151/133
f 255/154/136 258/155/132 254/156/135
f 254/153/135 257/151/133 253/157/137
f 253/157/137 257/151/133 256/152/134
f 253/157/137 256/152/134 251/158/138
f 251/158/138 256/152/134 252/159/139
f 249/160/140 252/159/139 254/156/135
f 250/161/141 254/153/135 253/157/137
f 253/157/137 251/158/138 247/162/142
f 248/163/143 250/161/141 253/157/137
f 245/164/144 247/162/142 249/160/140
f 245/164/144 250/165/141 242/166/145
f 241/167/146 246/168/147 244/169/148
f 240/170/149 242/171/145 241/167/146
f 237/172/150 240/170/149 241/167/146
f 237/172/150 244/169/148 239/173/151
f 236/174/152 240/170/149 237/172/150
f 238/175/153 240/176/149 236/177/152
f 231/178/154 237/172/150 235/179/155
f 235/179/155 239/173/151 233/180/156
f 234/181/157 239/173/151 238/175/153
f 234/181/157 236/177/152 231/182/154
f 233/180/156 234/181/157 229/183/158
f 229/183/158 234/181/157 231/182/154
f 230/184/159 233/180/156 229/183/158
f 229/183/158 231/182/154 228/185/160
f 228/186/160 231/178/154 232/187/161
f 223/188/162 228/186/160 232/187/161
f 223/188/162 232/187/161 227/189/163
f 227/189/163 230/184/159 226/190/164
f 225/191/165 228/185/160 223/192/162
f 223/188/162 227/189/163 217/193/166
f 217/193/166 227/189/163 222/194/167
f 222/194/167 226/190/164 224/195/168
f 221/196/169 225/191/165 223/192/162
f 221/196/169 223/192/162 217/197/166
f 219/198/170 221/196/169 217/197/166
f 218/199/171 224/195/168 220/200/172
f 213/201/173 217/193/166 218/199/171
f 214/202/174 220/200/172 219/198/170
f 213/201/173 218/199/171 215/203/175
f 215/203/175 220/200/172 216/204/176
f 216/204/176 220/200/172 214/202/174
f 212/205/177 216/204/176 211/206/178
f 210/207/179 215/203/175 212/205/177
f 205/208/180 211/206/178 210/209/179
f 208/210/181 205/211/180 212/205/177
f 208/210/181 211/206/178 207/212/116
f 207/212/116 211/206/178 206/213/118
f 206/213/118 205/208/180 209/214/182
f 202/215/183 204/216/184 203/217/185
f 151/218/186 202/215/183 203/217/185
f 201/219/187 167/220/188 151/218/186
f 164/221/189 167/220/188 201/219/187
f 172/222/190 149/223/191 162/224/192
f 161/225/193 200/226/194 199/227/195
f 161/225/193 199/227/195 160/228/196
f 158/229/197 160/228/196 143/230/198
f 143/230/198 140/231/199 158/229/197
f 155/232/200 140/231/199 198/233/201
f 170/234/202 198/233/201 197/235/203
f 139/236/204 131/237/205 154/238/206
f 139/236/204 128/239/207 131/237/205
f 126/240/208 131/237/205 128/239/207
f 146/241/209 133/242/210 145/243/211
f 117/244/212 146/241/209 134/245/213
f 147/246/214 195/247/215 134/245/213
f 195/247/215 148/248/216 129/249/217
f 194/250/218 193/251/219 148/248/216
f 193/251/219 150/252/220 135/253/221
f 153/254/222 137/255/223 192/256/224
f 124/257/225 105/258/226 191/259/227
f 122/260/228 191/259/227 105/258/226
f 121/261/229 187/262/230 188/263/231
f 120/264/232 188/263/231 187/262/230
f 120/264/232 101/265/233 119/266/234
f 101/265/233 186/267/235 119/266/234
f 99/268/236 184/269/237 127/270/238
f 115/271/239 127/270/238 114/272/240
f 127/270/238 184/269/237 113/273/241
f 112/274/242 113/273/241 111/275/243
f 96/276/244 95/277/245 111/275/243
f 110/278/246 111/275/243 95/277/245
f 183/279/247 85/280/248 109/281/249
f 87/282/250 86/283/251 97/284/252
f 98/285/253 87/282/250 97/284/252
f 89/286/254 180/287/255 100/288/256
f 100/288/256 102/289/257 89/286/254
f 90/290/258 89/286/254 102/289/257
f 102/289/257 103/291/259 90/290/258
f 90/290/258 103/291/259 179/292/260
f 104/293/261 93/294/262 92/295/263
f 159/296/264 168/297/265 175/298/266
f 71/299/267 84/91/73 85/300/248
f 87/301/250 70/88/70 71/299/267
f 180/302/255 77/94/76 69/93/75
f 79/89/71 78/95/77 179/303/260
f 74/100/82 79/89/71 91/304/268
f 91/304/268 75/101/269 73/99/270
f 91/304/268 80/305/271 75/101/269
f 70/306/70 88/307/272 76/308/74
f 91/309/268 79/310/71 179/292/260
f 81/311/273 92/295/263 93/294/262
f 94/312/274 82/313/69 93/294/262
f 83/314/72 94/312/274 177/315/275
f 85/316/248 84/317/73 177/315/275
f 95/277/245 183/279/247 109/281/249
f 183/279/247 96/276/244 97/284/252
f 97/284/252 96/276/244 184/269/237
f 98/285/253 99/268/236 182/318/276
f 98/285/253 184/269/237 99/268/236
f 181/319/277 182/318/276 99/268/236
f 185/320/278 181/319/277 99/268/236
f 100/288/256 101/265/233 102/289/257
f 187/262/230 102/289/257 101/265/233
f 103/291/259 102/289/257 187/262/230
f 103/291/259 187/262/230 178/321/279
f 189/322/280 178/321/279 187/262/230
f 178/321/279 189/322/280 190/323/281
f 105/258/226 106/324/282 190/323/281
f 107/325/283 106/324/282 105/258/226
f 108/326/284 109/327/249 107/325/283
f 108/326/284 95/328/245 109/327/249
f 128/239/207 127/270/238 113/273/241
f 133/242/210 116/329/285 115/271/239
f 193/251/219 121/261/229 188/263/231
f 191/259/227 136/330/286 137/255/223
f 191/259/227 123/331/287 124/257/225
f 138/332/288 124/257/225 123/331/287
f 119/266/234 118/333/289 195/247/215
f 114/272/240 125/334/290 132/335/291
f 116/329/285 133/242/210 117/244/212
f 131/237/205 126/240/208 112/274/242
f 115/271/239 132/335/291 133/242/210
f 118/333/289 134/245/213 195/247/215
f 122/260/228 135/253/221 136/330/286
f 197/235/203 139/236/204 154/238/206
f 139/236/204 198/233/201 196/336/292
f 198/233/201 140/231/199 196/336/292
f 140/231/199 143/230/198 196/336/292
f 142/337/293 141/338/294 143/230/198
f 199/227/195 145/243/211 144/339/295
f 199/227/195 200/226/194 146/241/209
f 200/226/194 147/246/214 146/241/209
f 149/223/191 148/248/216 147/246/214
f 194/250/218 148/248/216 164/221/189
f 150/252/220 194/250/218 201/219/187
f 201/219/187 151/218/186 150/252/220
f 192/256/224 150/252/220 151/218/186
f 151/218/186 203/217/185 192/256/224
f 203/217/185 153/254/222 192/256/224
f 153/254/222 203/217/185 204/216/184
f 155/232/200 170/234/202 156/340/296
f 155/232/200 156/341/296 157/342/297
f 157/343/297 158/229/197 155/232/200
f 158/229/197 173/344/298 159/345/264
f 158/229/197 159/346/264 160/228/196
f 161/225/193 175/347/266 162/224/192
f 167/220/188 166/348/299 168/349/265
f 202/215/183 176/350/300 169/351/301
f 176/350/300 171/352/302 169/351/301
f 161/353/193 174/354/303 175/298/266
f 172/355/190 163/356/304 165/357/305
f 159/296/264 175/298/266 174/354/303
f 175/298/266 168/297/265 165/357/305
f 159/296/264 157/358/297 156/359/296
f 176/360/300 159/296/264 156/359/296
f 176/360/300 156/359/296 171/361/302
f 163/356/304 175/298/266 165/357/305
f 1/4/4 7/2/2 5/10/7
f 3/1/1 6/6/6 7/2/2
f 4/5/5 8/8/8 6/6/6
f 4/5/5 1/362/4 5/7/7
f 7/2/2 6/6/6 10/11/10
f 6/6/6 8/8/8 10/11/10
f 8/8/8 12/13/12 10/11/10
f 5/7/7 11/14/11 12/13/12
f 9/9/9 15/17/15 11/12/11
f 9/9/9 10/11/10 15/17/15
f 12/13/12 14/15/13 10/11/10
f 11/12/11 15/17/15 13/22/16
f 15/17/15 19/20/18 13/22/16
f 15/17/15 16/16/14 19/20/18
f 19/20/18 22/25/21 18/21/19
f 18/21/19 22/25/21 21/31/23
f 22/25/21 20/24/20 24/26/22
f 17/19/17 25/28/24 24/26/22
f 22/25/21 23/29/25 21/31/23
f 25/28/24 21/27/23 26/363/26
f 23/29/25 28/32/27 27/33/28
f 25/28/24 30/37/32 28/32/27
f 25/28/24 26/363/26 30/37/32
f 27/33/28 31/35/30 29/34/29
f 26/363/26 29/364/29 30/37/32
f 30/37/32 34/42/37 33/36/31
f 30/37/32 29/364/29 34/42/37
f 31/35/30 35/39/34 32/38/33
f 31/35/30 33/36/31 35/39/34
f 29/364/29 32/365/33 34/42/37
f 34/42/37 38/47/40 37/41/36
f 34/42/37 32/365/33 38/47/40
f 32/365/33 36/45/35 38/47/40
f 39/43/38 37/41/36 41/50/43
f 37/41/36 38/47/40 41/50/43
f 38/47/40 44/48/41 41/50/43
f 40/44/39 43/49/42 42/52/45
f 40/46/39 42/53/45 44/48/41
f 41/50/43 45/55/46 43/49/42
f 41/50/43 44/48/41 45/55/46
f 43/49/42 49/58/49 46/51/44
f 43/49/42 45/55/46 49/58/49
f 44/48/41 48/56/47 45/55/46
f 44/48/41 46/54/44 48/56/47
f 49/58/49 45/55/46 47/57/48
f 49/58/49 51/62/52 50/59/50
f 49/58/49 47/57/48 51/62/52
f 47/57/48 53/61/51 51/62/52
f 48/56/47 56/69/58 53/61/51
f 48/56/47 50/60/50 56/69/58
f 50/60/50 52/67/53 56/69/58
f 51/62/52 54/65/55 52/63/53
f 51/62/52 53/61/51 54/65/55
f 53/61/51 56/69/58 55/64/54
f 54/65/55 59/66/56 52/63/53
f 56/69/58 57/68/57 55/64/54
f 52/63/53 59/66/56 58/74/59
f 52/67/53 58/70/59 57/68/57
f 57/68/57 61/71/60 55/64/54
f 59/66/56 55/64/54 63/72/61
f 59/66/56 62/79/66 60/73/62
f 58/70/59 60/75/62 61/71/60
f 59/66/56 63/72/61 62/79/66
f 61/71/60 64/76/63 63/72/61
f 64/76/63 66/78/65 68/77/64
f 62/79/66 67/81/68 65/80/67
f 66/78/65 60/75/62 65/85/67
f 67/81/68 2/82/3 65/80/67
f 68/77/64 3/83/1 2/82/3
f 66/78/65 4/86/5 3/83/1
f 65/85/67 1/366/4 4/86/5
f 70/88/70 77/94/76 79/89/71
f 70/88/70 82/87/69 84/91/73
f 69/93/75 77/94/76 70/88/70
f 71/299/267 70/88/70 84/91/73
f 79/89/71 80/305/271 82/87/69
f 80/305/271 81/367/273 82/87/69
f 292/108/93 304/120/105 303/97/79
f 73/99/81 80/305/271 79/89/71
f 80/305/271 73/99/81 75/101/269
f 297/103/88 302/96/78 296/98/80
f 288/129/113 289/102/87 297/103/88
f 295/106/91 304/120/105 292/108/93
f 291/110/95 303/97/79 290/368/89
f 298/112/97 288/129/113 297/103/88
f 293/107/92 295/106/91 292/108/93
f 299/111/96 288/129/113 298/112/97
f 283/115/100 301/123/108 294/105/90
f 283/115/100 294/105/90 293/107/92
f 299/111/96 287/130/114 288/129/113
f 285/117/102 298/112/97 297/103/88
f 284/118/103 297/103/88 296/98/80
f 274/119/104 296/98/80 303/97/79
f 277/121/106 274/119/104 304/120/105
f 278/122/107 277/121/106 295/106/91
f 283/115/100 278/122/107 301/123/108
f 281/116/101 300/109/94 292/108/93
f 280/124/109 292/108/93 291/110/95
f 276/125/110 291/110/95 290/368/89
f 275/127/111 276/126/110 302/96/78
f 279/128/112 275/127/111 289/102/87
f 299/111/96 279/128/112 287/130/114
f 285/117/102 279/128/112 286/113/98
f 284/118/103 279/128/112 285/117/102
f 281/116/101 278/122/107 282/114/99
f 281/116/101 277/121/106 278/122/107
f 276/125/110 274/119/104 280/124/109
f 208/369/181 273/131/115 209/370/182
f 273/131/115 208/369/181 207/132/116
f 270/139/123 209/370/182 273/131/115
f 270/371/123 206/134/118 209/372/182
f 271/135/119 206/134/118 270/371/123
f 268/136/120 270/139/123 273/131/115
f 268/136/120 273/131/115 272/133/117
f 269/137/121 272/133/117 271/135/119
f 267/144/122 271/135/119 270/371/123
f 267/144/122 269/137/121 271/135/119
f 262/140/124 267/138/122 268/136/120
f 265/141/125 268/136/120 269/137/121
f 266/143/127 264/142/126 269/137/121
f 266/143/127 269/137/121 267/144/122
f 263/146/128 265/141/125 264/142/126
f 260/148/130 264/142/126 266/143/127
f 260/148/130 266/143/127 262/145/124
f 259/373/131 260/148/130 262/145/124
f 257/151/133 259/149/131 263/146/128
f 257/151/133 263/146/128 261/147/129
f 258/155/132 260/148/130 259/373/131
f 255/154/136 261/147/129 260/148/130
f 255/154/136 260/148/130 258/155/132
f 255/154/136 256/152/134 261/147/129
f 252/159/139 256/152/134 255/154/136
f 252/159/139 255/154/136 254/156/135
f 249/160/140 251/158/138 252/159/139
f 249/160/140 247/162/142 251/158/138
f 250/165/141 249/160/140 254/156/135
f 248/163/143 253/157/137 247/162/142
f 245/164/144 249/160/140 250/165/141
f 246/168/147 248/163/143 247/162/142
f 246/168/147 247/162/142 245/164/144
f 242/171/145 250/161/141 248/163/143
f 241/167/146 242/171/145 248/163/143
f 241/167/146 248/163/143 246/168/147
f 244/169/148 246/168/147 245/164/144
f 243/374/306 244/169/148 245/164/144
f 243/374/306 245/164/144 242/166/145
f 240/176/149 243/374/306 242/166/145
f 237/172/150 241/167/146 244/169/148
f 238/175/153 239/173/151 244/169/148
f 238/175/153 244/169/148 243/374/306
f 238/175/153 243/374/306 240/176/149
f 231/178/154 236/174/152 237/172/150
f 235/179/155 237/172/150 239/173/151
f 234/181/157 233/180/156 239/173/151
f 234/181/157 238/175/153 236/177/152
f 232/187/161 231/178/154 235/179/155
f 232/187/161 235/179/155 233/180/156
f 230/184/159 232/187/161 233/180/156
f 227/189/163 232/187/161 230/184/159
f 225/191/165 226/190/164 230/184/159
f 225/191/165 230/184/159 229/183/158
f 225/191/165 229/183/158 228/185/160
f 222/194/167 227/189/163 226/190/164
f 221/196/169 224/195/168 226/190/164
f 221/196/169 226/190/164 225/191/165
f 219/198/170 224/195/168 221/196/169
f 218/199/171 217/193/166 222/194/167
f 218/199/171 222/194/167 224/195/168
f 220/200/172 224/195/168 219/198/170
f 214/202/174 219/198/170 217/197/166
f 213/375/173 214/202/174 217/197/166
f 215/203/175 218/199/171 220/200/172
f 210/207/179 213/201/173 215/203/175
f 212/205/177 215/203/175 216/204/176
f 211/206/178 216/204/176 214/202/174
f 210/209/179 214/202/174 213/375/173
f 210/209/179 211/206/178 214/202/174
f 205/211/180 210/207/179 212/205/177
f 208/210/181 212/205/177 211/206/178
f 206/213/118 211/206/178 205/208/180
f 209/376/182 205/211/180 208/210/181
f 169/351/301 170/377/202 197/378/203
f 169/351/301 197/378/203 204/216/184
f 152/379/307 204/216/184 197/378/203
f 202/215/183 169/351/301 204/216/184
f 167/220/188 202/215/183 151/218/186
f 172/222/190 164/221/189 149/223/191
f 162/224/192 149/223/191 200/226/194
f 161/225/193 162/224/192 200/226/194
f 160/228/196 199/227/195 144/339/295
f 160/228/196 144/339/295 143/230/198
f 155/232/200 158/229/197 140/231/199
f 170/234/202 155/232/200 198/233/201
f 139/236/204 196/336/292 128/239/207
f 196/336/292 141/338/294 125/334/290
f 128/239/207 196/336/292 125/334/290
f 141/338/294 142/337/293 125/334/290
f 142/337/293 132/335/291 125/334/290
f 142/337/293 145/243/211 132/335/291
f 133/242/210 132/335/291 145/243/211
f 117/244/212 133/242/210 146/241/209
f 146/241/209 147/246/214 134/245/213
f 195/247/215 147/246/214 148/248/216
f 148/248/216 193/251/219 129/249/217
f 194/250/218 150/252/220 193/251/219
f 150/252/220 192/256/224 135/253/221
f 136/330/286 135/253/221 192/256/224
f 137/255/223 136/330/286 192/256/224
f 153/254/222 138/332/288 137/255/223
f 154/380/206 130/381/308 138/332/288
f 153/254/222 154/380/206 138/332/288
f 131/237/205 130/382/308 154/238/206
f 110/383/246 108/326/284 124/257/225
f 108/326/284 105/258/226 124/257/225
f 190/323/281 122/260/228 105/258/226
f 121/261/229 122/260/228 190/323/281
f 121/261/229 190/323/281 189/322/280
f 189/322/280 187/262/230 121/261/229
f 101/265/233 120/264/232 187/262/230
f 118/333/289 119/266/234 186/267/235
f 186/267/235 185/320/278 118/333/289
f 116/329/285 118/333/289 185/320/278
f 116/329/285 185/320/278 115/271/239
f 99/268/236 115/271/239 185/320/278
f 115/271/239 99/268/236 127/270/238
f 113/273/241 184/269/237 96/276/244
f 111/275/243 113/273/241 96/276/244
f 110/278/246 95/277/245 108/384/284
f 86/283/251 85/280/248 183/279/247
f 183/279/247 97/284/252 86/283/251
f 182/318/276 88/307/272 87/282/250
f 88/307/272 182/318/276 181/319/277
f 88/307/272 181/319/277 180/287/255
f 100/288/256 180/287/255 181/319/277
f 178/321/279 179/292/260 103/291/259
f 179/292/260 178/321/279 91/309/268
f 91/309/268 178/321/279 92/295/263
f 178/321/279 104/293/261 92/295/263
f 104/293/261 106/324/282 93/294/262
f 94/312/274 93/294/262 106/324/282
f 106/324/282 107/325/283 94/312/274
f 94/312/274 107/325/283 177/315/275
f 109/327/249 177/315/275 107/325/283
f 109/327/249 85/385/248 177/315/275
f 69/93/75 76/92/74 88/386/272
f 73/99/270 74/100/82 91/304/268
f 85/280/248 86/283/251 71/387/267
f 86/283/251 87/282/250 71/388/267
f 88/307/272 70/389/70 87/282/250
f 69/390/75 88/307/272 180/287/255
f 77/391/76 180/287/255 89/286/254
f 78/392/77 77/393/76 89/286/254
f 89/286/254 90/290/258 78/392/77
f 90/290/258 179/292/260 78/394/77
f 91/309/268 92/295/263 80/395/271
f 80/396/271 92/295/263 81/397/273
f 81/311/273 93/294/262 82/398/69
f 83/399/72 82/400/69 94/312/274
f 84/401/73 83/402/72 177/315/275
f 95/277/245 96/276/244 183/279/247
f 184/269/237 98/285/253 97/284/252
f 87/282/250 98/285/253 182/318/276
f 185/320/278 186/267/235 181/319/277
f 181/319/277 186/267/235 100/288/256
f 186/267/235 101/265/233 100/288/256
f 104/293/261 178/321/279 190/323/281
f 106/324/282 104/293/261 190/323/281
f 107/325/283 105/258/226 108/326/284
f 111/275/243 110/403/246 130/382/308
f 112/274/242 111/275/243 131/237/205
f 113/273/241 112/274/242 126/240/208
f 114/272/240 127/270/238 125/334/290
f 115/271/239 114/272/240 132/335/291
f 118/333/289 116/329/285 117/244/212
f 119/266/234 129/249/217 120/264/232
f 188/263/231 120/264/232 129/249/217
f 122/260/228 121/261/229 135/253/221
f 191/259/227 122/260/228 136/330/286
f 191/259/227 137/255/223 123/331/287
f 110/383/246 124/257/225 130/381/308
f 129/249/217 193/251/219 188/263/231
f 130/382/308 131/237/205 111/275/243
f 126/240/208 128/239/207 113/273/241
f 125/334/290 127/270/238 128/239/207
f 117/244/212 134/245/213 118/333/289
f 195/247/215 129/249/217 119/266/234
f 193/251/219 135/253/221 121/261/229
f 137/255/223 138/332/288 123/331/287
f 138/332/288 130/381/308 124/257/225
f 198/233/201 139/236/204 197/235/203
f 141/338/294 196/336/292 143/230/198
f 142/337/293 143/230/198 144/339/295
f 145/243/211 142/337/293 144/339/295
f 199/227/195 146/241/209 145/243/211
f 147/246/214 200/226/194 149/223/191
f 148/248/216 149/223/191 164/221/189
f 164/221/189 201/219/187 194/250/218
f 152/379/307 153/254/222 204/216/184
f 154/380/206 153/254/222 152/379/307
f 197/378/203 154/380/206 152/379/307
f 158/229/197 157/343/297 173/404/298
f 160/228/196 159/346/264 174/405/303
f 160/228/196 174/405/303 161/225/193
f 172/222/190 162/224/192 163/406/304
f 165/407/305 164/221/189 172/222/190
f 167/220/188 164/221/189 166/408/299
f 202/215/183 167/220/188 168/409/265
f 168/409/265 176/350/300 202/215/183
f 170/377/202 169/351/301 171/352/302
f 175/298/266 163/356/304 162/410/192
f 165/357/305 166/411/299 164/412/189
f 171/361/302 156/359/296 170/413/202
f 176/360/300 168/297/265 159/296/264
f 166/411/299 165/357/305 168/297/265
f 157/358/297 159/296/264 173/414/298
