# Blender 5.2.0 LTS
# www.blender.org
mtllib mecha_guy_edited.mtl
o Mecha_guy
v 0.073221 0.075005 0.014595
v 0.069435 0.085788 -0.002151
v 0.071035 0.076430 -0.023172
v 0.077425 0.052495 -0.028337
v 0.059126 0.058602 -0.031844
v 0.088546 -0.086675 -0.033587
v 0.094682 -0.098330 -0.023389
v 0.060233 -0.055212 0.010996
v 0.058113 -0.094702 0.009062
v 0.049831 -0.215133 0.016938
v 0.035326 -0.215126 0.022422
v 0.017896 -0.247479 -0.014418
v 0.015379 -0.221900 -0.023393
v 0.008788 -0.118390 -0.020205
v 0.005697 -0.118443 -0.006681
v 0.003914 -0.113172 -0.022933
v -0.000044 -0.124627 -0.020143
v -0.007395 -0.120394 -0.028954
v -0.015664 -0.215567 -0.027646
v -0.025245 -0.225452 -0.027053
v -0.018424 -0.247497 -0.018814
v -0.038879 -0.247538 0.001241
v -0.041840 -0.221291 0.012616
v -0.034386 -0.212911 0.022392
v -0.027935 -0.157987 0.026385
v 0.012721 0.069043 0.033157
v 0.048753 0.092463 0.017435
v 0.073050 0.059204 0.022764
v 0.025745 0.101952 0.017074
v 0.031416 0.106610 0.006128
v 0.025909 0.116481 0.008899
v 0.025067 0.117413 -0.008554
v 0.029563 0.134612 -0.015857
v 0.022751 0.154130 -0.026586
v 0.006570 0.153592 -0.036215
v 0.000746 0.127448 -0.034388
v -0.012150 0.126672 -0.033833
v -0.010246 0.108589 -0.018878
v -0.024886 0.121598 -0.024543
v -0.023451 0.091083 -0.016257
v -0.017543 0.096462 -0.000473
v -0.027154 0.095969 -0.005210
v -0.023643 0.090804 0.016363
v -0.024057 0.009574 0.031845
v -0.037981 -0.041594 0.021500
v -0.039658 -0.211065 -0.021048
v -0.033641 -0.187187 -0.027657
v -0.039222 -0.031510 -0.019931
v -0.048490 0.029798 -0.014175
v -0.054064 0.026907 0.001316
v -0.061641 0.072572 -0.016205
v -0.066355 0.063729 -0.004924
v -0.064355 0.063322 0.021560
v -0.051164 0.028771 0.016707
v -0.050879 0.073800 0.033638
v -0.029532 0.086172 0.025993
v -0.085181 0.173530 0.037479
v -0.103049 0.198684 0.034281
v -0.098709 0.215654 0.028813
v -0.089040 0.217311 0.009827
v -0.075404 0.200786 0.005425
v -0.091416 0.211085 0.000630
v -0.048640 0.147892 0.000580
v -0.048683 0.151767 0.010077
v -0.039162 0.155144 0.027909
v -0.042349 0.171159 0.012585
v -0.036407 0.182446 0.010227
v -0.040695 0.174162 -0.006441
v -0.008263 0.183010 -0.024560
v -0.026621 0.186411 -0.007552
v 0.011576 0.187729 -0.012056
v 0.014522 0.189411 -0.000159
v 0.010884 0.184155 0.020980
v 0.026121 0.174399 0.015003
v 0.031901 0.152688 0.015314
v 0.034780 0.153067 -0.004384
v 0.032888 0.130563 0.009674
v 0.015781 0.125669 0.032341
v -0.016679 0.131246 0.039658
v -0.016460 0.115434 0.031110
v -0.028716 0.128782 0.033308
v -0.033614 0.114270 0.016511
v -0.039296 0.123593 0.021611
v -0.045696 0.141215 0.019015
v -0.030411 0.103976 0.008014
v -0.034777 0.134056 -0.023264
v -0.029014 0.145485 -0.030391
v -0.009549 0.160305 -0.037102
v 0.005978 0.178790 -0.027858
v 0.024373 0.177051 -0.010495
v 0.018032 0.112274 0.017655
v 0.003331 0.108699 0.021923
v -0.012875 0.094137 0.018224
v -0.001420 0.083725 0.030490
v -0.015460 0.101178 -0.008535
v -0.009409 0.101998 -0.017897
v -0.020724 0.107775 0.000387
v -0.030325 0.111645 0.004663
v -0.016869 0.106071 0.012730
v -0.011733 0.101646 0.015985
v -0.003428 0.105643 0.020787
v 0.024617 0.086064 0.028801
v -0.025728 0.173984 -0.025831
v -0.041148 0.160175 -0.016695
v -0.045419 0.134742 -0.007042
v -0.040038 0.124082 -0.009114
v -0.035079 0.115680 -0.005165
v -0.037135 0.090417 -0.019112
v -0.042547 0.071122 -0.023784
v -0.030473 0.024617 -0.024662
v -0.004043 -0.063403 -0.032631
v -0.025237 -0.118928 -0.032154
v -0.030463 -0.247684 -0.017476
v -0.037097 -0.247724 -0.009627
v -0.045207 -0.220522 -0.000415
v 0.004724 -0.103764 -0.028617
v 0.012259 -0.119300 -0.027504
v 0.025293 -0.218815 -0.031533
v 0.027859 -0.247423 -0.024331
v 0.038781 -0.247484 -0.024892
v 0.058589 -0.220862 -0.000648
v 0.057876 -0.196444 -0.020735
v 0.050495 -0.229811 -0.024615
v 0.051051 -0.247654 -0.015479
v 0.037436 -0.219537 -0.033433
v 0.049340 -0.187726 -0.030393
v 0.049644 -0.088269 -0.029574
v 0.076493 -0.098450 -0.029296
v 0.085383 -0.106119 -0.020346
v 0.067343 -0.104210 -0.012453
v 0.063522 -0.107108 -0.005496
v 0.065807 -0.092125 0.002612
v 0.060568 -0.110914 -0.018471
v 0.056209 -0.064458 -0.027833
v 0.074484 -0.078735 -0.035430
v 0.047851 0.026796 -0.025328
v 0.012024 0.071926 -0.029990
v 0.022723 0.107460 -0.016454
v 0.028308 0.108120 -0.011222
v 0.017086 0.114943 -0.018639
v 0.016084 0.129161 -0.029273
v 0.007990 0.106935 -0.020006
v 0.011611 0.094875 -0.027313
v 0.049356 0.092986 -0.019913
v 0.035687 0.033908 -0.029814
v 0.062667 -0.094767 -0.024262
v 0.019959 -0.092802 -0.033731
v 0.032142 -0.100401 -0.034626
v 0.050948 -0.247422 0.004495
v -0.082662 0.150266 -0.013264
v -0.095234 0.193495 -0.006091
v -0.104534 0.214653 0.004808
v -0.104166 0.220834 0.015025
v -0.107716 0.215672 0.022290
v -0.105506 0.179544 0.030529
v -0.079412 0.101135 0.006541
v -0.077059 0.104046 -0.006984
v -0.101381 0.160077 -0.000665
v -0.111332 0.179591 0.015147
v -0.113832 0.205036 0.018091
v -0.109709 0.194853 0.002033
v -0.076700 0.106005 0.023317
v -0.066700 0.110178 0.032089
v -0.051238 0.104113 0.033255
v -0.071232 0.165850 -0.011074
v -0.028998 0.075804 0.031060
v -0.070618 0.194304 0.022588
v -0.085872 0.216229 0.022049
v -0.083330 0.201422 0.033703
v -0.027374 0.154129 0.036286
v -0.029757 0.173766 0.028338
v -0.015445 0.188912 0.011580
v -0.012754 0.180623 0.028684
v 0.006059 0.177638 0.029989
v -0.005601 0.160988 0.039749
v 0.004809 0.125113 0.038417
v 0.021112 0.150354 0.031913
v -0.042682 0.028087 0.026668
v -0.044917 -0.186780 -0.011105
v -0.044591 -0.041852 -0.008080
v -0.044936 -0.041230 0.006419
v 0.083690 0.054990 0.013982
v 0.085835 -0.101649 -0.003410
v 0.095664 -0.099035 -0.013126
v 0.095565 -0.074003 -0.027368
v 0.086266 0.000137 -0.024762
v 0.087742 0.053911 -0.015257
v 0.088759 0.057395 0.001231
v 0.093140 -0.007699 -0.011567
v 0.099907 -0.078042 -0.012970
v 0.076795 -0.003884 -0.031362
v 0.080512 -0.080795 0.008945
v 0.093945 -0.084521 0.001683
v 0.051078 0.026190 0.018412
v 0.061801 0.039100 0.022691
v 0.044024 -0.058319 0.022069
v 0.037725 -0.135011 0.023389
v 0.019030 0.000448 0.030692
v 0.018740 -0.101845 0.025521
v 0.012359 -0.112677 0.019639
v 0.008030 -0.117030 0.010139
v -0.008048 -0.209123 -0.022877
v -0.007529 -0.247664 -0.002982
v -0.012593 -0.247954 0.015032
v -0.005589 -0.207794 0.018668
v -0.013467 -0.130250 0.026662
v -0.002986 -0.137075 0.019616
v -0.018073 -0.105770 0.030360
v -0.018704 -0.223189 0.026074
v -0.030523 -0.247659 0.016987
v -0.019163 -0.247424 0.018174
v 0.045839 0.041086 0.025183
v 0.001105 -0.110358 0.023939
v 0.003210 -0.128088 0.001161
v -0.000877 -0.219401 -0.005417
v 0.008685 -0.130584 -0.002766
v 0.013545 -0.220485 0.006576
v 0.016347 -0.247709 0.001653
v 0.022993 -0.247427 0.010723
v 0.011230 -0.224896 -0.008082
v 0.035515 -0.247503 0.015685
v 0.026314 -0.228632 0.019931
v 0.023109 -0.127104 0.022356
v 0.015848 -0.140007 0.016165
v 0.029681 -0.247430 0.014788
v 0.016055 -0.247430 -0.003650
v 0.020346 -0.247430 0.007646
v -0.031056 -0.247430 0.015315
v -0.023433 -0.247430 0.018612
v -0.015053 -0.247430 0.015818
v -0.008759 -0.247430 0.003944
v -0.009160 -0.247430 -0.005655
v -0.014616 -0.247430 -0.014939
v 0.041112 -0.247430 -0.024196
v -0.021111 -0.247430 -0.018853
v 0.046787 -0.247430 0.009138
v -0.038169 -0.247430 0.004243
v 0.027387 -0.247430 -0.024220
v 0.051860 -0.247430 -0.000944
v 0.018914 -0.247430 -0.015535
v 0.039895 -0.247430 0.014046
v 0.051164 -0.247430 -0.012805
v -0.028721 -0.247430 -0.017756
v -0.036173 -0.247430 -0.010628
vn 0.4438 0.1425 0.8848
vn 0.6475 0.5419 0.5358
vn 0.4230 0.6655 0.6150
vn 0.6731 0.7395 0.0082
vn 0.9436 0.3032 0.1331
vn 0.5598 0.5346 -0.6331
vn 0.1031 0.1264 -0.9866
vn 0.5265 0.1713 -0.8327
vn 0.3678 0.0604 -0.9279
vn -0.1806 -0.1251 -0.9756
vn 0.4010 -0.2244 -0.8882
vn 0.7132 -0.5042 -0.4870
vn 0.1932 -0.9422 -0.2738
vn 0.8138 -0.5550 0.1725
vn 0.4169 -0.9090 -0.0007
vn 0.2712 -0.7513 0.6017
vn 0.3492 -0.4334 0.8308
vn 0.1457 -0.2606 0.9544
vn 0.7151 -0.2272 0.6611
vn 0.2667 -0.0954 0.9590
vn 0.7179 -0.0985 0.6892
vn 0.4507 -0.0225 0.8924
vn 0.6530 -0.1089 0.7495
vn 0.0894 -0.0825 0.9926
vn 0.1429 -0.3084 0.9405
vn 0.8571 -0.2730 0.4369
vn -0.3848 -0.2988 -0.8733
vn -0.8751 -0.2761 -0.3974
vn -0.8098 -0.1486 -0.5676
vn -0.9907 -0.1247 -0.0541
vn -0.8606 -0.3933 -0.3234
vn -0.9856 -0.1336 0.1040
vn -0.0339 -0.9398 -0.3401
vn 0.3399 -0.5842 -0.7370
vn 0.7614 -0.1297 -0.6352
vn 0.4040 -0.1416 -0.9037
vn 0.8658 -0.2157 -0.4515
vn 0.3521 -0.1581 -0.9225
vn -0.1722 -0.2306 -0.9577
vn 0.4247 -0.3436 -0.8376
vn -0.9570 -0.2562 0.1359
vn -0.5392 -0.2821 0.7935
vn -0.8730 -0.1353 0.4685
vn -0.5501 -0.0739 0.8318
vn 0.1725 -0.1668 0.9708
vn -0.7480 -0.0454 0.6621
vn -0.2593 -0.0158 0.9657
vn -0.1680 -0.0588 0.9840
vn -0.0181 -0.0788 0.9967
vn 0.1421 -0.0269 0.9895
vn 0.0875 0.0770 0.9932
vn 0.1410 0.3933 0.9085
vn 0.6786 0.6965 0.2330
vn 0.3280 0.5181 0.7899
vn 0.9412 -0.0524 0.3336
vn 0.9400 -0.0507 -0.3373
vn 0.9434 -0.2550 0.2119
vn 0.8750 -0.2010 -0.4403
vn 0.9775 0.1322 -0.1643
vn 0.6994 0.1471 -0.6994
vn 0.5285 -0.3118 -0.7896
vn 0.2919 0.0845 -0.9527
vn 0.1293 -0.3572 -0.9250
vn -0.2031 -0.3832 -0.9010
vn -0.1329 0.2050 -0.9697
vn -0.3974 -0.5321 -0.7476
vn -0.4891 -0.5496 -0.6773
vn -0.3735 0.8069 -0.4576
vn -0.9101 0.3097 -0.2752
vn -0.4955 0.2699 -0.8256
vn 0.5085 0.7968 -0.3263
vn -0.6842 0.7275 0.0515
vn 0.1607 0.8075 0.5675
vn -0.5509 0.5278 0.6465
vn 0.1239 0.4723 0.8727
vn -0.0775 0.3723 0.9249
vn 0.6665 0.3646 0.6502
vn -0.2616 -0.0924 0.9607
vn -0.9768 -0.0701 0.2026
vn -0.9920 -0.1241 -0.0215
vn -0.9666 -0.0058 -0.2561
vn -0.7696 -0.1236 -0.6264
vn -0.4777 -0.0281 -0.8781
vn -0.7453 -0.0169 -0.6665
vn -0.2306 -0.0108 -0.9730
vn -0.3268 -0.0111 -0.9450
vn -0.7535 -0.1661 -0.6361
vn -0.9713 -0.2207 -0.0884
vn -0.6216 -0.1795 -0.7625
vn -0.8974 -0.3364 -0.2853
vn -0.8502 -0.2537 -0.4614
vn -0.9425 -0.3342 0.0076
vn -0.8181 -0.3034 0.4885
vn -0.8680 -0.2595 0.4234
vn -0.5855 -0.2023 0.7850
vn 0.1871 0.0775 0.9793
vn -0.0165 -0.0209 0.9996
vn 0.4015 0.3764 0.8349
vn -0.4657 0.1478 0.8725
vn -0.0957 0.6863 0.7210
vn 0.5407 0.7933 0.2798
vn -0.3621 0.9261 -0.1057
vn 0.3991 0.8531 -0.3362
vn 0.1876 0.5880 -0.7868
vn 0.7396 0.5284 -0.4169
vn 0.3350 0.2981 -0.8938
vn -0.1864 0.6568 -0.7306
vn -0.2070 0.1641 -0.9645
vn -0.0207 0.9792 0.2018
vn -0.8823 0.3916 0.2611
vn -0.8223 0.4945 -0.2817
vn -0.6217 0.7534 0.2139
vn -0.3770 0.8880 -0.2634
vn -0.4824 0.4911 -0.7254
vn -0.1110 0.7791 -0.6170
vn 0.3206 0.8791 -0.3526
vn 0.4023 0.9153 0.0181
vn 0.3057 0.5757 -0.7584
vn 0.3502 0.7949 0.4955
vn -0.1392 0.9668 0.2145
vn 0.8005 0.4826 0.3553
vn 0.9236 0.0994 0.3703
vn 0.6261 0.0897 0.7746
vn 0.6014 -0.3556 0.7154
vn -0.1989 -0.2068 0.9580
vn -0.2351 -0.6732 0.7011
vn 0.2391 -0.3729 0.8965
vn -0.5330 -0.3094 0.7875
vn 0.5071 -0.4766 0.7181
vn -0.3700 -0.1712 0.9131
vn 0.9582 0.2772 0.0704
vn 0.2762 -0.4221 -0.8635
vn 0.3912 -0.9017 -0.1841
vn -0.8256 -0.4965 -0.2681
vn -0.6934 -0.2492 -0.6761
vn -0.5353 -0.0312 -0.8441
vn -0.8228 0.1935 -0.5344
vn 0.7927 0.5164 -0.3239
vn 0.5251 -0.2075 0.8253
vn 0.2722 -0.7665 0.5817
vn -0.1388 -0.2592 0.9558
vn -0.7329 0.0678 0.6770
vn -0.5923 -0.7142 0.3730
vn -0.5760 -0.8129 -0.0862
vn 0.2971 0.3149 -0.9014
vn -0.2063 0.0476 -0.9773
vn -0.0632 0.0642 -0.9959
vn -0.0125 0.3657 -0.9307
vn -0.0643 0.0053 -0.9979
vn -0.4900 -0.3053 -0.8165
vn -0.8874 -0.2287 -0.4002
vn -0.0403 -0.2103 -0.9768
vn -0.7066 -0.1479 -0.6919
vn -0.1651 -0.0752 -0.9834
vn -0.3916 -0.1393 -0.9095
vn 0.1535 -0.1457 -0.9773
vn 0.2570 -0.3132 -0.9143
vn 0.7046 -0.2052 -0.6793
vn 0.8731 -0.2899 -0.3921
vn 0.9796 -0.1354 0.1483
vn 0.9040 -0.0630 -0.4228
vn 0.5172 -0.0122 -0.8558
vn 0.3298 -0.0280 -0.9436
vn 0.8306 -0.1736 -0.5292
vn -0.0236 -0.4245 -0.9051
vn -0.1410 -0.6134 -0.7771
vn 0.9347 -0.2547 0.2480
vn -0.1275 -0.0191 -0.9917
vn -0.0282 -0.0526 -0.9982
vn 0.0825 0.0263 -0.9962
vn 0.4019 0.4665 -0.7879
vn 0.3859 0.6949 -0.6067
vn 0.6288 0.6864 -0.3654
vn 0.5621 -0.2359 -0.7927
vn 0.1201 -0.0461 -0.9917
vn 0.1006 0.0005 -0.9949
vn -0.3314 -0.0023 -0.9435
vn -0.7944 0.0634 -0.6041
vn -0.1926 0.2137 -0.9577
vn -0.4704 0.6199 -0.6281
vn -0.7140 0.5763 0.3976
vn -0.9759 0.1920 0.1042
vn -0.9724 -0.2318 0.0282
vn -0.7153 -0.2122 0.6658
vn -0.7806 -0.3127 0.5411
vn -0.8248 -0.2370 -0.5134
vn -0.3556 -0.1727 0.9185
vn 0.0157 0.2432 0.9698
vn 0.8399 0.4531 0.2988
vn -0.7347 0.1400 0.6638
vn -0.4688 0.5307 0.7061
vn -0.4056 0.1228 0.9057
vn -0.1219 0.7132 0.6903
vn 0.2927 0.5507 0.7817
vn 0.0466 0.2413 0.9693
vn -0.9711 -0.0424 -0.2349
vn 0.8054 0.1567 0.5716
vn 0.9984 -0.0425 0.0386
vn 0.8169 0.0424 -0.5752
vn 0.7520 0.0779 -0.6545
vn 0.9866 0.0994 -0.1296
vn 0.8950 0.2732 -0.3527
vn 0.2221 -0.1191 0.9677
vn 0.0916 -0.1444 0.9853
vn 0.3002 -0.1352 0.9442
vn 0.2231 -0.0356 0.9742
vn 0.0103 -0.1582 0.9874
vn 0.3324 -0.4768 0.8137
vn -0.3072 -0.5169 0.7990
vn -0.3091 -0.1292 0.9422
vn -0.2907 -0.7393 0.6074
vn 0.9741 -0.2206 0.0505
vn 0.9776 -0.1750 -0.1171
vn 0.9600 -0.2472 -0.1316
vn 0.7639 -0.2406 0.5988
vn 0.8123 -0.0894 0.5763
vn 0.7906 -0.1025 0.6037
vn 0.3205 -0.1105 0.9408
vn 0.1573 -0.3069 0.9387
vn -0.8949 -0.0959 0.4359
vn -0.7912 -0.0879 0.6053
vn -0.4212 -0.1876 0.8874
vn -0.9365 -0.2017 0.2869
vn -0.6460 -0.2306 0.7277
vn -0.0000 -1.0000 -0.0000
s 1
f 28//1 1//2 27//3
f 2//4 27//3 1//2
f 2//4 1//2 188//5
f 2//4 188//5 3//6
f 5//7 3//6 4//8
f 191//9 5//7 4//8
f 191//9 135//10 5//7
f 6//11 135//10 191//9
f 7//12 129//13 6//11
f 129//13 7//12 184//14
f 130//15 129//13 183//16
f 132//17 130//15 183//16
f 192//18 183//16 193//19
f 132//17 183//16 192//18
f 8//20 9//21 132//17
f 196//22 10//23 9//21
f 11//24 221//25 10//23
f 221//25 149//26 10//23
f 119//27 12//28 13//29
f 13//29 12//28 220//30
f 14//31 216//32 15//33
f 16//34 14//31 15//33
f 202//35 18//36 17//37
f 202//35 19//38 18//36
f 20//39 19//38 21//40
f 21//40 19//38 202//35
f 22//41 210//42 23//43
f 23//43 210//42 24//44
f 209//45 24//44 210//42
f 45//46 24//44 25//47
f 45//46 25//47 44//48
f 44//48 25//47 208//49
f 208//49 198//50 44//48
f 44//48 198//50 26//51
f 102//52 26//51 28//1
f 102//52 28//1 27//3
f 30//53 29//54 27//3
f 31//55 32//56 77//57
f 32//56 33//58 77//57
f 33//58 76//59 77//57
f 33//58 34//60 76//59
f 141//61 35//62 34//60
f 141//61 36//63 35//62
f 37//64 88//65 36//63
f 38//66 37//64 36//63
f 39//67 37//64 38//66
f 40//68 95//69 96//70
f 40//68 42//71 41//72
f 42//71 43//73 93//74
f 43//73 166//75 94//76
f 56//77 166//75 43//73
f 94//76 26//51 102//52
f 55//78 26//51 166//75
f 166//75 26//51 94//76
f 44//48 26//51 55//78
f 45//46 181//79 23//43
f 181//79 115//80 23//43
f 179//81 46//82 115//80
f 47//83 46//82 48//84
f 112//85 47//83 48//84
f 110//86 112//85 48//84
f 110//86 48//84 49//87
f 49//87 50//88 51//89
f 51//89 50//88 52//90
f 51//89 52//90 157//91
f 52//90 156//92 157//91
f 52//90 50//88 53//93
f 50//88 54//94 53//93
f 53//93 54//94 178//95
f 53//93 178//95 55//78
f 55//78 178//95 44//48
f 164//96 55//78 166//75
f 56//77 57//97 164//96
f 57//97 56//77 169//98
f 58//99 57//97 169//98
f 59//100 58//99 169//98
f 168//101 59//100 169//98
f 153//102 59//100 168//101
f 168//101 60//103 153//102
f 62//104 60//103 61//105
f 61//105 165//106 62//104
f 63//107 165//106 61//105
f 105//108 165//106 63//107
f 63//107 64//109 66//110
f 68//111 63//107 66//110
f 67//112 68//111 66//110
f 70//113 68//111 67//112
f 103//114 68//111 70//113
f 69//115 103//114 70//113
f 69//115 70//113 71//116
f 71//116 70//113 72//117
f 89//118 69//115 71//116
f 73//119 72//117 172//120
f 74//121 72//117 73//119
f 74//121 75//122 76//59
f 177//123 77//57 75//122
f 78//124 77//57 177//123
f 79//125 80//126 176//127
f 81//128 80//126 79//125
f 82//129 80//126 81//128
f 83//130 82//129 81//128
f 56//77 82//129 83//130
f 56//77 85//131 82//129
f 56//77 43//73 85//131
f 85//131 43//73 42//71
f 42//71 107//132 85//131
f 85//131 107//132 98//133
f 39//67 107//132 106//134
f 86//135 39//67 106//134
f 86//135 106//134 105//108
f 87//136 86//135 104//137
f 37//64 87//136 88//65
f 87//136 103//114 88//65
f 88//65 103//114 69//115
f 89//118 88//65 69//115
f 34//60 35//62 89//118
f 34//60 89//118 90//138
f 90//138 89//118 71//116
f 76//59 34//60 90//138
f 72//117 90//138 71//116
f 74//121 90//138 72//117
f 76//59 90//138 74//121
f 75//122 77//57 76//59
f 91//139 31//55 77//57
f 77//57 78//124 91//139
f 91//139 92//140 101//141
f 91//139 101//141 29//54
f 93//74 94//76 101//141
f 101//141 100//142 93//74
f 93//74 43//73 94//76
f 41//72 93//74 100//142
f 41//72 42//71 93//74
f 95//69 41//72 99//143
f 97//144 95//69 99//143
f 96//70 95//69 97//144
f 97//144 38//66 96//70
f 107//132 39//67 38//66
f 38//66 97//144 107//132
f 87//136 37//64 39//67
f 39//67 86//135 87//136
f 36//63 88//65 35//62
f 35//62 88//65 89//118
f 98//133 107//132 97//144
f 99//143 100//142 101//141
f 101//141 92//140 80//126
f 80//126 92//140 176//127
f 80//126 99//143 101//141
f 82//129 99//143 80//126
f 97//144 99//143 82//129
f 98//133 97//144 82//129
f 82//129 85//131 98//133
f 92//140 91//139 176//127
f 176//127 91//139 78//124
f 99//143 41//72 100//142
f 95//69 40//68 41//72
f 94//76 102//52 29//54
f 94//76 29//54 101//141
f 29//54 102//52 27//3
f 91//139 29//54 31//55
f 29//54 30//53 31//55
f 104//137 68//111 103//114
f 103//114 87//136 104//137
f 104//137 63//107 68//111
f 104//137 105//108 63//107
f 86//135 105//108 104//137
f 107//132 105//108 106//134
f 107//132 108//145 105//108
f 42//71 108//145 107//132
f 40//68 108//145 42//71
f 109//146 108//145 40//68
f 137//147 109//146 143//148
f 137//147 110//86 109//146
f 112//85 137//147 111//149
f 112//85 110//86 137//147
f 19//38 20//39 112//85
f 47//83 112//85 20//39
f 46//82 47//83 20//39
f 113//150 46//82 20//39
f 21//40 113//150 20//39
f 115//80 114//151 22//41
f 114//151 115//80 46//82
f 23//43 115//80 22//41
f 23//43 24//44 45//46
f 114//151 46//82 113//150
f 18//36 19//38 112//85
f 18//36 112//85 111//149
f 18//36 111//149 116//152
f 117//153 116//152 147//154
f 118//155 117//153 147//154
f 118//155 13//29 117//153
f 117//153 13//29 14//31
f 119//27 13//29 118//155
f 119//27 118//155 125//156
f 120//157 119//27 125//156
f 123//158 120//157 125//156
f 120//157 123//158 124//159
f 149//26 121//160 10//23
f 124//159 123//158 122//161
f 123//158 125//156 126//162
f 126//162 125//156 127//163
f 122//161 126//162 127//163
f 133//164 127//163 146//165
f 146//165 128//166 130//15
f 130//15 128//166 129//13
f 132//17 131//167 130//15
f 131//167 132//17 9//21
f 121//160 131//167 9//21
f 121//160 122//161 131//167
f 133//164 146//165 130//15
f 131//167 133//164 130//15
f 122//161 127//163 133//164
f 131//167 122//161 133//164
f 122//161 123//158 126//162
f 9//21 10//23 121//160
f 129//13 128//166 6//11
f 6//11 128//166 135//10
f 134//168 136//169 135//10
f 137//147 143//148 5//7
f 143//148 142//170 138//171
f 143//148 138//171 144//172
f 138//171 32//56 139//173
f 32//56 140//174 33//58
f 141//61 33//58 140//174
f 33//58 141//61 34//60
f 36//63 141//61 140//174
f 142//170 36//63 140//174
f 143//148 96//70 142//170
f 143//148 109//146 96//70
f 109//146 40//68 96//70
f 96//70 38//66 142//170
f 142//170 38//66 36//63
f 138//171 142//170 140//174
f 138//171 140//174 32//56
f 31//55 139//173 32//56
f 31//55 30//53 139//173
f 144//172 138//171 139//173
f 3//6 144//172 2//4
f 144//172 139//173 2//4
f 2//4 139//173 30//53
f 27//3 2//4 30//53
f 143//148 144//172 3//6
f 5//7 143//148 3//6
f 145//175 137//147 5//7
f 136//169 145//175 5//7
f 5//7 135//10 136//169
f 148//176 111//149 137//147
f 137//147 145//175 148//176
f 127//163 134//168 146//165
f 135//10 146//165 134//168
f 135//10 128//166 146//165
f 134//168 127//163 136//169
f 127//163 145//175 136//169
f 145//175 127//163 148//176
f 125//156 148//176 127//163
f 118//155 147//154 125//156
f 125//156 147//154 148//176
f 116//152 111//149 147//154
f 147//154 111//149 148//176
f 149//26 124//159 121//160
f 121//160 124//159 122//161
f 117//153 14//31 116//152
f 116//152 14//31 16//34
f 17//37 18//36 16//34
f 18//36 116//152 16//34
f 110//86 51//89 109//146
f 110//86 49//87 51//89
f 109//146 51//89 150//177
f 150//177 161//178 151//179
f 62//104 151//179 152//180
f 151//179 161//178 152//180
f 62//104 152//180 153//102
f 62//104 153//102 60//103
f 153//102 154//181 59//100
f 154//181 160//182 58//99
f 154//181 58//99 59//100
f 160//182 159//183 155//184
f 160//182 155//184 58//99
f 162//185 155//184 159//183
f 159//183 156//92 162//185
f 156//92 52//90 53//93
f 157//91 156//92 158//186
f 161//178 159//183 160//182
f 150//177 158//186 161//178
f 158//186 150//177 157//91
f 51//89 157//91 150//177
f 159//183 161//178 158//186
f 152//180 161//178 160//182
f 152//180 160//182 153//102
f 160//182 154//181 153//102
f 158//186 156//92 159//183
f 156//92 53//93 162//185
f 162//185 53//93 163//187
f 53//93 55//78 163//187
f 164//96 163//187 55//78
f 57//97 163//187 164//96
f 155//184 57//97 58//99
f 57//97 155//184 163//187
f 155//184 162//185 163//187
f 151//179 62//104 165//106
f 108//145 165//106 105//108
f 108//145 109//146 165//106
f 165//106 109//146 150//177
f 165//106 150//177 151//179
f 164//96 166//75 56//77
f 84//188 56//77 83//130
f 56//77 84//188 169//98
f 84//188 64//109 167//189
f 167//189 61//105 168//101
f 60//103 168//101 61//105
f 167//189 168//101 169//98
f 84//188 167//189 169//98
f 167//189 63//107 61//105
f 64//109 63//107 167//189
f 64//109 84//188 65//190
f 66//110 64//109 65//190
f 171//191 65//190 170//192
f 67//112 171//191 173//193
f 172//120 67//112 173//193
f 70//113 67//112 172//120
f 70//113 172//120 72//117
f 66//110 171//191 67//112
f 66//110 65//190 171//191
f 73//119 172//120 173//193
f 73//119 173//193 174//194
f 173//193 175//195 174//194
f 173//193 171//191 175//195
f 171//191 170//192 175//195
f 170//192 79//125 175//195
f 81//128 79//125 170//192
f 79//125 176//127 175//195
f 65//190 81//128 170//192
f 83//130 81//128 65//190
f 65//190 84//188 83//130
f 175//195 176//127 177//123
f 175//195 177//123 174//194
f 174//194 177//123 74//121
f 174//194 74//121 73//119
f 177//123 75//122 74//121
f 177//123 176//127 78//124
f 45//46 44//48 178//95
f 54//94 45//46 178//95
f 180//196 50//88 49//87
f 48//84 180//196 49//87
f 48//84 179//81 180//196
f 46//82 179//81 48//84
f 180//196 179//81 181//79
f 181//79 179//81 115//80
f 50//88 180//196 181//79
f 54//94 50//88 181//79
f 181//79 45//46 54//94
f 28//1 182//197 1//2
f 193//19 182//197 28//1
f 193//19 190//198 182//197
f 193//19 184//14 190//198
f 193//19 183//16 184//14
f 184//14 7//12 190//198
f 7//12 185//199 190//198
f 6//11 185//199 7//12
f 185//199 6//11 186//200
f 185//199 186//200 189//201
f 186//200 191//9 4//8
f 186//200 4//8 187//202
f 189//201 186//200 187//202
f 188//5 187//202 3//6
f 188//5 189//201 187//202
f 189//201 188//5 182//197
f 190//198 189//201 182//197
f 190//198 185//199 189//201
f 182//197 188//5 1//2
f 187//202 4//8 3//6
f 6//11 191//9 186//200
f 183//16 129//13 184//14
f 28//1 192//18 193//19
f 212//203 195//204 28//1
f 212//203 28//1 26//51
f 198//50 212//203 26//51
f 194//205 8//20 195//204
f 195//204 8//20 192//18
f 195//204 192//18 28//1
f 132//17 192//18 8//20
f 8//20 194//205 196//22
f 196//22 9//21 8//20
f 198//50 197//206 196//22
f 199//207 197//206 198//50
f 199//207 213//208 200//209
f 200//209 223//210 199//207
f 213//208 201//211 200//209
f 15//33 17//37 16//34
f 214//212 17//37 15//33
f 215//213 17//37 214//212
f 215//213 203//214 202//35
f 21//40 202//35 203//214
f 215//213 202//35 17//37
f 209//45 204//215 205//216
f 207//217 209//45 205//216
f 209//45 207//217 206//218
f 213//208 206//218 207//217
f 25//47 206//218 208//49
f 208//49 206//218 213//208
f 208//49 213//208 199//207
f 25//47 209//45 206//218
f 24//44 209//45 25//47
f 210//42 211//219 209//45
f 211//219 204//215 209//45
f 198//50 208//49 199//207
f 198//50 196//22 212//203
f 196//22 194//205 212//203
f 207//217 214//212 213//208
f 207//217 205//216 214//212
f 205//216 215//213 214//212
f 204//215 203//214 215//213
f 204//215 215//213 205//216
f 213//208 214//212 201//211
f 214//212 15//33 201//211
f 15//33 216//32 201//211
f 216//32 217//220 224//221
f 224//221 217//220 222//222
f 218//223 222//222 217//220
f 222//222 218//223 219//224
f 220//30 12//28 218//223
f 220//30 218//223 217//220
f 14//31 220//30 216//32
f 13//29 220//30 14//31
f 220//30 217//220 216//32
f 219//224 221//25 222//222
f 222//222 221//25 11//24
f 224//221 222//222 223//210
f 223//210 222//222 11//24
f 200//209 224//221 223//210
f 224//221 200//209 201//211
f 216//32 224//221 201//211
f 199//207 223//210 197//206
f 197//206 11//24 196//22
f 196//22 11//24 10//23
f 223//210 11//24 197//206
f 212//203 194//205 195//204
f 239//225 236//225 242//225
f 242//225 236//225 234//225
f 236//225 241//225 234//225
f 225//225 234//225 241//225
f 238//225 234//225 225//225
f 227//225 238//225 225//225
f 240//225 238//225 227//225
f 226//225 240//225 227//225
f 230//225 232//225 231//225
f 232//225 230//225 233//225
f 233//225 230//225 235//225
f 229//225 235//225 230//225
f 243//225 235//225 229//225
f 243//225 229//225 228//225
f 237//225 244//225 228//225
f 244//225 243//225 228//225
