# Blender 5.2.0 LTS
# www.blender.org
mtllib pencil-edited.mtl
o pencil
v -0.000000 -0.009539 -0.061723
v 0.001041 -0.006886 0.227818
v -0.000000 -0.007746 -0.060116
v -0.000000 -0.007746 -0.060116
v -0.000000 -0.003684 0.227773
v -0.000000 -0.003684 0.227773
v -0.001684 -0.008969 -0.060099
v -0.001684 -0.008969 -0.060099
v -0.001684 -0.004907 0.227790
v -0.001684 -0.004907 0.227790
v -0.001041 -0.010948 -0.060071
v -0.001041 -0.010948 -0.060071
v -0.001041 -0.006886 0.227818
v -0.001041 -0.006886 0.227818
v 0.001041 -0.010948 -0.060071
v 0.001041 -0.010948 -0.060071
v 0.001041 -0.006886 0.227818
v 0.001684 -0.008969 -0.060099
v 0.001684 -0.008969 -0.060099
v 0.001684 -0.004907 0.227790
v 0.001684 -0.004907 0.227790
v 0.000000 -0.006729 0.437497
v 0.000000 -0.022694 0.415818
v 0.000000 -0.022599 0.434679
v -0.000353 -0.022747 0.434680
v 0.001633 -0.022665 0.415818
v -0.002753 -0.022358 0.434678
v -0.003878 -0.022269 0.415816
v -0.002753 -0.022453 0.415817
v -0.005423 -0.021643 0.434674
v -0.007987 -0.020577 0.434669
v -0.005423 -0.021738 0.415813
v -0.007927 -0.020475 0.434668
v -0.009138 -0.019890 0.415804
v -0.007927 -0.020570 0.415808
v -0.010191 -0.018889 0.434660
v -0.010191 -0.018985 0.415800
v -0.012145 -0.016935 0.434650
v -0.013051 -0.015882 0.434645
v -0.013016 -0.015954 0.415784
v -0.012145 -0.017031 0.415790
v -0.013731 -0.014671 0.434639
v -0.013731 -0.014767 0.415778
v -0.014899 -0.012167 0.434626
v -0.015822 -0.009176 0.434611
v -0.015389 -0.010963 0.415759
v -0.014899 -0.012262 0.415765
v -0.015614 -0.009497 0.434613
v -0.015614 -0.009593 0.415752
v -0.015855 -0.006744 0.434599
v -0.015549 -0.002673 0.415717
v -0.015855 -0.006840 0.415738
v -0.015614 -0.003991 0.434585
v -0.015301 -0.002388 0.434577
v -0.015614 -0.004087 0.415724
v -0.014899 -0.001322 0.434571
v -0.014899 -0.001417 0.415711
v -0.013731 0.001183 0.434559
v -0.012033 0.003813 0.434545
v -0.013731 0.001088 0.415698
v -0.012145 0.003447 0.434547
v -0.011423 0.004233 0.415682
v -0.012145 0.003351 0.415686
v -0.010191 0.005401 0.434537
v -0.010191 0.005306 0.415676
v -0.007927 0.006986 0.434529
v -0.005142 0.008415 0.434522
v -0.005805 0.008078 0.415662
v -0.007927 0.006891 0.415668
v -0.005423 0.008154 0.434523
v -0.005423 0.008059 0.415663
v -0.002753 0.008870 0.434520
v -0.002753 0.008774 0.415659
v 0.000000 0.009110 0.434518
v 0.001633 0.009081 0.434519
v 0.001140 0.009028 0.415658
v -0.000000 0.009015 0.415658
v 0.002753 0.008870 0.434520
v 0.002753 0.008774 0.415659
v 0.005423 0.008154 0.434523
v 0.009233 0.006442 0.434532
v 0.006733 0.007599 0.415665
v 0.005423 0.008059 0.415663
v 0.007927 0.006986 0.434529
v 0.007927 0.006891 0.415668
v 0.010191 0.005401 0.434537
v 0.011423 0.004233 0.415682
v 0.010191 0.005306 0.415676
v 0.012145 0.003447 0.434547
v 0.012145 0.003351 0.415686
v 0.013731 0.001183 0.434559
v 0.015078 -0.001256 0.434571
v 0.015549 -0.002673 0.415717
v 0.013731 0.001088 0.415698
v 0.014899 -0.001322 0.434571
v 0.014899 -0.001417 0.415711
v 0.015614 -0.003991 0.434585
v 0.015614 -0.004087 0.415724
v 0.015855 -0.006744 0.434599
v 0.015699 -0.009871 0.434615
v 0.015855 -0.006840 0.415738
v 0.015614 -0.009497 0.434613
v 0.015429 -0.010718 0.415758
v 0.015614 -0.009593 0.415752
v 0.014899 -0.012167 0.434626
v 0.014899 -0.012262 0.415765
v 0.013731 -0.014671 0.434639
v 0.012889 -0.016071 0.434646
v 0.013172 -0.015761 0.415783
v 0.013731 -0.014767 0.415778
v 0.012145 -0.016935 0.434650
v 0.012145 -0.017031 0.415790
v 0.010191 -0.018889 0.434660
v 0.007696 -0.020780 0.434670
v 0.008307 -0.020522 0.415807
v 0.010191 -0.018985 0.415800
v 0.007927 -0.020475 0.434668
v 0.007927 -0.020570 0.415808
v 0.005423 -0.021643 0.434674
v 0.005423 -0.021738 0.415813
v 0.002753 -0.022358 0.434678
v 0.002753 -0.022453 0.415817
v 0.009588 -0.018001 0.435860
v -0.013972 -0.001888 0.435780
v -0.014665 -0.007873 0.435803
v 0.013359 -0.012888 0.435827
v 0.014788 -0.006517 0.435804
v -0.007196 -0.019665 0.435869
v -0.012757 -0.014225 0.435841
v 0.012862 0.000566 0.435766
v -0.001354 -0.021383 0.435870
v 0.008440 0.005315 0.435735
v 0.003805 0.007461 0.435725
v -0.007934 0.005770 0.435757
v -0.001394 0.007896 0.435724
v 0.003911 -0.020914 0.435869
v 0.008697 0.008266 0.419895
v -0.000000 -0.007066 0.366894
v 0.000000 -0.024190 0.420059
v 0.000000 -0.024190 0.420059
v 0.000000 -0.024310 0.416377
v 0.000059 -0.024400 0.413232
v -0.000051 -0.024369 0.409268
v 0.000000 -0.024462 0.406193
v 0.000000 -0.024432 0.402152
v 0.000000 -0.024398 0.398972
v -0.000051 -0.024496 0.395036
v 0.000051 -0.024511 0.392007
v -0.000059 -0.024480 0.388032
v 0.000059 -0.024496 0.384856
v 0.000000 -0.024540 0.380921
v 0.000059 -0.024579 0.377848
v -0.000112 -0.024576 0.373844
v 0.000051 -0.024619 0.370776
v -0.000000 -0.024459 0.366982
v -0.000000 -0.024459 0.366982
v -0.008697 -0.021860 0.420047
v -0.008697 -0.021860 0.420047
v -0.008797 -0.022054 0.416222
v -0.008772 -0.022026 0.413186
v -0.008772 -0.022046 0.409217
v -0.008747 -0.022018 0.406037
v -0.008772 -0.022082 0.402140
v -0.008733 -0.022147 0.399067
v -0.008802 -0.022068 0.395102
v -0.008772 -0.022133 0.391955
v -0.008830 -0.022152 0.387947
v -0.008676 -0.022225 0.384879
v -0.008835 -0.022181 0.380875
v -0.008772 -0.022205 0.377801
v -0.008811 -0.022175 0.373866
v -0.008709 -0.022250 0.370691
v -0.008697 -0.022129 0.366970
v -0.008697 -0.022129 0.366970
v -0.015063 -0.015494 0.420015
v -0.015063 -0.015494 0.420015
v -0.015250 -0.015492 0.416261
v -0.015144 -0.015643 0.413120
v -0.015243 -0.015594 0.409145
v -0.015138 -0.015737 0.406077
v -0.015244 -0.015621 0.402073
v -0.015145 -0.015706 0.398961
v -0.015194 -0.015696 0.395030
v -0.015243 -0.015681 0.391962
v -0.015203 -0.015669 0.387987
v -0.015192 -0.015805 0.384885
v -0.015203 -0.015705 0.380910
v -0.015144 -0.015822 0.377735
v -0.015243 -0.015774 0.373760
v -0.015138 -0.015916 0.370692
v -0.015063 -0.015763 0.366938
v -0.015063 -0.015763 0.366938
v -0.017393 -0.006797 0.419971
v -0.017393 -0.006797 0.419971
v -0.017494 -0.006816 0.416289
v -0.017568 -0.006891 0.413144
v -0.017544 -0.006740 0.409139
v -0.017544 -0.006979 0.406033
v -0.017517 -0.006837 0.402102
v -0.017595 -0.006903 0.399027
v -0.017544 -0.006924 0.394986
v -0.017517 -0.006889 0.391839
v -0.017544 -0.006960 0.387909
v -0.017521 -0.007034 0.384768
v -0.017572 -0.006945 0.380792
v -0.017544 -0.007123 0.377725
v -0.017544 -0.006920 0.373754
v -0.017544 -0.007159 0.370648
v -0.017393 -0.007066 0.366894
v -0.017393 -0.007066 0.366894
v -0.015063 0.001899 0.419927
v -0.015063 0.001899 0.419927
v -0.015238 0.001981 0.416100
v -0.015195 0.001882 0.413026
v -0.015145 0.001950 0.409135
v -0.015244 0.001866 0.406022
v -0.015185 0.001947 0.401984
v -0.015145 0.001898 0.398872
v -0.015194 0.001848 0.394941
v -0.015203 0.001770 0.391800
v -0.015192 0.001870 0.387825
v -0.015243 0.001767 0.384796
v -0.015144 0.001816 0.380821
v -0.015250 0.001664 0.377681
v -0.015145 0.001771 0.373750
v -0.015244 0.001686 0.370637
v -0.015063 0.001631 0.366849
v -0.015063 0.001631 0.366849
v -0.008697 0.008266 0.419895
v -0.008697 0.008266 0.419895
v -0.008747 0.008334 0.416212
v -0.008797 0.008406 0.413104
v -0.008811 0.008292 0.409097
v -0.008772 0.008326 0.405955
v -0.008715 0.008308 0.402025
v -0.008772 0.008290 0.398878
v -0.008742 0.008319 0.394869
v -0.008869 0.008199 0.391802
v -0.008676 0.008290 0.387832
v -0.008811 0.008168 0.384691
v -0.008742 0.008247 0.380715
v -0.008830 0.008181 0.377687
v -0.008772 0.008162 0.373678
v -0.008772 0.008147 0.370571
v -0.008697 0.007997 0.366817
v -0.008697 0.007997 0.366817
v -0.000000 0.010596 0.419883
v -0.000000 0.010596 0.419883
v -0.000000 0.010778 0.416056
v -0.000000 0.010662 0.412949
v -0.000000 0.010742 0.408979
v -0.000051 0.010649 0.405904
v 0.000059 0.010680 0.401940
v -0.000000 0.010641 0.398867
v 0.000000 0.010571 0.394969
v -0.000000 0.010656 0.391861
v 0.000059 0.010561 0.387854
v -0.000112 0.010569 0.384713
v 0.000051 0.010522 0.380782
v -0.000000 0.010533 0.377636
v -0.000000 0.010513 0.373666
v -0.000000 0.010497 0.370559
v -0.000000 0.010327 0.366805
v -0.000000 0.010327 0.366805
v 0.008697 0.008266 0.419895
v 0.008747 0.008334 0.416212
v 0.008733 0.008412 0.413066
v 0.008869 0.008286 0.409063
v 0.008676 0.008382 0.405955
v 0.008802 0.008257 0.402025
v 0.008772 0.008290 0.398878
v 0.008797 0.008313 0.394837
v 0.008802 0.008205 0.391762
v 0.008772 0.008234 0.387832
v 0.008676 0.008274 0.384724
v 0.008772 0.008198 0.380755
v 0.008772 0.008183 0.377648
v 0.008835 0.008154 0.373644
v 0.008772 0.008147 0.370571
v 0.008697 0.007997 0.366817
v 0.008697 0.007997 0.366817
v 0.015063 0.001899 0.419927
v 0.015063 0.001899 0.419927
v 0.015238 0.001981 0.416100
v 0.015194 0.001940 0.413065
v 0.015150 0.001895 0.409167
v 0.015185 0.001967 0.406022
v 0.015244 0.001845 0.401985
v 0.015145 0.001898 0.398872
v 0.015195 0.001791 0.394981
v 0.015194 0.001833 0.391834
v 0.015194 0.001813 0.387864
v 0.015238 0.001822 0.384829
v 0.015144 0.001816 0.380821
v 0.015194 0.001761 0.377680
v 0.015195 0.001683 0.373750
v 0.015194 0.001725 0.370603
v 0.015063 0.001631 0.366849
v 0.015063 0.001631 0.366849
v 0.017393 -0.006797 0.419971
v 0.017393 -0.006797 0.419971
v 0.017517 -0.006867 0.416256
v 0.017544 -0.006832 0.413109
v 0.017572 -0.006802 0.409100
v 0.017572 -0.006918 0.406072
v 0.017494 -0.006888 0.402135
v 0.017568 -0.006845 0.398989
v 0.017568 -0.006983 0.394952
v 0.017517 -0.006889 0.391839
v 0.017544 -0.006960 0.387909
v 0.017521 -0.007034 0.384768
v 0.017572 -0.006945 0.380792
v 0.017572 -0.007062 0.377764
v 0.017544 -0.007031 0.373755
v 0.017517 -0.006997 0.370608
v 0.017393 -0.007066 0.366894
v 0.017393 -0.007066 0.366894
v 0.015063 -0.015494 0.420015
v 0.015063 -0.015494 0.420015
v 0.015203 -0.015525 0.416295
v 0.015194 -0.015604 0.413154
v 0.015185 -0.015687 0.409151
v 0.015150 -0.015615 0.406005
v 0.015238 -0.015686 0.402036
v 0.015195 -0.015618 0.398960
v 0.015138 -0.015792 0.395031
v 0.015250 -0.015615 0.391922
v 0.015194 -0.015732 0.387953
v 0.015192 -0.015805 0.384885
v 0.015203 -0.015705 0.380910
v 0.015144 -0.015822 0.377735
v 0.015194 -0.015803 0.373799
v 0.015238 -0.015844 0.370764
v 0.015063 -0.015763 0.366938
v 0.015063 -0.015763 0.366938
v 0.008697 -0.021860 0.420047
v 0.008697 -0.021860 0.420047
v 0.008797 -0.022054 0.416222
v 0.008802 -0.021977 0.413147
v 0.008676 -0.022102 0.409217
v 0.008869 -0.022006 0.406109
v 0.008715 -0.022083 0.402179
v 0.008797 -0.022141 0.399104
v 0.008709 -0.022126 0.395097
v 0.008869 -0.022077 0.391955
v 0.008733 -0.022204 0.387952
v 0.008715 -0.022171 0.384839
v 0.008835 -0.022181 0.380875
v 0.008802 -0.022156 0.377762
v 0.008733 -0.022275 0.373798
v 0.008747 -0.022198 0.370652
v 0.008697 -0.022129 0.366970
v 0.008697 -0.022129 0.366970
v -0.007270 -0.019659 0.366957
v -0.000000 -0.021607 0.366967
v -0.012593 -0.014336 0.366930
v 0.007270 -0.019659 0.366957
v -0.014541 -0.007066 0.366894
v 0.012593 -0.014336 0.366930
v -0.012593 0.000204 0.366857
v 0.014541 -0.007066 0.366894
v -0.007270 0.005527 0.366830
v 0.012593 0.000204 0.366857
v -0.000000 0.007475 0.366820
v 0.007270 0.005527 0.366830
v -0.000000 -0.021763 0.366968
v -0.007349 -0.019794 0.366958
v 0.007349 -0.019794 0.366958
v -0.012728 -0.014415 0.366931
v 0.012728 -0.014415 0.366931
v -0.014697 -0.007066 0.366894
v 0.014697 -0.007066 0.366894
v -0.012728 0.000283 0.366856
v 0.012728 0.000283 0.366856
v -0.007349 0.005662 0.366829
v 0.007349 0.005662 0.366829
v -0.000000 0.007631 0.366819
v 0.000000 -0.023102 0.385138
v -0.000000 -0.009244 -0.058966
v 0.000000 -0.023101 0.385138
v -0.000000 -0.024940 0.022234
v -0.000000 -0.024940 0.022234
v -0.012593 -0.017037 0.385108
v -0.012593 -0.017037 0.385108
v -0.012593 -0.018876 0.022203
v -0.012593 -0.018876 0.022203
v -0.015703 -0.003411 0.385039
v -0.015703 -0.003411 0.385039
v -0.015703 -0.005249 0.022134
v -0.015703 -0.005249 0.022134
v -0.006988 0.007516 0.384983
v -0.006988 0.007516 0.384983
v -0.006988 0.005678 0.022079
v -0.006988 0.005678 0.022079
v 0.006988 0.007516 0.384983
v 0.006988 0.007516 0.384983
v 0.006988 0.005678 0.022079
v 0.006988 0.005678 0.022079
v 0.015703 -0.003411 0.385039
v 0.015703 -0.003411 0.385039
v 0.015703 -0.005249 0.022134
v 0.015703 -0.005249 0.022134
v 0.012593 -0.017037 0.385108
v 0.012593 -0.017037 0.385108
v 0.012593 -0.018876 0.022203
v 0.012593 -0.018876 0.022203
vn -0.4418 0.5987 -0.6681
vn -0.5878 0.8089 -0.0114
vn -0.0000 0.0141 0.9999
vn -0.7149 -0.2416 -0.6562
vn -0.9511 -0.3090 0.0044
vn -0.0000 -0.7609 -0.6489
vn -0.0000 -0.9999 0.0141
vn 0.7149 -0.2416 -0.6562
vn 0.9511 -0.3090 0.0044
vn 0.4418 0.5987 -0.6681
vn 0.5878 0.8089 -0.0114
vn -0.2734 -0.9615 0.0267
vn -0.0000 -0.0050 -1.0000
vn -0.0000 -0.0051 -1.0000
vn 0.0102 -0.1112 0.9937
vn -0.6799 -0.7332 0.0148
vn -0.0949 0.0778 0.9924
vn -0.9241 -0.3818 0.0150
vn 0.1140 -0.0219 0.9932
vn -0.1126 -0.0278 0.9933
vn -0.1160 0.0172 0.9931
vn -0.9970 0.0765 0.0119
vn -0.8846 0.4663 0.0046
vn 0.0492 0.1107 0.9926
vn -0.5554 0.8316 0.0047
vn -0.0978 0.9952 -0.0002
vn -0.0330 0.1172 0.9926
vn 0.3279 0.9446 0.0145
vn 0.0099 0.1213 0.9926
vn 0.0526 -0.0995 0.9936
vn 0.7962 0.6047 0.0216
vn 0.0948 -0.0636 0.9935
vn 0.9972 0.0719 0.0195
vn 0.9108 -0.4128 0.0069
vn 0.1132 0.0360 0.9929
vn 0.6718 -0.7407 0.0117
vn -0.0825 -0.0791 0.9935
vn 0.0849 0.0857 0.9927
vn 0.2374 -0.9712 0.0207
vn -0.7381 -0.0612 0.6719
vn -0.6797 0.0632 0.7308
vn -0.0644 0.7392 0.6704
vn -0.0317 -0.1073 0.9937
vn 0.5329 -0.5296 0.6600
vn 0.6709 -0.3095 0.6738
vn 0.6549 -0.1717 0.7360
vn -0.6452 -0.1691 0.7451
vn -0.6173 -0.4289 0.6595
vn -0.4463 -0.4424 0.7779
vn 0.6127 0.4324 0.6616
vn 0.4258 0.6115 0.6669
vn 0.2858 0.6166 0.7335
vn 0.1911 0.7167 0.6707
vn 0.0582 0.6688 0.7412
vn -0.4443 0.6376 0.6293
vn 0.0583 -0.6626 0.7467
vn -0.6746 0.3180 0.6662
vn 0.4290 -0.6093 0.6668
vn 0.5170 -0.3581 0.7775
vn -0.6779 -0.3127 0.6653
vn 0.7415 -0.0615 0.6681
vn -0.4277 -0.6074 0.6694
vn 0.6113 0.1703 0.7729
vn 0.6830 0.3218 0.6557
vn -0.1883 -0.6404 0.7446
vn 0.4782 0.4819 0.7342
vn -0.0645 -0.7341 0.6760
vn -0.3134 0.6755 0.6675
vn -0.0000 0.0051 1.0000
vn -0.2587 -0.9654 0.0313
vn 0.2517 -0.9674 0.0269
vn -0.2596 -0.9657 0.0049
vn -0.2574 -0.9660 0.0251
vn -0.2690 -0.9631 -0.0071
vn 0.2488 -0.9680 0.0324
vn -0.2497 -0.9682 -0.0150
vn -0.2588 -0.9658 0.0173
vn -0.2602 -0.9656 -0.0004
vn 0.2610 -0.9652 0.0136
vn -0.2516 -0.9678 -0.0007
vn -0.2671 -0.9635 0.0174
vn -0.2596 -0.9657 -0.0048
vn 0.7018 -0.7120 0.0217
vn -0.2605 -0.9648 -0.0371
vn -0.7068 -0.7066 0.0348
vn -0.2566 -0.9665 0.0100
vn -0.7077 -0.7065 0.0036
vn 0.2580 -0.9660 0.0173
vn -0.7010 -0.7132 -0.0020
vn -0.2580 -0.9661 0.0075
vn -0.7088 -0.7054 0.0070
vn 0.2601 -0.9652 0.0251
vn -0.7060 -0.7081 -0.0094
vn -0.2659 -0.9639 0.0142
vn -0.7017 -0.7123 -0.0162
vn 0.2507 -0.9680 0.0142
vn -0.7077 -0.7065 0.0016
vn -0.7130 -0.7011 0.0098
vn -0.7012 -0.7117 -0.0431
vn -0.9656 -0.2586 0.0277
vn -0.7061 -0.7081 0.0087
vn -0.9636 -0.2669 -0.0157
vn -0.7065 -0.7077 0.0061
vn -0.9641 -0.2650 -0.0163
vn -0.7061 -0.7081 0.0079
vn -0.9633 -0.2680 -0.0107
vn -0.7128 -0.7008 0.0284
vn -0.9681 -0.2505 -0.0106
vn -0.7130 -0.7011 0.0128
vn -0.9665 -0.2566 -0.0040
vn -0.7055 -0.7087 0.0087
vn -0.9639 -0.2660 -0.0136
vn -0.9677 -0.2515 0.0193
vn -0.9632 -0.2649 -0.0453
vn -0.9656 0.2589 0.0251
vn -0.9658 -0.2587 0.0142
vn -0.9653 0.2610 -0.0080
vn -0.9677 -0.2504 0.0288
vn -0.9678 0.2517 -0.0090
vn -0.9653 -0.2610 0.0065
vn -0.9633 0.2679 -0.0134
vn -0.9677 -0.2505 0.0299
vn -0.9661 0.2582 0.0021
vn -0.9679 0.2505 -0.0211
vn -0.9657 -0.2597 -0.0012
vn -0.9674 0.2525 -0.0190
vn -0.9637 0.2661 0.0235
vn -0.9666 0.2513 -0.0499
vn -0.7069 0.7070 0.0228
vn -0.9659 0.2588 -0.0038
vn -0.7137 0.7002 -0.0175
vn -0.9684 0.2488 0.0169
vn -0.7065 0.7076 -0.0137
vn -0.9635 0.2670 0.0196
vn -0.7082 0.7060 -0.0001
vn -0.9663 0.2568 0.0190
vn -0.7122 0.7017 -0.0185
vn -0.6995 0.7141 0.0278
vn -0.7055 0.7087 -0.0089
vn -0.9663 0.2575 0.0074
vn -0.7123 0.7017 -0.0135
vn -0.7081 0.7061 0.0015
vn -0.7061 0.7069 -0.0425
vn -0.2587 0.9657 0.0215
vn -0.2487 0.9682 -0.0267
vn -0.7010 0.7131 0.0089
vn -0.2574 0.9663 0.0005
vn -0.2685 0.9629 0.0265
vn -0.2588 0.9658 -0.0174
vn -0.7018 0.7124 0.0027
vn -0.2667 0.9634 -0.0266
vn -0.7075 0.7067 0.0033
vn -0.2659 0.9637 -0.0226
vn -0.7081 0.7061 0.0033
vn -0.2574 0.9663 -0.0082
vn -0.2496 0.9680 0.0265
vn -0.2586 0.9650 -0.0438
vn 0.2587 0.9657 0.0215
vn -0.7087 0.7055 0.0052
vn 0.2497 0.9681 -0.0220
vn -0.2610 0.9653 -0.0006
vn 0.2515 0.9676 -0.0226
vn -0.2588 0.9659 -0.0049
vn 0.2588 0.9658 -0.0174
vn -0.2517 0.9677 0.0161
vn 0.2680 0.9632 -0.0188
vn -0.2678 0.9634 0.0071
vn 0.2527 0.9675 -0.0123
vn 0.2488 0.9682 0.0265
vn 0.2588 0.9659 -0.0029
vn -0.2505 0.9681 0.0076
vn 0.2586 0.9650 -0.0438
vn 0.7069 0.7070 0.0228
vn 0.2580 0.9661 -0.0049
vn 0.7076 0.7064 -0.0161
vn 0.2686 0.9630 0.0226
vn 0.7019 0.7122 -0.0113
vn 0.2668 0.9637 0.0131
vn 0.7081 0.7060 -0.0103
vn 0.2670 0.9637 0.0076
vn 0.7060 0.7082 -0.0001
vn 0.7137 0.7003 0.0089
vn 0.7011 0.7128 -0.0175
vn 0.2580 0.9661 0.0044
vn 0.7071 0.7070 -0.0137
vn 0.2574 0.9663 -0.0006
vn 0.7066 0.7064 -0.0424
vn 0.9655 0.2589 0.0273
vn 0.9683 0.2497 0.0112
vn 0.9659 0.2587 -0.0138
vn 0.6996 0.7144 0.0146
vn 0.9656 0.2593 -0.0171
vn 0.7128 0.7010 0.0240
vn 0.9637 0.2670 -0.0091
vn 0.7055 0.7087 0.0007
vn 0.9663 0.2574 0.0021
vn 0.7077 0.7065 -0.0036
vn 0.9680 0.2497 -0.0230
vn 0.7130 0.7011 0.0089
vn 0.9655 0.2602 -0.0047
vn 0.9661 -0.2582 0.0056
vn 0.9657 0.2572 -0.0370
vn 0.9653 -0.2584 0.0384
vn 0.9632 0.2681 0.0168
vn 0.9659 -0.2588 0.0033
vn 0.9679 0.2499 0.0262
vn 0.9632 -0.2680 -0.0211
vn 0.7070 0.7071 0.0124
vn 0.9653 -0.2611 -0.0025
vn 0.9658 0.2589 0.0147
vn 0.9678 -0.2515 -0.0062
vn 0.9636 0.2670 0.0107
vn 0.9665 -0.2566 -0.0040
vn 0.9655 0.2603 0.0030
vn 0.9636 -0.2670 -0.0086
vn 0.7136 -0.7003 0.0156
vn 0.9670 -0.2500 -0.0494
vn 0.7068 -0.7067 0.0325
vn 0.9657 -0.2594 0.0100
vn 0.7061 -0.7082 -0.0003
vn 0.9684 -0.2486 0.0195
vn 0.7130 -0.7010 -0.0142
vn 0.9653 0.2611 0.0030
vn 0.7136 -0.7004 -0.0182
vn 0.9658 -0.2587 0.0173
vn 0.7116 -0.7026 -0.0020
vn 0.9639 -0.2657 0.0194
vn 0.7009 -0.7131 -0.0162
vn 0.2515 -0.9673 0.0336
vn 0.7066 -0.7075 0.0090
vn 0.9653 -0.2610 0.0100
vn 0.6992 -0.7134 -0.0471
vn 0.2587 -0.9654 0.0313
vn 0.9659 -0.2588 -0.0012
vn 0.2669 -0.9636 -0.0150
vn 0.7002 -0.7132 0.0322
vn 0.2668 -0.9637 -0.0071
vn 0.7017 -0.7120 0.0246
vn 0.2486 -0.9686 -0.0090
vn 0.7076 -0.7064 0.0165
vn 0.2659 -0.9639 -0.0149
vn 0.7130 -0.7011 0.0128
vn 0.2594 -0.9657 0.0103
vn 0.7076 -0.7064 0.0196
vn 0.2669 -0.9636 -0.0122
vn 0.2674 -0.9626 -0.0440
vn -0.2487 -0.9683 0.0231
vn -0.4339 -0.9010 0.0046
vn -0.4271 -0.8878 -0.1716
vn -0.9749 -0.2225 0.0011
vn -0.9597 -0.2199 -0.1750
vn -0.7818 0.6235 -0.0032
vn -0.7696 0.6128 -0.1792
vn -0.0000 1.0000 -0.0051
vn -0.0000 0.9835 -0.1811
vn 0.7818 0.6235 -0.0032
vn 0.7696 0.6128 -0.1792
vn 0.9749 -0.2225 0.0011
vn 0.9597 -0.2199 -0.1750
vn 0.4339 -0.9010 0.0046
vn 0.4271 -0.8878 -0.1716
vn -0.1356 0.9907 -0.0129
vn 0.2476 0.9688 -0.0092
vn 0.5829 0.8121 -0.0274
vn 0.8584 0.5127 -0.0171
vn 0.9998 -0.0150 -0.0136
vn 0.9128 -0.4085 0.0053
vn 0.6995 -0.7147 -0.0012
vn -0.1658 -0.6148 0.7710
vn -0.3204 -0.6838 0.6556
vn -0.6502 0.0782 0.7557
vn -0.7305 0.1990 0.6533
vn -0.1756 0.6592 0.7312
vn 0.6169 0.1692 0.7687
vn 0.7533 0.0692 0.6540
vn 0.2872 -0.6122 0.7367
vn 0.1915 -0.7114 0.6762
vn -0.4765 0.4802 0.7365
vn -0.4995 0.3538 0.7908
vn 0.6210 -0.1364 0.7719
vn -0.6096 -0.1785 0.7724
vn -0.4318 -0.4372 0.7889
vn 0.2832 0.6149 0.7360
vn 0.0561 0.6731 0.7375
vn -0.1921 0.6030 0.7743
vn 0.0593 -0.6641 0.7453
vn 0.2922 -0.5672 0.7700
vn 0.5340 -0.3891 0.7506
vn 0.4676 0.4406 0.7663
vn -0.4282 0.3401 0.8373
vn 0.7128 -0.7010 -0.0240
vn -0.2680 0.9623 0.0458
vn -0.2676 0.9633 0.0196
vn -0.2611 0.9653 -0.0084
vn -0.2488 0.9679 -0.0363
vn -0.2495 0.9684 0.0051
vn -0.2517 0.9678 0.0100
vn -0.2505 0.9680 0.0149
vn -0.2667 0.9634 -0.0268
vn 0.2680 0.9623 0.0458
vn 0.2667 0.9636 0.0196
vn -0.2588 0.9659 -0.0074
vn 0.2669 0.9636 0.0150
vn 0.2486 0.9686 0.0071
vn -0.2659 0.9637 -0.0259
vn 0.2580 0.9661 0.0052
vn -0.2574 0.9660 -0.0251
vn 0.2574 0.9663 -0.0010
vn 0.2677 0.9629 -0.0335
vn -0.2574 0.9662 -0.0136
vn 0.6992 0.7134 0.0471
vn 0.2588 0.9659 -0.0074
vn 0.7132 0.7010 0.0021
vn 0.2497 0.9676 -0.0363
vn 0.7055 0.7087 0.0002
vn 0.2515 0.9673 -0.0336
vn 0.7138 0.7003 0.0085
vn 0.2588 0.9658 -0.0173
vn 0.7071 0.7071 -0.0036
vn 0.7060 0.7078 -0.0238
vn 0.7077 0.7065 0.0037
vn 0.2527 0.9675 -0.0113
vn 0.7131 0.7011 0.0061
vn 0.2588 0.9659 -0.0049
vn 0.9670 0.2500 0.0494
vn 0.9658 0.2587 -0.0173
vn 0.9633 0.2682 0.0086
vn 0.7076 0.7064 -0.0196
vn 0.9683 0.2496 0.0065
vn 0.7018 0.7120 -0.0217
vn 0.9653 0.2611 0.0054
vn 0.7081 0.7060 -0.0105
vn 0.9659 0.2588 -0.0013
vn 0.7071 0.7071 -0.0011
vn 0.9635 0.2670 0.0184
vn 0.7071 0.7070 -0.0160
vn 0.9655 0.2603 -0.0048
vn 0.9659 -0.2588 0.0038
vn 0.9652 0.2584 -0.0402
vn 0.9655 -0.2579 0.0370
vn 0.9657 0.2594 -0.0100
vn 0.9658 -0.2594 0.0047
vn 0.9634 0.2667 -0.0261
vn 0.9683 -0.2486 0.0257
vn 0.7011 0.7129 -0.0126
vn 0.9640 -0.2658 0.0091
vn 0.9682 0.2497 -0.0133
vn 0.9659 -0.2588 0.0114
vn 0.9655 0.2602 -0.0100
vn 0.9653 -0.2610 0.0066
vn 0.9663 0.2574 -0.0056
vn 0.9659 -0.2588 0.0110
vn 0.7060 -0.7080 -0.0167
vn 0.9655 -0.2589 -0.0273
vn 0.7125 -0.6996 0.0542
vn 0.9632 -0.2681 -0.0168
vn 0.7019 -0.7122 0.0133
vn 0.9652 -0.2610 -0.0189
vn 0.7002 -0.7134 0.0281
vn 0.9663 0.2574 -0.0082
vn 0.7018 -0.7121 0.0213
vn 0.9683 -0.2497 -0.0112
vn 0.7077 -0.7065 0.0108
vn 0.9675 -0.2516 -0.0235
vn 0.7128 -0.7010 0.0234
vn 0.7077 -0.7065 0.0056
vn 0.9637 -0.2670 -0.0079
vn 0.7069 -0.7070 -0.0228
vn 0.9665 -0.2565 0.0056
vn 0.7134 -0.7003 -0.0251
vn 0.7115 -0.7026 -0.0146
vn 0.7009 -0.7131 -0.0117
vn 0.7066 -0.7075 -0.0130
vn 0.6996 -0.7144 -0.0146
vn -0.0716 -0.9974 -0.0119
vn -0.4120 -0.9111 -0.0080
vn -0.7123 -0.7018 0.0014
vn -0.9031 -0.4294 -0.0000
vn -0.9996 -0.0194 -0.0211
vn -0.8584 0.5127 -0.0163
vn -0.5648 0.8253 0.0001
vn 0.3056 -0.9522 -0.0031
vn -0.2489 -0.9669 0.0556
vn 0.2678 -0.9632 -0.0226
vn -0.2573 -0.9663 -0.0005
vn -0.2689 -0.9631 -0.0105
vn -0.2588 -0.9658 0.0174
vn 0.2668 -0.9635 -0.0238
vn -0.2670 -0.9633 0.0274
vn -0.2496 -0.9683 -0.0104
vn -0.2566 -0.9665 0.0082
vn 0.2660 -0.9640 -0.0014
vn -0.2580 -0.9660 0.0146
vn -0.2602 -0.9655 -0.0038
vn -0.2660 -0.9639 0.0105
vn -0.2586 -0.9654 -0.0322
vn -0.7118 -0.7002 0.0543
vn -0.2517 -0.9678 -0.0044
vn -0.7061 -0.7081 0.0089
vn 0.2670 -0.9637 -0.0104
vn -0.7065 -0.7076 0.0161
vn -0.2596 -0.9657 0.0023
vn -0.7060 -0.7082 -0.0018
vn 0.2487 -0.9685 -0.0104
vn -0.7130 -0.7010 0.0135
vn -0.2610 -0.9653 -0.0003
vn -0.7128 -0.7010 0.0206
vn 0.2594 -0.9657 -0.0117
vn -0.7055 -0.7087 0.0089
vn -0.7076 -0.7065 -0.0124
vn -0.7068 -0.7069 -0.0254
vn -0.9670 -0.2503 0.0480
vn -0.7010 -0.7131 -0.0117
vn -0.9676 -0.2515 0.0210
vn -0.7087 -0.7055 -0.0034
vn -0.9679 -0.2505 0.0184
vn -0.7060 -0.7081 0.0080
vn -0.9659 -0.2587 0.0114
vn -0.7017 -0.7123 -0.0184
vn -0.9657 -0.2596 0.0114
vn -0.7076 -0.7065 -0.0089
vn -0.9653 -0.2610 0.0066
vn -0.7018 -0.7123 -0.0057
vn -0.9640 -0.2650 -0.0207
vn -0.9655 -0.2588 -0.0299
vn -0.9672 0.2492 0.0494
vn -0.9680 -0.2505 -0.0112
vn -0.9639 0.2662 0.0042
vn -0.9635 -0.2668 -0.0196
vn -0.9665 0.2566 0.0025
vn -0.9639 -0.2660 -0.0080
vn -0.9659 0.2589 0.0088
vn -0.9632 -0.2679 -0.0234
vn -0.9663 0.2574 0.0040
vn -0.9635 0.2670 0.0184
vn -0.9665 -0.2565 0.0081
vn -0.9638 0.2661 0.0136
vn -0.9676 0.2516 -0.0194
vn -0.9655 0.2585 -0.0325
vn -0.6992 0.7134 0.0471
vn -0.9661 0.2582 -0.0056
vn -0.7075 0.7067 0.0031
vn -0.9652 0.2608 -0.0216
vn -0.7010 0.7131 0.0042
vn -0.9673 0.2525 -0.0233
vn -0.7081 0.7061 -0.0002
vn -0.9633 0.2679 -0.0167
vn -0.7017 0.7123 0.0162
vn -0.7134 0.7000 -0.0322
vn -0.7087 0.7055 0.0017
vn -0.9680 0.2505 -0.0133
vn -0.7081 0.7061 0.0003
vn -0.7123 0.7017 -0.0156
vn -0.7065 0.7063 -0.0442
vn -0.7080 0.7059 -0.0202
vn -0.7055 0.7086 -0.0123
vn -0.7065 0.7077 -0.0011
vn -0.7065 0.7077 -0.0036
vn -0.7124 0.7018 -0.0099
vn 0.2668 -0.9637 -0.0131
vn 0.2489 -0.9669 0.0556
vn 0.2515 -0.9676 0.0226
vn 0.2602 -0.9655 0.0087
vn 0.2609 -0.9651 0.0206
vn 0.2508 -0.9678 0.0220
vn 0.2580 -0.9661 0.0069
vn 0.2517 -0.9675 0.0247
vn 0.2587 -0.9657 -0.0215
vn -0.2596 -0.9657 -0.0111
vt 0.345491 0.975528
vt 0.000000 0.500000
vt 0.500000 0.500000
vt 0.200000 1.000000
vt 0.000000 0.000000
vt 0.200000 0.000000
vt 0.654508 0.975528
vt 0.095492 0.206107
vt 1.000000 0.500000
vt 0.904508 0.793893
vt 0.400000 0.000000
vt 0.095492 0.793893
vt 0.904508 0.206107
vt 0.600000 1.000000
vt 0.600000 0.000000
vt 0.345491 0.024472
vt 0.800000 1.000000
vt 0.800000 0.000000
vt 1.000000 1.000000
vt 1.000000 0.000000
vt 0.654508 0.024472
vt 0.039181 1.000000
vt 0.016375 0.000000
vt 0.083276 0.000000
vt 0.969846 0.671010
vt 0.992404 0.586824
vt 0.933013 0.750000
vt 0.883022 0.821394
vt 0.041534 0.542393
vt 0.056163 0.377511
vt 0.152778 0.000000
vt 0.097222 1.000000
vt 0.821394 0.883022
vt 0.750000 0.933013
vt 0.884506 0.743566
vt 0.650129 0.932178
vt 0.208333 1.000000
vt 0.225693 0.000000
vt 0.671010 0.969846
vt 0.307480 0.081761
vt 0.506739 0.042538
vt 0.586824 0.992404
vt 0.464500 0.959069
vt 0.268603 0.894566
vt 0.500000 1.000000
vt 0.291681 1.000000
vt 0.294153 0.000000
vt 0.413176 0.992404
vt 0.328990 0.969846
vt 0.364582 0.000000
vt 0.250000 0.933013
vt 0.178606 0.883022
vt 0.116978 0.821394
vt 0.877150 0.235916
vt 0.944727 0.380834
vt 0.440973 1.000000
vt 0.447914 0.000000
vt 0.066987 0.750000
vt 0.030154 0.671010
vt 0.007596 0.586824
vt 0.511403 1.000000
vt 0.516375 0.000000
vt 0.007596 0.413176
vt 0.958352 0.543690
vt 0.569445 1.000000
vt 0.597236 0.000000
vt 0.030154 0.328990
vt 0.066987 0.250000
vt 0.116978 0.178606
vt 0.178606 0.116978
vt 0.151609 0.203604
vt 0.694362 0.000000
vt 0.627486 1.000000
vt 0.250000 0.066987
vt 0.328990 0.030154
vt 0.413176 0.007596
vt 0.708319 1.000000
vt 0.781248 0.000000
vt 0.500000 0.000000
vt 0.586824 0.007596
vt 0.671010 0.030154
vt 0.844736 1.000000
vt 0.849708 0.000000
vt 0.750000 0.066987
vt 0.821394 0.116978
vt 0.725686 0.102123
vt 0.913197 1.000000
vt 0.920273 0.000000
vt 0.883022 0.178606
vt 0.933013 0.250000
vt 0.100448 0.722530
vt 0.969846 0.328990
vt 0.983625 1.000000
vt 0.991967 0.000000
vt 0.992404 0.413176
vt 0.413176 0.992404
vt 1.000000 0.500000
vt 0.178606 0.116978
vt 0.250000 0.066987
vt 0.328990 0.030154
vt 0.413176 0.007596
vt 0.328990 0.969846
vt 0.178606 0.883022
vt 0.116978 0.821394
vt 0.750000 0.066987
vt 0.821394 0.116978
vt 0.933013 0.250000
vt 0.969846 0.328990
vt 0.992404 0.413176
vt 0.933013 0.750000
vt 0.000000 0.500000
vt 0.007596 0.413176
vt 0.671010 0.969846
vt 0.750000 0.933013
vt 0.066987 0.250000
vt 0.066987 0.750000
vt 0.671010 0.030154
vt 0.007596 0.586824
vt 0.933013 0.250000
vt 0.083333 0.000000
vt 0.000000 0.069374
vt 1.000000 0.928533
vt 0.916667 0.871368
vt 1.000000 0.870728
vt 0.083333 0.204061
vt 0.000000 0.128632
vt 0.083333 0.129272
vt 0.000000 0.261252
vt 0.000000 0.203322
vt 0.083333 0.263960
vt 0.000000 0.337394
vt 1.000000 0.128632
vt 0.916667 0.072081
vt 1.000000 0.069374
vt 0.083333 0.469988
vt 0.000000 0.397293
vt 0.083333 0.395299
vt 0.083333 0.337394
vt 0.083333 0.529272
vt 0.000000 0.603420
vt 0.000000 0.528533
vt 1.000000 0.528533
vt 0.916667 0.470087
vt 1.000000 0.471467
vt 0.083333 0.738035
vt 0.000000 0.663247
vt 0.083333 0.662606
vt 0.000000 0.471467
vt 0.083333 0.870087
vt 0.000000 0.795299
vt 0.083333 0.795939
vt 0.916667 0.262606
vt 0.833333 0.204702
vt 0.916667 0.204061
vt 0.083333 0.929913
vt 0.000000 1.000000
vt 0.000000 0.928533
vt 0.166667 0.070728
vt 0.166667 0.000000
vt 0.083333 0.604800
vt 0.166667 0.129913
vt 1.000000 0.795299
vt 0.916667 0.738035
vt 1.000000 0.737394
vt 0.166667 0.338035
vt 0.166667 0.262606
vt 0.000000 0.737394
vt 0.166667 0.470728
vt 0.166667 0.396679
vt 1.000000 0.337394
vt 0.916667 0.394586
vt 0.916667 0.336655
vt 0.166667 0.603420
vt 0.166667 0.528533
vt 0.000000 0.870728
vt 0.166667 0.736753
vt 0.166667 0.661867
vt 1.000000 0.663247
vt 0.916667 0.604701
vt 1.000000 0.603420
vt 0.166667 0.796580
vt 0.083333 0.072081
vt 0.166667 1.000000
vt 0.166667 0.929272
vt 0.250000 0.069374
vt 0.250000 0.000000
vt 0.166667 0.204800
vt 0.250000 0.204061
vt 0.250000 0.128632
vt 0.250000 0.336655
vt 0.250000 0.262606
vt 0.250000 0.470727
vt 0.250000 0.394586
vt 0.250000 0.530012
vt 0.250000 0.663247
vt 0.166667 0.871467
vt 0.250000 0.870727
vt 0.250000 0.795940
vt 0.250000 1.000000
vt 0.250000 0.929273
vt 0.333333 0.000000
vt 0.333333 0.203322
vt 0.333333 0.130012
vt 0.333333 0.338035
vt 0.333333 0.261965
vt 0.250000 0.738133
vt 0.333333 0.396679
vt 0.333333 0.529913
vt 0.250000 0.604060
vt 0.333333 0.736753
vt 0.333333 0.661867
vt 0.333333 0.869988
vt 0.333333 0.795940
vt 0.333333 1.000000
vt 0.333333 0.928632
vt 0.416667 0.069374
vt 0.416667 0.000000
vt 0.333333 0.470728
vt 0.416667 0.203420
vt 0.416667 0.127919
vt 0.333333 0.072081
vt 0.416667 0.336655
vt 0.416667 0.262606
vt 0.416667 0.395940
vt 0.416667 0.604060
vt 0.416667 0.529273
vt 0.416667 0.663247
vt 0.333333 0.604800
vt 0.416667 0.870727
vt 0.416667 0.795200
vt 0.416667 0.471467
vt 0.416667 1.000000
vt 0.416667 0.929272
vt 0.500000 0.130626
vt 0.500000 0.338035
vt 0.500000 0.263345
vt 0.500000 0.072081
vt 0.500000 0.469374
vt 0.500000 0.395939
vt 0.500000 0.603420
vt 0.500000 0.527919
vt 0.500000 0.736655
vt 0.500000 0.662606
vt 0.500000 0.795939
vt 0.500000 0.929273
vt 0.583333 0.069374
vt 0.583333 0.000000
vt 0.416667 0.738133
vt 0.583333 0.204061
vt 0.583333 0.128632
vt 0.583333 0.336655
vt 0.583333 0.262606
vt 0.500000 0.870728
vt 0.583333 0.395940
vt 0.583333 0.530012
vt 0.500000 0.205415
vt 0.583333 0.737394
vt 0.583333 0.662606
vt 0.583333 0.472081
vt 0.583333 0.871368
vt 0.583333 0.795940
vt 0.583333 1.000000
vt 0.583333 0.929272
vt 0.666667 0.000000
vt 0.666667 0.202707
vt 0.666667 0.129272
vt 0.666667 0.338035
vt 0.666667 0.261965
vt 0.666667 0.469988
vt 0.666667 0.396679
vt 0.666667 0.529273
vt 0.583333 0.604060
vt 0.666667 0.736753
vt 0.666667 0.661252
vt 0.666667 0.869988
vt 0.666667 0.795939
vt 0.666667 0.929273
vt 0.750000 0.069988
vt 0.750000 0.000000
vt 0.750000 0.129272
vt 0.666667 0.072081
vt 0.750000 0.336040
vt 0.750000 0.261867
vt 0.750000 0.471368
vt 0.750000 0.395299
vt 0.750000 0.604060
vt 0.750000 0.530012
vt 0.750000 0.663247
vt 0.750000 0.870727
vt 0.750000 0.795200
vt 0.833333 0.070087
vt 0.750000 1.000000
vt 0.750000 0.930012
vt 0.833333 0.000000
vt 0.750000 0.204800
vt 0.833333 0.129272
vt 0.833333 0.263960
vt 0.666667 0.604061
vt 0.833333 0.470727
vt 0.833333 0.396679
vt 0.833333 0.604061
vt 0.833333 0.529272
vt 0.750000 0.738133
vt 0.833333 0.736753
vt 0.833333 0.661867
vt 0.833333 0.796580
vt 0.833333 1.000000
vt 0.833333 0.927919
vt 0.916667 0.000000
vt 0.916667 0.130012
vt 0.833333 0.338748
vt 0.833333 0.870727
vt 0.916667 0.529273
vt 0.916667 0.663345
vt 1.000000 0.261252
vt 1.000000 0.203322
vt 0.916667 0.796679
vt 0.916667 0.930626
vt 1.000000 0.397293
vt 0.142857 1.000000
vt 0.142857 0.000000
vt 0.811745 0.890916
vt 0.611260 0.987464
vt 0.188255 0.890916
vt -0.000000 0.500000
vt 0.285714 1.000000
vt 0.285714 0.000000
vt 0.388740 0.987464
vt 0.950484 0.716942
vt 0.428571 1.000000
vt 0.428571 0.000000
vt 0.049516 0.716942
vt 0.950484 0.283058
vt 0.571429 1.000000
vt 0.571429 0.000000
vt 0.049516 0.283058
vt 0.611260 0.012536
vt 0.714286 1.000000
vt 0.714286 0.000000
vt 0.388740 0.012536
vt 0.188255 0.109084
vt 0.857143 1.000000
vt 0.857143 0.000000
vt 0.811745 0.109084
vt 0.789181 1.000000
vt 0.821394 0.883022
vt 0.666667 1.000000
vt 0.916667 1.000000
vt 0.400000 1.000000
vt 0.152778 1.000000
vt 0.372514 1.000000
vt 0.083333 1.000000
s 0
usemtl Mat_2
f 7/1/1 3/2/1 1/3/1
f 9/4/2 4/5/2 8/6/2
f 10/7/3 2/8/3 6/9/3
f 11/10/4 7/1/4 1/3/4
f 12/11/5 9/4/5 8/6/5
f 14/12/3 2/8/3 10/7/3
f 15/13/6 11/10/6 1/3/6
f 17/14/7 12/11/7 16/15/7
f 18/16/8 15/13/8 1/3/8
f 20/17/9 16/15/9 19/18/9
f 3/2/10 18/16/10 1/3/10
f 5/19/11 19/18/11 4/20/11
f 6/9/3 2/8/3 21/21/3
f 20/17/9 17/14/9 16/15/9
f 5/19/11 20/17/11 19/18/11
f 9/4/2 5/156/2 4/5/2
f 12/11/5 13/349/5 9/4/5
f 17/14/7 13/349/7 12/11/7
usemtl Mat
f 28/22/12 25/23/12 31/24/12
f 32/25/13 23/9/13 29/26/13
f 35/27/14 23/9/14 32/25/14
f 37/28/14 23/9/14 35/27/14
f 131/29/15 136/30/15 22/3/15
f 39/31/16 34/32/16 31/24/16
f 41/33/14 23/9/14 37/28/14
f 43/34/14 23/9/14 41/33/14
f 134/35/17 124/36/17 22/3/17
f 46/37/18 39/31/18 45/38/18
f 47/39/14 23/9/14 43/34/14
f 126/40/19 127/41/19 22/3/19
f 49/42/14 23/9/14 47/39/14
f 125/43/20 129/44/20 22/3/20
f 52/45/14 23/9/14 49/42/14
f 124/36/21 125/43/21 22/3/21
f 51/46/22 45/38/22 54/47/22
f 55/48/14 23/9/14 52/45/14
f 57/49/14 23/9/14 55/48/14
f 51/46/23 54/47/23 59/50/23
f 60/51/14 23/9/14 57/49/14
f 63/52/14 23/9/14 60/51/14
f 65/53/14 23/9/14 63/52/14
f 132/54/24 133/55/24 22/3/24
f 68/56/25 59/50/25 67/57/25
f 69/58/14 23/9/14 65/53/14
f 71/59/14 23/9/14 69/58/14
f 73/60/14 23/9/14 71/59/14
f 76/61/26 67/57/26 75/62/26
f 77/2/14 23/9/14 73/60/14
f 79/63/14 23/9/14 77/2/14
f 135/64/27 134/35/27 22/3/27
f 82/65/28 75/62/28 81/66/28
f 83/67/14 23/9/14 79/63/14
f 85/68/14 23/9/14 83/67/14
f 133/55/29 135/64/29 22/3/29
f 88/69/14 23/9/14 85/68/14
f 90/70/14 23/9/14 88/69/14
f 136/30/30 123/71/30 22/3/30
f 92/72/31 87/73/31 81/66/31
f 94/74/14 23/9/14 90/70/14
f 96/75/14 23/9/14 94/74/14
f 98/76/14 23/9/14 96/75/14
f 123/71/32 126/40/32 22/3/32
f 93/77/33 92/72/33 100/78/33
f 101/79/14 23/9/14 98/76/14
f 104/80/14 23/9/14 101/79/14
f 106/81/14 23/9/14 104/80/14
f 109/82/34 100/78/34 108/83/34
f 110/84/14 23/9/14 106/81/14
f 112/85/14 23/9/14 110/84/14
f 127/41/35 130/86/35 22/3/35
f 115/87/36 108/83/36 114/88/36
f 116/89/14 23/9/14 112/85/14
f 118/90/14 23/9/14 116/89/14
f 129/44/37 128/91/37 22/3/37
f 120/92/14 23/9/14 118/90/14
f 130/86/38 132/54/38 22/3/38
f 26/93/39 114/88/39 25/94/39
f 122/95/13 23/9/13 120/92/13
f 48/96/40 125/43/40 50/45/40
f 125/43/41 53/42/41 50/45/41
f 135/64/42 74/97/42 72/26/42
f 128/91/43 131/29/43 22/3/43
f 123/71/44 113/69/44 111/98/44
f 126/40/45 107/99/45 105/100/45
f 102/101/46 126/40/46 105/100/46
f 44/102/47 125/43/47 48/96/47
f 129/44/48 42/51/48 38/103/48
f 36/104/49 129/44/49 38/103/49
f 130/86/50 91/105/50 89/106/50
f 84/107/51 132/54/51 86/89/51
f 80/108/52 132/54/52 84/107/52
f 133/55/53 80/108/53 78/109/53
f 135/64/54 78/109/54 74/97/54
f 64/28/55 134/35/55 66/110/55
f 136/30/56 24/111/56 121/112/56
f 56/113/57 124/36/57 58/114/57
f 113/69/58 123/71/58 117/115/58
f 107/99/59 123/71/59 111/98/59
f 42/51/60 129/44/60 44/102/60
f 127/41/61 102/101/61 99/79/61
f 128/91/62 36/104/62 33/116/62
f 130/86/63 127/41/63 95/117/63
f 130/86/64 95/117/64 91/105/64
f 131/29/65 128/91/65 27/118/65
f 132/54/66 89/106/66 86/89/66
f 24/111/67 131/29/67 27/118/67
f 66/110/68 134/35/68 70/25/68
f 76/61/262 68/56/262 67/57/262
f 82/65/263 76/61/263 75/62/263
f 81/66/264 87/73/264 82/65/264
f 92/72/265 93/77/265 87/73/265
f 103/345/266 93/77/266 100/78/266
f 109/82/267 103/345/267 100/78/267
f 115/87/268 109/82/268 108/83/268
f 27/118/269 128/91/269 30/59/269
f 30/59/270 128/91/270 33/116/270
f 125/43/271 124/36/271 53/42/271
f 53/42/272 124/36/272 56/113/272
f 70/25/273 135/64/273 72/26/273
f 95/117/274 127/41/274 97/80/274
f 97/80/275 127/41/275 99/79/275
f 117/115/276 136/30/276 119/67/276
f 119/67/277 136/30/277 121/112/277
f 61/346/278 134/35/278 64/28/278
f 58/114/279 124/36/279 61/346/279
f 102/101/280 127/41/280 126/40/280
f 44/102/281 129/44/281 125/43/281
f 36/104/282 128/91/282 129/44/282
f 80/108/283 133/55/283 132/54/283
f 135/64/284 133/55/284 78/109/284
f 70/25/285 134/35/285 135/64/285
f 136/30/286 131/29/286 24/111/286
f 117/115/287 123/71/287 136/30/287
f 107/99/288 126/40/288 123/71/288
f 132/54/289 130/86/289 89/106/289
f 124/36/290 134/35/290 61/346/290
f 28/22/375 26/156/375 25/23/375
f 34/32/376 28/22/376 31/24/376
f 39/31/377 40/350/377 34/32/377
f 46/37/378 40/350/378 39/31/378
f 45/38/379 51/46/379 46/37/379
f 62/351/380 51/46/380 59/50/380
f 68/56/381 62/351/381 59/50/381
f 26/93/382 115/87/382 114/88/382
usemtl Metal_-_Silver
f 157/58/69 139/2/69 137/119/69
f 158/120/70 141/121/70 140/5/70
f 154/122/71 350/123/71 153/124/71
f 161/125/72 142/126/72 160/127/72
f 161/125/73 144/128/73 143/129/73
f 162/130/74 145/131/74 144/128/74
f 142/132/75 338/133/75 141/134/75
f 165/135/76 146/136/76 164/137/76
f 164/137/77 145/131/77 163/138/77
f 166/139/78 149/140/78 148/141/78
f 148/142/79 344/143/79 147/144/79
f 169/145/80 150/146/80 168/147/80
f 166/139/81 147/148/81 165/135/81
f 171/149/82 152/150/82 170/151/82
f 341/152/83 322/153/83 340/154/83
f 172/155/84 155/156/84 154/157/84
f 174/27/14 138/3/14 156/9/14
f 175/51/69 157/58/69 137/119/69
f 177/158/85 158/120/85 176/159/85
f 168/147/86 149/140/86 167/160/86
f 178/161/87 161/125/87 160/127/87
f 152/162/88 348/163/88 151/164/88
f 181/165/89 162/130/89 180/166/89
f 169/145/90 152/150/90 151/167/90
f 183/168/91 164/137/91 182/169/91
f 145/170/92 343/171/92 342/172/92
f 185/173/93 166/139/93 184/174/93
f 172/155/94 153/175/94 171/149/94
f 187/176/95 168/147/95 186/177/95
f 150/178/96 346/179/96 149/180/96
f 188/181/97 171/149/97 170/151/97
f 178/161/98 159/182/98 177/158/98
f 191/183/99 172/155/99 190/184/99
f 192/34/14 138/3/14 174/27/14
f 193/45/69 175/51/69 137/119/69
f 195/185/100 176/159/100 194/186/100
f 180/166/101 161/125/101 179/187/101
f 197/188/102 178/161/102 196/189/102
f 181/165/103 164/137/103 163/138/103
f 199/190/104 180/166/104 198/191/104
f 183/168/105 166/139/105 165/135/105
f 201/192/106 182/169/106 200/193/106
f 186/177/107 167/160/107 185/173/107
f 202/194/108 185/173/108 184/174/108
f 188/181/109 169/145/109 187/176/109
f 204/195/110 187/176/110 186/177/110
f 190/184/111 171/149/111 189/196/111
f 207/197/112 188/181/112 206/198/112
f 198/191/113 179/187/113 197/188/113
f 209/199/114 190/184/114 208/200/114
f 210/45/14 138/3/14 192/34/14
f 211/34/69 193/45/69 137/119/69
f 212/201/115 195/185/115 194/186/115
f 201/192/116 184/174/116 183/168/116
f 215/202/117 196/189/117 214/203/117
f 196/189/118 177/158/118 195/185/118
f 217/204/119 198/191/119 216/205/119
f 206/198/120 187/176/120 205/206/120
f 218/207/121 201/192/121 200/193/121
f 200/193/122 181/165/122 199/190/122
f 220/208/123 203/209/123 202/194/123
f 208/200/113 189/196/113 207/197/113
f 223/210/124 204/195/124 222/211/124
f 204/195/125 185/173/125 203/209/125
f 225/212/126 206/198/126 224/213/126
f 216/205/127 197/188/127 215/202/127
f 227/214/128 208/200/128 226/215/128
f 228/51/14 138/3/14 210/45/14
f 229/27/69 211/34/69 137/119/69
f 231/216/129 212/201/129 230/217/129
f 220/208/130 201/192/130 219/218/130
f 233/219/131 214/203/131 232/220/131
f 213/221/132 196/189/132 195/185/132
f 235/222/133 216/205/133 234/223/133
f 224/213/134 205/206/134 223/210/134
f 236/224/135 219/218/135 218/207/135
f 217/204/136 200/193/136 199/190/136
f 239/225/137 220/208/137 238/226/137
f 232/220/138 213/221/138 231/216/138
f 240/227/139 223/210/139 222/211/139
f 222/211/140 203/209/140 221/228/140
f 243/229/141 224/213/141 242/230/141
f 238/226/142 219/218/142 237/231/142
f 245/232/143 226/215/143 244/233/143
f 246/58/14 138/3/14 228/51/14
f 247/9/69 229/27/69 137/119/69
f 248/79/144 231/216/144 230/217/144
f 226/215/127 207/197/127 225/212/127
f 250/234/145 233/219/145 232/220/145
f 236/224/146 217/204/146 235/222/146
f 253/235/147 234/223/147 252/236/147
f 249/237/148 232/220/148 231/216/148
f 255/238/149 236/224/149 254/239/149
f 240/227/150 221/228/150 239/225/150
f 257/240/151 238/226/151 256/241/151
f 233/219/152 216/205/152 215/202/152
f 259/242/153 240/227/153 258/243/153
f 243/229/154 226/215/154 225/212/154
f 260/244/155 243/229/155 242/230/155
f 256/241/156 237/231/156 255/238/156
f 262/245/157 245/232/157 244/233/157
f 264/2/14 138/3/14 246/58/14
f 266/246/158 248/79/158 265/247/158
f 242/230/159 223/210/159 241/248/159
f 268/249/160 250/234/160 267/250/160
f 253/235/161 236/224/161 235/222/161
f 270/251/162 252/236/162 269/252/162
f 262/245/163 243/229/163 261/253/163
f 271/254/164 255/238/164 254/239/164
f 258/243/165 239/225/165 257/240/165
f 273/255/166 257/240/166 256/241/166
f 251/256/167 234/223/167 233/219/167
f 276/257/168 258/243/168 275/258/168
f 272/259/169 256/241/169 255/238/169
f 278/260/170 260/244/170 277/261/170
f 260/244/171 241/248/171 259/242/171
f 280/262/172 262/245/172 279/263/172
f 281/68/14 138/3/14 264/2/14
f 283/264/173 266/246/173 265/247/173
f 278/260/174 262/245/174 261/253/174
f 286/265/175 267/250/175 285/266/175
f 267/250/176 249/237/176 266/246/176
f 288/267/177 269/252/177 287/268/177
f 269/252/178 251/256/178 268/249/178
f 290/269/179 271/254/179 289/270/179
f 271/254/180 253/235/180 270/251/180
f 291/271/181 274/272/181 273/255/181
f 291/271/182 272/259/182 290/269/182
f 294/273/183 275/258/183 293/274/183
f 275/258/184 257/240/184 274/272/184
f 296/275/185 277/261/185 295/276/185
f 276/257/186 260/244/186 259/242/186
f 297/277/187 280/262/187 279/263/187
f 299/74/14 138/3/14 281/68/14
f 300/79/69 282/84/69 137/119/69
f 302/278/188 283/264/188 301/279/188
f 303/280/189 284/281/189 302/278/189
f 303/280/190 286/265/190 285/266/190
f 284/281/191 267/250/191 266/246/191
f 306/282/192 287/268/192 305/283/192
f 287/268/193 268/249/193 286/265/193
f 308/284/194 289/270/194 307/285/194
f 288/267/195 271/254/195 270/251/195
f 310/286/196 291/271/196 309/287/196
f 294/273/197 277/261/197 276/257/197
f 311/288/198 294/273/198 293/274/198
f 297/277/199 278/260/199 296/275/199
f 314/289/200 295/276/200 313/290/200
f 320/291/201 303/280/201 302/278/201
f 316/292/202 297/277/202 315/293/202
f 317/79/14 138/3/14 299/74/14
f 318/74/69 300/79/69 137/119/69
f 320/291/203 301/279/203 319/294/203
f 304/295/204 287/268/204 286/265/204
f 322/153/205 303/280/205 321/296/205
f 307/285/206 288/267/206 306/282/206
f 323/297/207 306/282/207 305/283/207
f 293/274/208 274/272/208 292/298/208
f 326/299/209 307/285/209 325/300/209
f 310/286/210 293/274/210 292/298/210
f 328/301/211 309/287/211 327/302/211
f 312/303/212 295/276/212 294/273/212
f 330/304/213 311/288/213 329/305/213
f 314/289/214 297/277/214 296/275/214
f 331/306/215 314/289/215 313/290/215
f 338/133/216 321/296/216 320/291/216
f 334/307/217 315/293/217 333/308/217
f 335/84/14 138/3/14 317/79/14
f 336/68/69 318/74/69 137/119/69
f 337/309/218 320/291/218 319/294/218
f 322/153/219 305/283/219 304/295/219
f 340/154/220 321/296/220 339/310/220
f 324/311/221 307/285/221 306/282/221
f 342/172/222 323/297/222 341/152/222
f 308/284/223 291/271/223 290/269/223
f 344/143/224 325/300/224 343/171/224
f 333/308/225 314/289/225 332/312/225
f 346/179/226 327/302/226 345/313/226
f 327/302/227 308/284/227 326/299/227
f 347/314/228 330/304/228 329/305/228
f 144/315/229 340/154/229 143/316/229
f 350/123/230 331/306/230 349/317/230
f 330/304/231 313/290/231 312/303/231
f 351/318/232 334/307/232 333/308/232
f 353/90/14 138/3/14 335/84/14
f 139/2/69 336/68/69 137/119/69
f 141/134/233 337/309/233 140/20/233
f 328/301/234 311/288/234 310/286/234
f 143/316/235 339/310/235 142/132/235
f 343/171/236 324/311/236 342/172/236
f 145/170/237 341/152/237 144/315/237
f 345/313/238 326/299/238 344/143/238
f 146/319/239 344/143/239 343/171/239
f 346/179/240 329/305/240 328/301/240
f 149/180/241 345/313/241 148/142/241
f 348/163/242 331/306/242 330/304/242
f 150/178/243 348/163/243 347/314/243
f 350/123/244 333/308/244 332/312/244
f 153/124/245 349/317/245 152/162/245
f 155/19/246 351/318/246 154/122/246
f 156/9/14 138/3/14 353/90/14
f 159/182/247 142/126/247 141/121/247
f 355/20/69 174/156/69 156/5/69
f 174/5/69 356/19/69 192/156/69
f 353/5/69 355/19/69 156/156/69
f 356/20/69 210/156/69 192/5/69
f 359/20/69 353/156/69 335/5/69
f 358/20/69 228/156/69 210/5/69
f 361/20/69 335/156/69 317/5/69
f 360/20/69 246/156/69 228/5/69
f 363/20/69 317/156/69 299/5/69
f 246/5/69 364/19/69 264/156/69
f 281/5/69 363/19/69 299/156/69
f 364/20/69 281/156/69 264/5/69
f 367/20/14 156/156/14 174/5/14
f 156/5/14 368/19/14 353/156/14
f 369/20/14 174/156/14 192/5/14
f 353/5/14 370/19/14 335/156/14
f 371/20/14 192/156/14 210/5/14
f 335/5/14 372/19/14 317/156/14
f 373/20/14 210/156/14 228/5/14
f 372/20/14 299/156/14 317/5/14
f 246/5/14 373/19/14 228/156/14
f 374/20/14 281/156/14 299/5/14
f 264/5/14 375/19/14 246/156/14
f 376/20/14 264/156/14 281/5/14
f 341/152/291 323/297/291 322/153/291
f 248/79/292 249/237/292 231/216/292
f 250/234/293 251/256/293 233/219/293
f 253/235/294 235/222/294 234/223/294
f 249/237/295 250/234/295 232/220/295
f 255/238/296 237/231/296 236/224/296
f 257/240/297 239/225/297 238/226/297
f 259/242/298 241/248/298 240/227/298
f 260/244/163 261/253/163 243/229/163
f 256/241/299 238/226/299 237/231/299
f 262/245/157 263/45/157 245/232/157
f 266/246/300 249/237/300 248/79/300
f 268/249/301 251/256/301 250/234/301
f 253/235/302 254/239/302 236/224/302
f 270/251/303 253/235/303 252/236/303
f 262/245/163 244/233/163 243/229/163
f 271/254/304 272/259/304 255/238/304
f 258/243/305 240/227/305 239/225/305
f 273/255/306 274/272/306 257/240/306
f 251/256/307 252/236/307 234/223/307
f 276/257/308 259/242/308 258/243/308
f 272/259/309 273/255/309 256/241/309
f 278/260/174 261/253/174 260/244/174
f 260/244/310 242/230/310 241/248/310
f 280/262/172 263/45/172 262/245/172
f 283/264/311 284/281/311 266/246/311
f 278/260/312 279/263/312 262/245/312
f 286/265/313 268/249/313 267/250/313
f 267/250/314 250/234/314 249/237/314
f 288/267/315 270/251/315 269/252/315
f 269/252/316 252/236/316 251/256/316
f 290/269/317 272/259/317 271/254/317
f 271/254/318 254/239/318 253/235/318
f 291/271/319 292/298/319 274/272/319
f 291/271/320 273/255/320 272/259/320
f 294/273/321 276/257/321 275/258/321
f 275/258/322 258/243/322 257/240/322
f 296/275/323 278/260/323 277/261/323
f 276/257/324 277/261/324 260/244/324
f 297/277/187 298/347/187 280/262/187
f 302/278/325 284/281/325 283/264/325
f 303/280/326 285/266/326 284/281/326
f 303/280/327 304/295/327 286/265/327
f 284/281/328 285/266/328 267/250/328
f 306/282/329 288/267/329 287/268/329
f 287/268/330 269/252/330 268/249/330
f 308/284/331 290/269/331 289/270/331
f 288/267/332 289/270/332 271/254/332
f 310/286/333 292/298/333 291/271/333
f 294/273/334 295/276/334 277/261/334
f 311/288/335 312/303/335 294/273/335
f 297/277/336 279/263/336 278/260/336
f 314/289/337 296/275/337 295/276/337
f 320/291/338 321/296/338 303/280/338
f 316/292/339 298/347/339 297/277/339
f 320/291/340 302/278/340 301/279/340
f 304/295/341 305/283/341 287/268/341
f 322/153/342 304/295/342 303/280/342
f 307/285/343 289/270/343 288/267/343
f 323/297/344 324/311/344 306/282/344
f 293/274/345 275/258/345 274/272/345
f 326/299/346 308/284/346 307/285/346
f 310/286/347 311/288/347 293/274/347
f 328/301/348 310/286/348 309/287/348
f 312/303/349 313/290/349 295/276/349
f 330/304/350 312/303/350 311/288/350
f 314/289/351 315/293/351 297/277/351
f 331/306/352 332/312/352 314/289/352
f 338/133/353 339/310/353 321/296/353
f 334/307/354 316/292/354 315/293/354
f 337/309/355 338/133/355 320/291/355
f 322/153/356 323/297/356 305/283/356
f 340/154/357 322/153/357 321/296/357
f 324/311/358 325/300/358 307/285/358
f 342/172/359 324/311/359 323/297/359
f 308/284/360 309/287/360 291/271/360
f 344/143/361 326/299/361 325/300/361
f 333/308/362 315/293/362 314/289/362
f 346/179/363 328/301/363 327/302/363
f 327/302/364 309/287/364 308/284/364
f 347/314/365 348/163/365 330/304/365
f 350/123/366 332/312/366 331/306/366
f 330/304/367 331/306/367 313/290/367
f 351/318/368 352/348/368 334/307/368
f 328/301/369 329/305/369 311/288/369
f 343/171/370 325/300/370 324/311/370
f 345/313/371 327/302/371 326/299/371
f 346/179/372 347/314/372 329/305/372
f 348/163/373 349/317/373 331/306/373
f 350/123/374 351/318/374 333/308/374
f 158/120/383 159/182/383 141/121/383
f 154/122/384 351/318/384 350/123/384
f 161/125/385 143/129/385 142/126/385
f 161/125/386 162/130/386 144/128/386
f 162/130/387 163/138/387 145/131/387
f 142/132/388 339/310/388 338/133/388
f 165/135/389 147/148/389 146/136/389
f 164/137/390 146/136/390 145/131/390
f 166/139/391 167/160/391 149/140/391
f 148/142/392 345/313/392 344/143/392
f 169/145/393 151/167/393 150/146/393
f 166/139/394 148/141/394 147/148/394
f 171/149/395 153/175/395 152/150/395
f 172/155/396 173/352/396 155/156/396
f 177/158/397 159/182/397 158/120/397
f 168/147/398 150/146/398 149/140/398
f 178/161/399 179/187/399 161/125/399
f 152/162/400 349/317/400 348/163/400
f 181/165/401 163/138/401 162/130/401
f 169/145/402 170/151/402 152/150/402
f 183/168/403 165/135/403 164/137/403
f 145/170/404 146/319/404 343/171/404
f 185/173/405 167/160/405 166/139/405
f 172/155/406 154/157/406 153/175/406
f 187/176/407 169/145/407 168/147/407
f 150/178/408 347/314/408 346/179/408
f 188/181/409 189/196/409 171/149/409
f 178/161/410 160/127/410 159/182/410
f 191/183/411 173/352/411 172/155/411
f 195/185/412 177/158/412 176/159/412
f 180/166/413 162/130/413 161/125/413
f 197/188/414 179/187/414 178/161/414
f 181/165/415 182/169/415 164/137/415
f 199/190/416 181/165/416 180/166/416
f 183/168/417 184/174/417 166/139/417
f 201/192/418 183/168/418 182/169/418
f 186/177/419 168/147/419 167/160/419
f 202/194/420 203/209/420 185/173/420
f 188/181/421 170/151/421 169/145/421
f 204/195/422 205/206/422 187/176/422
f 190/184/423 172/155/423 171/149/423
f 207/197/414 189/196/414 188/181/414
f 198/191/424 180/166/424 179/187/424
f 209/199/425 191/183/425 190/184/425
f 212/201/426 213/221/426 195/185/426
f 201/192/427 202/194/427 184/174/427
f 215/202/428 197/188/428 196/189/428
f 196/189/429 178/161/429 177/158/429
f 217/204/430 199/190/430 198/191/430
f 206/198/431 188/181/431 187/176/431
f 218/207/432 219/218/432 201/192/432
f 200/193/433 182/169/433 181/165/433
f 220/208/434 221/228/434 203/209/434
f 208/200/424 190/184/424 189/196/424
f 223/210/435 205/206/435 204/195/435
f 204/195/436 186/177/436 185/173/436
f 225/212/437 207/197/437 206/198/437
f 216/205/438 198/191/438 197/188/438
f 227/214/439 209/199/439 208/200/439
f 231/216/440 213/221/440 212/201/440
f 220/208/441 202/194/441 201/192/441
f 233/219/442 215/202/442 214/203/442
f 213/221/443 214/203/443 196/189/443
f 235/222/444 217/204/444 216/205/444
f 224/213/445 206/198/445 205/206/445
f 236/224/446 237/231/446 219/218/446
f 217/204/447 218/207/447 200/193/447
f 239/225/448 221/228/448 220/208/448
f 232/220/449 214/203/449 213/221/449
f 240/227/450 241/248/450 223/210/450
f 222/211/451 204/195/451 203/209/451
f 243/229/452 225/212/452 224/213/452
f 238/226/453 220/208/453 219/218/453
f 245/232/454 227/214/454 226/215/454
f 226/215/438 208/200/438 207/197/438
f 236/224/455 218/207/455 217/204/455
f 240/227/456 222/211/456 221/228/456
f 233/219/457 234/223/457 216/205/457
f 243/229/458 244/233/458 226/215/458
f 242/230/459 224/213/459 223/210/459
f 144/315/460 341/152/460 340/154/460
f 141/134/461 338/133/461 337/309/461
f 143/316/462 340/154/462 339/310/462
f 145/170/463 342/172/463 341/152/463
f 146/319/464 147/144/464 344/143/464
f 149/180/465 346/179/465 345/313/465
f 150/178/466 151/164/466 348/163/466
f 153/124/467 350/123/467 349/317/467
f 155/19/468 352/348/468 351/318/468
f 159/182/469 160/127/469 142/126/469
f 355/20/69 354/19/69 174/156/69
f 174/5/69 354/20/69 356/19/69
f 353/5/69 357/20/69 355/19/69
f 356/20/69 358/19/69 210/156/69
f 359/20/69 357/19/69 353/156/69
f 358/20/69 360/19/69 228/156/69
f 361/20/69 359/19/69 335/156/69
f 360/20/69 362/19/69 246/156/69
f 363/20/69 361/19/69 317/156/69
f 246/5/69 362/20/69 364/19/69
f 281/5/69 365/20/69 363/19/69
f 364/20/69 365/19/69 281/156/69
f 367/20/14 366/19/14 156/156/14
f 156/5/14 366/20/14 368/19/14
f 369/20/14 367/19/14 174/156/14
f 353/5/14 368/20/14 370/19/14
f 371/20/14 369/19/14 192/156/14
f 335/5/14 370/20/14 372/19/14
f 373/20/14 371/19/14 210/156/14
f 372/20/14 374/19/14 299/156/14
f 246/5/14 375/20/14 373/19/14
f 374/20/14 376/19/14 281/156/14
f 264/5/14 377/20/14 375/19/14
f 376/20/14 377/19/14 264/156/14
usemtl Mat_1
f 385/320/248 380/5/248 384/321/248
f 386/322/249 379/3/249 382/9/249
f 387/323/69 383/324/69 378/325/69
f 389/326/250 384/321/250 388/327/250
f 390/328/251 379/3/251 386/322/251
f 391/329/69 387/323/69 378/325/69
f 393/330/252 388/327/252 392/331/252
f 394/332/253 379/3/253 390/328/253
f 395/333/69 391/329/69 378/325/69
f 397/334/254 392/331/254 396/335/254
f 398/336/255 379/3/255 394/332/255
f 399/337/69 395/333/69 378/325/69
f 401/338/256 396/335/256 400/339/256
f 402/340/257 379/3/257 398/336/257
f 403/341/69 399/337/69 378/325/69
f 405/342/258 400/339/258 404/343/258
f 406/344/259 379/3/259 402/340/259
f 381/19/260 404/343/260 380/20/260
f 382/9/261 379/3/261 406/344/261
f 397/334/254 393/330/254 392/331/254
f 401/338/256 397/334/256 396/335/256
f 405/342/258 401/338/258 400/339/258
f 385/320/248 381/156/248 380/5/248
f 389/326/250 385/320/250 384/321/250
f 393/330/252 389/326/252 388/327/252
f 381/19/260 405/342/260 404/343/260
