# Blender 5.2.0 LTS
# www.blender.org
mtllib text-edited.mtl
o 10576_Alphabet_Blocks_1
v 0.063006 -0.030967 0.166064
v -0.063407 0.057100 0.254850
v -0.062847 0.056607 0.255889
v 0.062880 -0.031982 0.344368
v 0.062895 -0.033132 0.165082
v -0.062880 -0.122211 0.254139
v 0.061933 0.056984 0.255613
v -0.061821 -0.031726 0.344383
v -0.061933 -0.033456 0.165173
v 0.061821 -0.122226 0.253882
v -0.062605 -0.033521 0.344159
v 0.062605 -0.122002 0.255677
v -0.062615 -0.031683 0.165314
v 0.062615 0.056843 0.253840
v 0.063882 -0.032682 0.343277
v 0.063884 -0.032561 0.166236
v -0.063882 -0.121121 0.254838
v -0.063884 0.055920 0.254717
v 0.062004 -0.033762 0.344073
v -0.062218 -0.121892 0.255863
v -0.061767 0.056303 0.253131
v 0.063864 0.056199 0.255096
v 0.063445 -0.122124 0.254771
v 0.063998 -0.119903 0.254782
v -0.063864 -0.032940 0.165957
v -0.063973 -0.032524 0.343612
vn 0.8102 0.5759 0.1090
vn 0.1898 0.9099 0.3688
vn 0.4159 0.2325 0.8792
vn 0.3563 0.8474 -0.3936
vn -0.3758 0.7176 0.5864
vn -0.5738 0.8184 0.0321
vn -0.1906 0.3573 0.9143
vn -0.7972 0.0561 0.6012
vn -0.3003 -0.4151 0.8588
vn -0.9499 0.3117 0.0218
vn -0.8103 -0.1089 -0.5759
vn -0.1896 -0.3687 -0.9100
vn -0.4104 -0.8797 -0.2402
vn -0.3561 0.3935 -0.8476
vn 0.1372 -0.9183 -0.3714
vn 0.3814 -0.1863 -0.9054
vn 0.6381 -0.7696 -0.0237
vn 0.2182 -0.8445 0.4892
vn 0.8721 -0.1009 0.4788
vn 0.9026 0.0067 -0.4305
vn -0.8780 -0.4702 0.0895
vn 0.2460 -0.4867 0.8382
vn -0.2674 -0.8302 0.4892
vn -0.1442 0.7856 -0.6018
vn 0.4249 0.5324 -0.7321
vn 0.9838 -0.1795 0.0012
vt 0.419006 0.791065
vt 0.415312 0.791705
vt 0.416837 0.613069
vt 0.416674 0.794841
vt 0.237754 0.790534
vt 0.238109 0.794309
vt 0.238898 0.613043
vt 0.234397 0.613496
vt 0.238020 0.609478
vt 0.234684 0.791784
vt 0.426234 0.424797
vt 0.428688 0.423994
vt 0.427163 0.602628
vt 0.426620 0.422500
vt 0.605102 0.602636
vt 0.605779 0.423955
vt 0.607476 0.602075
vt 0.607600 0.604300
vt 0.420416 0.612989
vt 0.600000 0.791066
vt 0.598081 0.791580
vt 0.598571 0.612979
vt 0.054600 0.612967
vt 0.056812 0.612989
vt 0.055692 0.790829
vt 0.416580 0.431519
vt 0.418200 0.432673
vt 0.415748 0.608847
vt 0.236400 0.431486
vt 0.236400 0.608327
vt 0.237849 0.429600
vt 0.238652 0.431939
vt 0.239530 0.796469
vt 0.417118 0.971932
vt 0.237926 0.973359
vt 0.418200 0.796056
vt 0.236400 0.972144
vt 0.596927 0.793200
vt 0.596731 0.614530
vt 0.233327 0.793200
vt 0.416340 0.429600
vt 0.418200 0.974180
vt 0.415824 0.974556
vt 0.239256 0.975000
s 1
usemtl 10576_alphabet_blocks_v1_diffuse
f 22/1/1 7/2/2 4/3/3
f 14/4/4 7/2/2 22/1/1
f 3/5/5 7/2/2 2/6/6
f 8/7/7 7/2/2 3/5/5
f 4/3/3 7/2/2 8/7/7
f 26/8/8 8/7/7 3/5/5
f 11/9/9 8/7/7 26/8/8
f 18/10/10 3/5/5 2/6/6
f 25/11/11 9/12/12 6/13/13
f 13/14/14 9/12/12 25/11/11
f 10/15/15 9/12/12 5/16/16
f 6/13/13 9/12/12 10/15/15
f 23/17/17 10/15/15 5/16/16
f 12/18/18 10/15/15 23/17/17
f 4/3/3 15/19/19 22/1/1
f 5/20/16 16/21/20 23/22/17
f 6/23/13 17/24/21 25/25/11
f 3/5/5 18/10/10 26/8/8
f 15/19/19 12/26/18 23/27/17
f 4/3/3 19/28/22 15/19/19
f 17/29/21 11/9/9 26/30/8
f 6/31/13 20/32/23 17/29/21
f 19/28/22 20/32/23 12/26/18
f 11/9/9 20/32/23 19/28/22
f 21/33/24 1/34/25 13/35/14
f 14/4/4 1/34/25 21/33/24
f 1/34/25 14/4/4 22/36/1
f 2/6/6 21/33/24 13/35/14
f 2/6/6 13/35/14 25/37/11
f 22/1/1 16/21/20 1/38/25
f 24/39/26 22/1/1 15/19/19
f 16/21/20 22/1/1 24/39/26
f 23/22/17 24/39/26 15/19/19
f 25/25/11 18/10/10 2/40/6
f 26/8/8 25/25/11 17/24/21
f 18/10/10 25/25/11 26/8/8
f 15/19/19 19/28/22 12/26/18
f 11/9/9 19/28/22 4/3/3
f 6/31/13 10/41/15 12/26/18
f 17/29/21 20/32/23 11/9/9
f 12/26/18 20/32/23 6/31/13
f 4/3/3 8/7/7 11/9/9
f 16/42/20 5/43/16 1/34/25
f 13/35/14 1/34/25 5/43/16
f 2/6/6 7/2/2 14/4/4
f 14/4/4 21/33/24 2/6/6
f 5/43/16 9/44/12 13/35/14
f 16/21/20 24/39/26 23/22/17
o 10576_Alphabet_Blocks_2
v 0.062936 0.147186 0.165275
v -0.062950 0.056877 0.074978
v -0.062862 0.147316 0.165149
v 0.062911 0.058462 0.253897
v 0.062526 0.056929 0.074856
v -0.062895 -0.031742 0.163693
v 0.062986 0.147587 0.163714
v -0.061683 0.058837 0.253823
v -0.063227 0.058130 0.074564
v 0.061683 -0.031667 0.163320
v 0.063365 0.057903 0.074757
v -0.062466 0.059285 0.075171
v 0.063884 0.057893 0.252745
v 0.063894 0.057954 0.075787
v -0.063884 -0.030589 0.164263
v -0.063894 0.146369 0.164203
v 0.062490 0.056367 0.253175
v -0.062984 0.057056 0.253641
v -0.062705 -0.031012 0.165669
v 0.062984 -0.031485 0.165100
v 0.061767 0.059535 0.075343
v -0.062578 0.147416 0.163378
v 0.063994 0.145842 0.164469
v 0.063894 -0.030634 0.163617
v -0.063994 0.057687 0.076314
v -0.063896 0.058550 0.252783
vn 0.8235 -0.5316 -0.1981
vn 0.2379 -0.4754 -0.8470
vn 0.5622 0.0457 -0.8258
vn -0.1684 0.3660 0.9152
vn 0.4390 0.7771 0.4509
vn -0.4027 0.8375 0.3693
vn 0.4041 0.1973 0.8932
vn -0.8237 0.2000 0.5306
vn -0.4675 -0.3334 0.8187
vn 0.1687 -0.9151 -0.3663
vn -0.4229 -0.5068 -0.7512
vn -0.3939 -0.8968 -0.2013
vn 0.4665 -0.8191 0.3337
vn 0.8937 -0.0522 0.4455
vn 0.9406 0.0187 -0.3390
vn -0.8978 -0.4390 0.0347
vn -0.8950 0.4440 -0.0430
vn 0.3338 -0.5332 0.7773
vn -0.3622 -0.7677 0.5286
vn 0.1620 0.5695 -0.8059
vn 0.4550 0.8583 -0.2372
vn -0.1926 0.6156 -0.7642
vn -0.5329 0.0943 -0.8409
vn -0.3360 0.8687 -0.3639
vn 0.9460 0.3222 0.0344
vn -0.9550 -0.0540 -0.2916
vt 0.988362 0.194982
vt 0.986443 0.017976
vt 0.987570 0.016247
vt 0.620585 0.205999
vt 0.798190 0.384054
vt 0.619320 0.383906
vt 0.797476 0.205694
vt 0.616877 0.206985
vt 0.618775 0.202302
vt 0.985842 0.195721
vt 0.808208 0.017659
vt 0.808829 0.195845
vt 0.987979 0.197300
vt 0.801159 0.205824
vt 0.981200 0.384415
vt 0.979073 0.384353
vt 0.980177 0.207248
vt 0.435800 0.206534
vt 0.437733 0.206027
vt 0.435800 0.384369
vt 0.615472 0.384353
vt 0.797496 0.201323
vt 0.619152 0.025571
vt 0.798234 0.024698
vt 0.798489 0.567192
vt 0.796270 0.564731
vt 0.797852 0.387971
vt 0.619660 0.564997
vt 0.619007 0.566565
vt 0.619593 0.388136
vt 0.802003 0.383748
vt 0.978344 0.386200
vt 0.979624 0.204477
vt 0.802276 0.204400
vt 0.438366 0.383748
vt 0.437963 0.386200
vt 0.614744 0.386200
vt 0.438656 0.204400
vt 0.810036 0.015701
vt 0.619980 0.023044
vt 0.796544 0.022600
vt 0.617600 0.023421
s 1
usemtl 10576_alphabet_blocks_v1_diffuse
f 50/45/27 31/46/28 37/47/29
f 34/48/30 27/49/31 29/50/32
f 30/51/33 27/49/31 34/48/30
f 52/52/34 34/48/30 29/50/32
f 44/53/35 34/48/30 52/52/34
f 36/54/36 28/55/37 31/46/28
f 32/56/38 28/55/37 36/54/36
f 50/45/27 36/54/36 31/46/28
f 46/57/39 36/54/36 50/45/27
f 30/51/33 39/58/40 27/49/31
f 37/59/29 40/60/41 50/61/27
f 32/62/38 41/63/42 28/64/37
f 29/50/32 42/65/43 52/52/34
f 43/66/44 45/67/45 46/68/39
f 44/53/35 45/67/45 43/66/44
f 37/69/29 47/70/46 33/71/47
f 38/72/48 37/69/29 35/73/49
f 48/74/50 38/72/48 35/73/49
f 29/50/32 48/74/50 42/65/43
f 47/70/46 48/74/50 33/71/47
f 38/72/48 48/74/50 47/70/46
f 27/49/31 49/75/51 33/71/47
f 33/71/47 40/60/41 37/76/29
f 46/77/39 50/61/27 39/58/40
f 49/75/51 50/61/27 40/60/41
f 39/58/40 50/61/27 49/75/51
f 46/77/39 39/58/40 43/78/44
f 28/64/37 51/79/52 35/80/49
f 35/80/49 42/65/43 48/81/50
f 44/53/35 52/52/34 41/63/42
f 51/79/52 52/52/34 42/65/43
f 41/63/42 52/52/34 51/79/52
f 44/53/35 41/63/42 45/82/45
f 29/50/32 27/49/31 33/71/47
f 33/71/47 48/74/50 29/50/32
f 31/46/28 28/55/37 35/83/49
f 35/83/49 37/47/29 31/46/28
f 39/58/40 30/51/33 43/66/44
f 44/53/35 43/66/44 30/51/33
f 32/84/38 36/85/36 46/68/39
f 41/86/42 32/84/38 45/67/45
f 46/68/39 45/67/45 32/84/38
f 30/51/33 34/48/30 44/53/35
f 38/72/48 47/70/46 37/69/29
f 33/71/47 49/75/51 40/60/41
f 39/58/40 49/75/51 27/49/31
f 35/80/49 51/79/52 42/65/43
f 41/63/42 51/79/52 28/64/37
o 10576_Alphabet_Blocks_3
v 0.063006 0.150053 -0.014955
v -0.062847 0.237626 0.074869
v 0.062660 0.149041 0.163374
v 0.062847 0.147287 -0.015470
v 0.061933 0.238003 0.074593
v -0.061821 0.149294 0.163363
v -0.061933 0.147563 -0.015847
v 0.062254 0.148276 -0.015987
v 0.061821 0.058793 0.072863
v -0.062660 0.058782 0.073115
v -0.062877 0.149313 -0.015688
v 0.062877 0.237844 0.072843
v 0.063798 0.148393 0.162718
v 0.063884 0.148458 -0.014783
v -0.063800 0.059448 0.073773
v -0.063884 0.236940 0.073698
v 0.062004 0.147257 0.163054
v -0.062605 0.147498 0.163139
v -0.062218 0.059127 0.074844
v 0.062605 0.059017 0.074658
v -0.061767 0.237322 0.072111
v -0.063407 0.238119 0.073830
v 0.063988 0.236736 0.074547
v 0.063867 0.059666 0.073374
v -0.063987 0.147620 -0.014582
v -0.063867 0.148782 0.162491
vn 0.8383 0.5087 0.1962
vn 0.3022 0.2835 0.9101
vn 0.8065 -0.0522 0.5889
vn -0.8389 -0.1948 -0.5082
vn -0.3002 -0.9103 -0.2849
vn -0.8116 -0.5824 0.0455
vn 0.1994 0.9112 0.3605
vn 0.4651 0.8164 -0.3422
vn -0.3759 0.7176 0.5863
vn -0.5740 0.8182 0.0312
vn -0.1899 0.3508 0.9170
vn -0.8118 0.1099 0.5734
vn -0.3609 -0.4049 0.8401
vn -0.9503 0.3107 0.0216
vn -0.2001 -0.3608 -0.9109
vn -0.4644 0.3419 -0.8169
vn 0.4339 -0.4707 -0.7683
vn 0.2125 0.0309 -0.9767
vn 0.1899 -0.9170 -0.3508
vn 0.8118 -0.5734 -0.1099
vn 0.3609 -0.8402 0.4049
vn 0.8770 0.0117 -0.4804
vn 0.2089 -0.4927 0.8448
vn -0.2267 -0.8382 0.4961
vn -0.1437 0.7858 -0.6016
vn 0.4415 0.5302 -0.7239
vt 0.210626 0.400329
vt 0.207059 0.222964
vt 0.210371 0.222172
vt 0.217638 0.034618
vt 0.219790 0.212342
vt 0.217613 0.212546
vt 0.206712 0.401506
vt 0.208273 0.404945
vt 0.029179 0.400334
vt 0.029556 0.404110
vt 0.030368 0.222864
vt 0.027924 0.223425
vt 0.029456 0.219281
vt 0.027800 0.403821
vt 0.220157 0.033801
vt 0.218020 0.032300
vt 0.397646 0.034970
vt 0.396723 0.032570
vt 0.396502 0.212457
vt 0.398876 0.211875
vt 0.399000 0.214100
vt 0.399000 0.032300
vt 0.391500 0.400866
vt 0.389490 0.401380
vt 0.390216 0.223381
vt 0.595800 0.194766
vt 0.593837 0.195280
vt 0.594534 0.017277
vt 0.207980 0.041324
vt 0.209600 0.042256
vt 0.207148 0.218663
vt 0.030111 0.041755
vt 0.028320 0.040192
vt 0.027800 0.218344
vt 0.031030 0.406321
vt 0.208518 0.581732
vt 0.029155 0.582864
vt 0.388327 0.403000
vt 0.415282 0.196759
vt 0.592627 0.196900
vt 0.415264 0.193989
vt 0.415347 0.016500
vt 0.030973 0.039400
vt 0.207740 0.039400
vt 0.209600 0.583980
vt 0.207224 0.584356
vt 0.030756 0.584800
s 1
usemtl 10576_alphabet_blocks_v1_diffuse
f 75/87/53 55/88/54 65/89/55
f 77/90/56 62/91/57 67/92/58
f 75/87/53 57/93/59 55/88/54
f 64/94/60 57/93/59 75/87/53
f 54/95/61 57/93/59 74/96/62
f 58/97/63 57/93/59 54/95/61
f 55/88/54 57/93/59 58/97/63
f 78/98/64 58/97/63 54/95/61
f 70/99/65 58/97/63 78/98/64
f 68/100/66 54/95/61 74/96/62
f 77/90/56 59/101/67 62/91/57
f 63/102/68 59/101/67 77/90/56
f 56/103/69 59/101/67 60/104/70
f 61/105/71 59/101/67 56/103/69
f 62/91/57 59/101/67 61/105/71
f 76/106/72 61/105/71 56/103/69
f 72/107/73 61/105/71 76/106/72
f 66/108/74 56/103/69 60/104/70
f 56/109/69 66/110/74 76/111/72
f 54/112/61 68/113/66 78/114/64
f 65/89/55 72/115/73 76/116/72
f 69/117/75 71/118/76 72/115/73
f 70/99/65 71/118/76 69/117/75
f 67/119/58 70/99/65 78/120/64
f 73/121/77 53/122/78 63/123/68
f 64/94/60 53/122/78 73/121/77
f 74/96/62 73/121/77 63/123/68
f 64/94/60 66/110/74 53/124/78
f 64/94/60 75/87/53 66/110/74
f 75/87/53 76/111/72 66/110/74
f 65/89/55 76/111/72 75/87/53
f 63/125/68 68/113/66 74/126/62
f 63/125/68 77/127/56 68/113/66
f 77/127/56 78/114/64 68/113/66
f 67/128/58 78/114/64 77/127/56
f 65/89/55 69/117/75 72/115/73
f 65/89/55 55/88/54 69/117/75
f 70/99/65 69/117/75 55/88/54
f 62/129/57 61/130/71 72/115/73
f 67/119/58 71/118/76 70/99/65
f 67/119/58 62/129/57 71/118/76
f 72/115/73 71/118/76 62/129/57
f 55/88/54 58/97/63 70/99/65
f 66/131/74 60/132/70 53/122/78
f 63/123/68 53/122/78 60/132/70
f 74/96/62 57/93/59 64/94/60
f 64/94/60 73/121/77 74/96/62
f 60/132/70 59/133/67 63/123/68
